<svg xmlns="http://www.w3.org/2000/svg" xmlns:xlink="http://www.w3.org/1999/xlink" contentStyleType="text/css" data-diagram-type="CLASS" height="744px" preserveAspectRatio="none" style="width:1054px;height:744px;background:#FFFFFF;" version="1.1" viewBox="0 0 1054 744" width="1054px" zoomAndPan="magnify"><defs/><g><!--cluster Comun--><g class="cluster" data-entity="Comun" data-source-line="1" data-uid="ent0002" id="cluster_Comun"><path d="M631.5,30.5 L686.9141,30.5 A3.75,3.75 0 0 1 689.4141,33 L696.4141,52.7969 L790.5,52.7969 A2.5,2.5 0 0 1 793,55.2969 L793,176 A2.5,2.5 0 0 1 790.5,178.5 L631.5,178.5 A2.5,2.5 0 0 1 629,176 L629,33 A2.5,2.5 0 0 1 631.5,30.5" fill="none" style="stroke:#000000;stroke-width:1.5;"/><line style="stroke:#000000;stroke-width:1.5;" x1="629" x2="696.4141" y1="52.7969" y2="52.7969"/><text fill="#000000" font-family="sans-serif" font-size="14" font-weight="bold" lengthAdjust="spacing" textLength="54.4141" x="633" y="45.4951">Comun</text></g><!--cluster Gesti?n del Festival--><g class="cluster" data-entity="Gesti&#243;n del Festival" data-source-line="11" data-uid="ent0004" id="cluster_Gesti&#243;n del Festival"><path d="M8.5,6 L166.2139,6 A3.75,3.75 0 0 1 168.7139,8.5 L175.7139,28.2969 L544.5,28.2969 A2.5,2.5 0 0 1 547,30.7969 L547,568.5 A2.5,2.5 0 0 1 544.5,571 L8.5,571 A2.5,2.5 0 0 1 6,568.5 L6,8.5 A2.5,2.5 0 0 1 8.5,6" fill="none" style="stroke:#000000;stroke-width:1.5;"/><line style="stroke:#000000;stroke-width:1.5;" x1="6" x2="175.7139" y1="28.2969" y2="28.2969"/><text fill="#000000" font-family="sans-serif" font-size="14" font-weight="bold" lengthAdjust="spacing" textLength="156.7139" x="10" y="20.9951">Gesti&#243;n del Festival</text></g><!--cluster Participaci?n--><g class="cluster" data-entity="Participaci&#243;n" data-source-line="36" data-uid="ent0010" id="cluster_Participaci&#243;n"><path d="M623.5,250 L727.8525,250 A3.75,3.75 0 0 1 730.3525,252.5 L737.3525,272.2969 L798.5,272.2969 A2.5,2.5 0 0 1 801,274.7969 L801,379.5 A2.5,2.5 0 0 1 798.5,382 L623.5,382 A2.5,2.5 0 0 1 621,379.5 L621,252.5 A2.5,2.5 0 0 1 623.5,250" fill="none" style="stroke:#000000;stroke-width:1.5;"/><line style="stroke:#000000;stroke-width:1.5;" x1="621" x2="737.3525" y1="272.2969" y2="272.2969"/><text fill="#000000" font-family="sans-serif" font-size="14" font-weight="bold" lengthAdjust="spacing" textLength="103.3525" x="625" y="264.9951">Participaci&#243;n</text></g><!--cluster Proyecciones--><g class="cluster" data-entity="Proyecciones" data-source-line="44" data-uid="ent0012" id="cluster_Proyecciones"><path d="M575.5,431 L680.7139,431 A3.75,3.75 0 0 1 683.2139,433.5 L690.2139,453.2969 L798.5,453.2969 A2.5,2.5 0 0 1 801,455.7969 L801,734.5 A2.5,2.5 0 0 1 798.5,737 L575.5,737 A2.5,2.5 0 0 1 573,734.5 L573,433.5 A2.5,2.5 0 0 1 575.5,431" fill="none" style="stroke:#000000;stroke-width:1.5;"/><line style="stroke:#000000;stroke-width:1.5;" x1="573" x2="690.2139" y1="453.2969" y2="453.2969"/><text fill="#000000" font-family="sans-serif" font-size="14" font-weight="bold" lengthAdjust="spacing" textLength="104.2139" x="577" y="445.9951">Proyecciones</text></g><!--cluster Evaluaci?n--><g class="cluster" data-entity="Evaluaci&#243;n" data-source-line="57" data-uid="ent0015" id="cluster_Evaluaci&#243;n"><path d="M827.5,250 L913.5322,250 A3.75,3.75 0 0 1 916.0322,252.5 L923.0322,272.2969 L1044.5,272.2969 A2.5,2.5 0 0 1 1047,274.7969 L1047,568.5 A2.5,2.5 0 0 1 1044.5,571 L827.5,571 A2.5,2.5 0 0 1 825,568.5 L825,252.5 A2.5,2.5 0 0 1 827.5,250" fill="none" style="stroke:#000000;stroke-width:1.5;"/><line style="stroke:#000000;stroke-width:1.5;" x1="825" x2="923.0322" y1="272.2969" y2="272.2969"/><text fill="#000000" font-family="sans-serif" font-size="14" font-weight="bold" lengthAdjust="spacing" textLength="85.0322" x="829" y="264.9951">Evaluaci&#243;n</text></g><!--class Persona--><g class="entity" data-entity="Persona" data-source-line="3" data-uid="ent0003" id="entity_Persona"><rect fill="#F1F1F1" height="96.8906" rx="2.5" ry="2.5" style="stroke:#181818;stroke-width:0.5;" width="131.2803" x="645.5" y="65.5"/><ellipse cx="679.9208" cy="81.5" fill="#A9DCDF" rx="11" ry="11" style="stroke:#181818;stroke-width:1;"/><path d="M680.0301,76.8438 L678.8739,81.9219 L681.202,81.9219 L680.0301,76.8438 Z M678.5458,74.6094 L681.5301,74.6094 L684.8895,87 L682.4364,87 L681.6708,83.9375 L678.3895,83.9375 L677.6395,87 L675.202,87 L678.5458,74.6094 Z " fill="#000000"/><text fill="#000000" font-family="sans-serif" font-size="14" font-style="italic" lengthAdjust="spacing" textLength="56.123" x="698.2365" y="86.3467">Persona</text><line style="stroke:#181818;stroke-width:0.5;" x1="646.5" x2="775.7803" y1="97.5" y2="97.5"/><rect fill="none" height="6" style="stroke:#C82930;stroke-width:1;" width="6" x="653.5" y="108.1484"/><text fill="#000000" font-family="sans-serif" font-size="14" lengthAdjust="spacing" textLength="63.7246" x="665.5" y="114.4951">id: String</text><rect fill="none" height="6" style="stroke:#C82930;stroke-width:1;" width="6" x="653.5" y="124.4453"/><text fill="#000000" font-family="sans-serif" font-size="14" lengthAdjust="spacing" textLength="105.2803" x="665.5" y="130.792">nombre: String</text><rect fill="none" height="6" style="stroke:#C82930;stroke-width:1;" width="6" x="653.5" y="140.7422"/><text fill="#000000" font-family="sans-serif" font-size="14" lengthAdjust="spacing" textLength="89.5576" x="665.5" y="147.0889">email: String</text><line style="stroke:#181818;stroke-width:0.5;" x1="646.5" x2="775.7803" y1="154.3906" y2="154.3906"/></g><!--class IDirector--><g class="entity" data-entity="IDirector" data-source-line="12" data-uid="ent0005" id="entity_IDirector"><rect fill="#F1F1F1" height="64.2969" rx="2.5" ry="2.5" style="stroke:#181818;stroke-width:0.5;" width="196.3789" x="22" y="293.5"/><ellipse cx="85.6016" cy="309.5" fill="#B4A7E5" rx="11" ry="11" style="stroke:#181818;stroke-width:1;"/><path d="M81.5234,305.2656 L81.5234,303.1094 L88.9141,303.1094 L88.9141,305.2656 L86.4453,305.2656 L86.4453,313.3438 L88.9141,313.3438 L88.9141,315.5 L81.5234,315.5 L81.5234,313.3438 L83.9922,313.3438 L83.9922,305.2656 L81.5234,305.2656 Z " fill="#000000"/><text fill="#000000" font-family="sans-serif" font-size="14" font-style="italic" lengthAdjust="spacing" textLength="60.6758" x="106.1016" y="314.3467">IDirector</text><line style="stroke:#181818;stroke-width:0.5;" x1="23" x2="217.3789" y1="325.5" y2="325.5"/><line style="stroke:#181818;stroke-width:0.5;" x1="23" x2="217.3789" y1="333.5" y2="333.5"/><ellipse cx="33" cy="347.1484" fill="#84BE84" rx="3" ry="3" style="stroke:#038048;stroke-width:1;"/><text fill="#000000" font-family="sans-serif" font-size="14" lengthAdjust="spacing" textLength="170.3789" x="42" y="350.4951">coordinarFestival(): void</text></g><!--class Festival--><g class="entity" data-entity="Festival" data-source-line="16" data-uid="ent0006" id="entity_Festival"><rect fill="#F1F1F1" height="145.7813" rx="2.5" ry="2.5" style="stroke:#181818;stroke-width:0.5;" width="334.3418" x="133" y="41"/><ellipse cx="268.8745" cy="57" fill="#ADD1B2" rx="11" ry="11" style="stroke:#181818;stroke-width:1;"/><path d="M271.8433,62.6406 Q271.2651,62.9375 270.6245,63.0781 Q269.9839,63.2344 269.2808,63.2344 Q266.7808,63.2344 265.4526,61.5938 Q264.1401,59.9375 264.1401,56.8125 Q264.1401,53.6875 265.4526,52.0313 Q266.7808,50.375 269.2808,50.375 Q269.9839,50.375 270.6245,50.5313 Q271.2808,50.6875 271.8433,50.9844 L271.8433,53.7031 Q271.2183,53.125 270.6245,52.8594 Q270.0308,52.5781 269.4058,52.5781 Q268.062,52.5781 267.3745,53.6563 Q266.687,54.7188 266.687,56.8125 Q266.687,58.9063 267.3745,59.9844 Q268.062,61.0469 269.4058,61.0469 Q270.0308,61.0469 270.6245,60.7813 Q271.2183,60.5 271.8433,59.9219 L271.8433,62.6406 Z " fill="#000000"/><text fill="#000000" font-family="sans-serif" font-size="14" lengthAdjust="spacing" textLength="54.0928" x="289.3745" y="61.8467">Festival</text><line style="stroke:#181818;stroke-width:0.5;" x1="134" x2="466.3418" y1="73" y2="73"/><rect fill="none" height="6" style="stroke:#C82930;stroke-width:1;" width="6" x="141" y="83.6484"/><text fill="#000000" font-family="sans-serif" font-size="14" lengthAdjust="spacing" textLength="105.2803" x="153" y="89.9951">nombre: String</text><rect fill="none" height="6" style="stroke:#C82930;stroke-width:1;" width="6" x="141" y="99.9453"/><text fill="#000000" font-family="sans-serif" font-size="14" lengthAdjust="spacing" textLength="53.4365" x="153" y="106.292">a&#241;o: int</text><rect fill="none" height="6" style="stroke:#C82930;stroke-width:1;" width="6" x="141" y="116.2422"/><text fill="#000000" font-family="sans-serif" font-size="14" lengthAdjust="spacing" textLength="146.0156" x="153" y="122.5889">programa: Programa</text><rect fill="none" height="6" style="stroke:#C82930;stroke-width:1;" width="6" x="141" y="132.5391"/><text fill="#000000" font-family="sans-serif" font-size="14" lengthAdjust="spacing" textLength="124.4961" x="153" y="138.8857">director: IDirector</text><line style="stroke:#181818;stroke-width:0.5;" x1="134" x2="466.3418" y1="146.1875" y2="146.1875"/><ellipse cx="144" cy="159.8359" fill="#84BE84" rx="3" ry="3" style="stroke:#038048;stroke-width:1;"/><text fill="#000000" font-family="sans-serif" font-size="14" lengthAdjust="spacing" textLength="250.7148" x="153" y="163.1826">agregarSesion(sesion: Sesion): void</text><ellipse cx="144" cy="176.1328" fill="#84BE84" rx="3" ry="3" style="stroke:#038048;stroke-width:1;"/><text fill="#000000" font-family="sans-serif" font-size="14" lengthAdjust="spacing" textLength="308.3418" x="153" y="179.4795">agregarAsistente(asistente: Asistente): void</text></g><!--class Programa--><g class="entity" data-entity="Programa" data-source-line="25" data-uid="ent0007" id="entity_Programa"><rect fill="#F1F1F1" height="80.5938" rx="2.5" ry="2.5" style="stroke:#181818;stroke-width:0.5;" width="276.7148" x="253.5" y="285"/><ellipse cx="353.5063" cy="301" fill="#ADD1B2" rx="11" ry="11" style="stroke:#181818;stroke-width:1;"/><path d="M356.4751,306.6406 Q355.897,306.9375 355.2563,307.0781 Q354.6157,307.2344 353.9126,307.2344 Q351.4126,307.2344 350.0845,305.5938 Q348.772,303.9375 348.772,300.8125 Q348.772,297.6875 350.0845,296.0313 Q351.4126,294.375 353.9126,294.375 Q354.6157,294.375 355.2563,294.5313 Q355.9126,294.6875 356.4751,294.9844 L356.4751,297.7031 Q355.8501,297.125 355.2563,296.8594 Q354.6626,296.5781 354.0376,296.5781 Q352.6938,296.5781 352.0063,297.6563 Q351.3188,298.7188 351.3188,300.8125 Q351.3188,302.9063 352.0063,303.9844 Q352.6938,305.0469 354.0376,305.0469 Q354.6626,305.0469 355.2563,304.7813 Q355.8501,304.5 356.4751,303.9219 L356.4751,306.6406 Z " fill="#000000"/><text fill="#000000" font-family="sans-serif" font-size="14" lengthAdjust="spacing" textLength="68.2021" x="374.0063" y="305.8467">Programa</text><line style="stroke:#181818;stroke-width:0.5;" x1="254.5" x2="529.2148" y1="317" y2="317"/><rect fill="none" height="6" style="stroke:#C82930;stroke-width:1;" width="6" x="261.5" y="327.6484"/><text fill="#000000" font-family="sans-serif" font-size="14" lengthAdjust="spacing" textLength="163.6592" x="273.5" y="333.9951">sesiones: List&lt;Sesion&gt;</text><line style="stroke:#181818;stroke-width:0.5;" x1="254.5" x2="529.2148" y1="341.2969" y2="341.2969"/><ellipse cx="264.5" cy="354.9453" fill="#84BE84" rx="3" ry="3" style="stroke:#038048;stroke-width:1;"/><text fill="#000000" font-family="sans-serif" font-size="14" lengthAdjust="spacing" textLength="250.7148" x="273.5" y="358.292">agregarSesion(sesion: Sesion): void</text></g><!--class DirectorFestival--><g class="entity" data-entity="DirectorFestival" data-source-line="30" data-uid="ent0008" id="entity_DirectorFestival"><rect fill="#F1F1F1" height="80.5938" rx="2.5" ry="2.5" style="stroke:#181818;stroke-width:0.5;" width="196.3789" x="256" y="474"/><ellipse cx="295.1827" cy="490" fill="#ADD1B2" rx="11" ry="11" style="stroke:#181818;stroke-width:1;"/><path d="M298.1514,495.6406 Q297.5733,495.9375 296.9327,496.0781 Q296.292,496.2344 295.5889,496.2344 Q293.0889,496.2344 291.7608,494.5938 Q290.4483,492.9375 290.4483,489.8125 Q290.4483,486.6875 291.7608,485.0313 Q293.0889,483.375 295.5889,483.375 Q296.292,483.375 296.9327,483.5313 Q297.5889,483.6875 298.1514,483.9844 L298.1514,486.7031 Q297.5264,486.125 296.9327,485.8594 Q296.3389,485.5781 295.7139,485.5781 Q294.3702,485.5781 293.6827,486.6563 Q292.9952,487.7188 292.9952,489.8125 Q292.9952,491.9063 293.6827,492.9844 Q294.3702,494.0469 295.7139,494.0469 Q296.3389,494.0469 296.9327,493.7813 Q297.5264,493.5 298.1514,492.9219 L298.1514,495.6406 Z " fill="#000000"/><text fill="#000000" font-family="sans-serif" font-size="14" lengthAdjust="spacing" textLength="110.6396" x="314.5566" y="494.8467">DirectorFestival</text><line style="stroke:#181818;stroke-width:0.5;" x1="257" x2="451.3789" y1="506" y2="506"/><rect fill="none" height="6" style="stroke:#C82930;stroke-width:1;" width="6" x="264" y="516.6484"/><text fill="#000000" font-family="sans-serif" font-size="14" lengthAdjust="spacing" textLength="121.8574" x="276" y="522.9951">persona: Persona</text><line style="stroke:#181818;stroke-width:0.5;" x1="257" x2="451.3789" y1="530.2969" y2="530.2969"/><ellipse cx="267" cy="543.9453" fill="#84BE84" rx="3" ry="3" style="stroke:#038048;stroke-width:1;"/><text fill="#000000" font-family="sans-serif" font-size="14" lengthAdjust="spacing" textLength="170.3789" x="276" y="547.292">coordinarFestival(): void</text></g><!--class Asistente--><g class="entity" data-entity="Asistente" data-source-line="37" data-uid="ent0011" id="entity_Asistente"><rect fill="#F1F1F1" height="80.5938" rx="2.5" ry="2.5" style="stroke:#181818;stroke-width:0.5;" width="147.8574" x="637" y="285"/><ellipse cx="674.8261" cy="301" fill="#ADD1B2" rx="11" ry="11" style="stroke:#181818;stroke-width:1;"/><path d="M677.7948,306.6406 Q677.2167,306.9375 676.5761,307.0781 Q675.9354,307.2344 675.2323,307.2344 Q672.7323,307.2344 671.4042,305.5938 Q670.0917,303.9375 670.0917,300.8125 Q670.0917,297.6875 671.4042,296.0313 Q672.7323,294.375 675.2323,294.375 Q675.9354,294.375 676.5761,294.5313 Q677.2323,294.6875 677.7948,294.9844 L677.7948,297.7031 Q677.1698,297.125 676.5761,296.8594 Q675.9823,296.5781 675.3573,296.5781 Q674.0136,296.5781 673.3261,297.6563 Q672.6386,298.7188 672.6386,300.8125 Q672.6386,302.9063 673.3261,303.9844 Q674.0136,305.0469 675.3573,305.0469 Q675.9823,305.0469 676.5761,304.7813 Q677.1698,304.5 677.7948,303.9219 L677.7948,306.6406 Z " fill="#000000"/><text fill="#000000" font-family="sans-serif" font-size="14" lengthAdjust="spacing" textLength="65.1328" x="693.8985" y="305.8467">Asistente</text><line style="stroke:#181818;stroke-width:0.5;" x1="638" x2="783.8574" y1="317" y2="317"/><rect fill="none" height="6" style="stroke:#C82930;stroke-width:1;" width="6" x="645" y="327.6484"/><text fill="#000000" font-family="sans-serif" font-size="14" lengthAdjust="spacing" textLength="121.8574" x="657" y="333.9951">persona: Persona</text><line style="stroke:#181818;stroke-width:0.5;" x1="638" x2="783.8574" y1="341.2969" y2="341.2969"/><ellipse cx="648" cy="354.9453" fill="#84BE84" rx="3" ry="3" style="stroke:#038048;stroke-width:1;"/><text fill="#000000" font-family="sans-serif" font-size="14" lengthAdjust="spacing" textLength="91.9092" x="657" y="358.292">asistir(): void</text></g><!--class Sesion--><g class="entity" data-entity="Sesion" data-source-line="45" data-uid="ent0013" id="entity_Sesion"><rect fill="#F1F1F1" height="96.8906" rx="2.5" ry="2.5" style="stroke:#181818;stroke-width:0.5;" width="196.2422" x="589" y="466"/><ellipse cx="659.8101" cy="482" fill="#ADD1B2" rx="11" ry="11" style="stroke:#181818;stroke-width:1;"/><path d="M662.7788,487.6406 Q662.2007,487.9375 661.5601,488.0781 Q660.9194,488.2344 660.2163,488.2344 Q657.7163,488.2344 656.3882,486.5938 Q655.0757,484.9375 655.0757,481.8125 Q655.0757,478.6875 656.3882,477.0313 Q657.7163,475.375 660.2163,475.375 Q660.9194,475.375 661.5601,475.5313 Q662.2163,475.6875 662.7788,475.9844 L662.7788,478.7031 Q662.1538,478.125 661.5601,477.8594 Q660.9663,477.5781 660.3413,477.5781 Q658.9976,477.5781 658.3101,478.6563 Q657.6226,479.7188 657.6226,481.8125 Q657.6226,483.9063 658.3101,484.9844 Q658.9976,486.0469 660.3413,486.0469 Q660.9663,486.0469 661.5601,485.7813 Q662.1538,485.5 662.7788,484.9219 L662.7788,487.6406 Z " fill="#000000"/><text fill="#000000" font-family="sans-serif" font-size="14" lengthAdjust="spacing" textLength="46.1221" x="680.3101" y="486.8467">Sesion</text><line style="stroke:#181818;stroke-width:0.5;" x1="590" x2="784.2422" y1="498" y2="498"/><rect fill="none" height="6" style="stroke:#C82930;stroke-width:1;" width="6" x="597" y="508.6484"/><text fill="#000000" font-family="sans-serif" font-size="14" lengthAdjust="spacing" textLength="81.3203" x="609" y="514.9951">fecha: Date</text><rect fill="none" height="6" style="stroke:#C82930;stroke-width:1;" width="6" x="597" y="524.9453"/><text fill="#000000" font-family="sans-serif" font-size="14" lengthAdjust="spacing" textLength="117.3594" x="609" y="531.292">pelicula: Pelicula</text><line style="stroke:#181818;stroke-width:0.5;" x1="590" x2="784.2422" y1="538.5938" y2="538.5938"/><ellipse cx="600" cy="552.2422" fill="#84BE84" rx="3" ry="3" style="stroke:#038048;stroke-width:1;"/><text fill="#000000" font-family="sans-serif" font-size="14" lengthAdjust="spacing" textLength="170.2422" x="609" y="555.5889">programarSesion(): void</text></g><!--class Pelicula--><g class="entity" data-entity="Pelicula" data-source-line="51" data-uid="ent0014" id="entity_Pelicula"><rect fill="#F1F1F1" height="80.5938" rx="2.5" ry="2.5" style="stroke:#181818;stroke-width:0.5;" width="131.6016" x="645" y="640"/><ellipse cx="680.5774" cy="656" fill="#ADD1B2" rx="11" ry="11" style="stroke:#181818;stroke-width:1;"/><path d="M683.5461,661.6406 Q682.968,661.9375 682.3274,662.0781 Q681.6868,662.2344 680.9836,662.2344 Q678.4836,662.2344 677.1555,660.5938 Q675.843,658.9375 675.843,655.8125 Q675.843,652.6875 677.1555,651.0313 Q678.4836,649.375 680.9836,649.375 Q681.6868,649.375 682.3274,649.5313 Q682.9836,649.6875 683.5461,649.9844 L683.5461,652.7031 Q682.9211,652.125 682.3274,651.8594 Q681.7336,651.5781 681.1086,651.5781 Q679.7649,651.5781 679.0774,652.6563 Q678.3899,653.7188 678.3899,655.8125 Q678.3899,657.9063 679.0774,658.9844 Q679.7649,660.0469 681.1086,660.0469 Q681.7336,660.0469 682.3274,659.7813 Q682.9211,659.5 683.5461,658.9219 L683.5461,661.6406 Z " fill="#000000"/><text fill="#000000" font-family="sans-serif" font-size="14" lengthAdjust="spacing" textLength="53.874" x="699.1501" y="660.8467">Pelicula</text><line style="stroke:#181818;stroke-width:0.5;" x1="646" x2="775.6016" y1="672" y2="672"/><rect fill="none" height="6" style="stroke:#C82930;stroke-width:1;" width="6" x="653" y="682.6484"/><text fill="#000000" font-family="sans-serif" font-size="14" lengthAdjust="spacing" textLength="87.1445" x="665" y="688.9951">titulo: String</text><rect fill="none" height="6" style="stroke:#C82930;stroke-width:1;" width="6" x="653" y="698.9453"/><text fill="#000000" font-family="sans-serif" font-size="14" lengthAdjust="spacing" textLength="105.6016" x="665" y="705.292">director: String</text><line style="stroke:#181818;stroke-width:0.5;" x1="646" x2="775.6016" y1="712.5938" y2="712.5938"/></g><!--class Jurado--><g class="entity" data-entity="Jurado" data-source-line="58" data-uid="ent0016" id="entity_Jurado"><rect fill="#F1F1F1" height="80.5938" rx="2.5" ry="2.5" style="stroke:#181818;stroke-width:0.5;" width="189.4609" x="841.5" y="285"/><ellipse cx="909.5859" cy="301" fill="#ADD1B2" rx="11" ry="11" style="stroke:#181818;stroke-width:1;"/><path d="M912.5547,306.6406 Q911.9766,306.9375 911.3359,307.0781 Q910.6953,307.2344 909.9922,307.2344 Q907.4922,307.2344 906.1641,305.5938 Q904.8516,303.9375 904.8516,300.8125 Q904.8516,297.6875 906.1641,296.0313 Q907.4922,294.375 909.9922,294.375 Q910.6953,294.375 911.3359,294.5313 Q911.9922,294.6875 912.5547,294.9844 L912.5547,297.7031 Q911.9297,297.125 911.3359,296.8594 Q910.7422,296.5781 910.1172,296.5781 Q908.7734,296.5781 908.0859,297.6563 Q907.3984,298.7188 907.3984,300.8125 Q907.3984,302.9063 908.0859,303.9844 Q908.7734,305.0469 910.1172,305.0469 Q910.7422,305.0469 911.3359,304.7813 Q911.9297,304.5 912.5547,303.9219 L912.5547,306.6406 Z " fill="#000000"/><text fill="#000000" font-family="sans-serif" font-size="14" lengthAdjust="spacing" textLength="44.7891" x="930.0859" y="305.8467">Jurado</text><line style="stroke:#181818;stroke-width:0.5;" x1="842.5" x2="1029.9609" y1="317" y2="317"/><rect fill="none" height="6" style="stroke:#C82930;stroke-width:1;" width="6" x="849.5" y="327.6484"/><text fill="#000000" font-family="sans-serif" font-size="14" lengthAdjust="spacing" textLength="121.8574" x="861.5" y="333.9951">persona: Persona</text><line style="stroke:#181818;stroke-width:0.5;" x1="842.5" x2="1029.9609" y1="341.2969" y2="341.2969"/><ellipse cx="852.5" cy="354.9453" fill="#84BE84" rx="3" ry="3" style="stroke:#038048;stroke-width:1;"/><text fill="#000000" font-family="sans-serif" font-size="14" lengthAdjust="spacing" textLength="163.4609" x="861.5" y="358.292">evaluarPeliculas(): void</text></g><!--class Premio--><g class="entity" data-entity="Premio" data-source-line="63" data-uid="ent0017" id="entity_Premio"><rect fill="#F1F1F1" height="80.5938" rx="2.5" ry="2.5" style="stroke:#181818;stroke-width:0.5;" width="143.3594" x="852.5" y="474"/><ellipse cx="895.6048" cy="490" fill="#ADD1B2" rx="11" ry="11" style="stroke:#181818;stroke-width:1;"/><path d="M898.5735,495.6406 Q897.9954,495.9375 897.3548,496.0781 Q896.7142,496.2344 896.011,496.2344 Q893.511,496.2344 892.1829,494.5938 Q890.8704,492.9375 890.8704,489.8125 Q890.8704,486.6875 892.1829,485.0313 Q893.511,483.375 896.011,483.375 Q896.7142,483.375 897.3548,483.5313 Q898.011,483.6875 898.5735,483.9844 L898.5735,486.7031 Q897.9485,486.125 897.3548,485.8594 Q896.761,485.5781 896.136,485.5781 Q894.7923,485.5781 894.1048,486.6563 Q893.4173,487.7188 893.4173,489.8125 Q893.4173,491.9063 894.1048,492.9844 Q894.7923,494.0469 896.136,494.0469 Q896.761,494.0469 897.3548,493.7813 Q897.9485,493.5 898.5735,492.9219 L898.5735,495.6406 Z " fill="#000000"/><text fill="#000000" font-family="sans-serif" font-size="14" lengthAdjust="spacing" textLength="48.9043" x="915.8503" y="494.8467">Premio</text><line style="stroke:#181818;stroke-width:0.5;" x1="853.5" x2="994.8594" y1="506" y2="506"/><rect fill="none" height="6" style="stroke:#C82930;stroke-width:1;" width="6" x="860.5" y="516.6484"/><text fill="#000000" font-family="sans-serif" font-size="14" lengthAdjust="spacing" textLength="105.2803" x="872.5" y="522.9951">nombre: String</text><rect fill="none" height="6" style="stroke:#C82930;stroke-width:1;" width="6" x="860.5" y="532.9453"/><text fill="#000000" font-family="sans-serif" font-size="14" lengthAdjust="spacing" textLength="117.3594" x="872.5" y="539.292">pelicula: Pelicula</text><line style="stroke:#181818;stroke-width:0.5;" x1="853.5" x2="994.8594" y1="546.5938" y2="546.5938"/></g><!--reverse link IDirector to DirectorFestival--><g class="link" data-entity-1="IDirector" data-entity-2="DirectorFestival" data-source-line="31" data-uid="lnk9" id="link_IDirector_DirectorFestival"><path d="M172.9625,368.8259 C212.8625,400.7059 261,439.18 304.4,473.87" fill="none" id="IDirector-backto-DirectorFestival" style="stroke:#181818;stroke-width:1;stroke-dasharray:7.0,7.0;"/><polygon fill="none" points="158.9,357.59,169.2172,373.5134,176.7078,364.1384,158.9,357.59" style="stroke:#181818;stroke-width:1;"/></g><!--reverse link Festival to Programa--><g class="link" data-entity-1="Festival" data-entity-2="Programa" data-source-line="69" data-uid="lnk18" id="link_Festival_Programa"><path codeLine="69" d="M336.4863,198.0866 C350.8863,230.8666 362.54,257.41 374.63,284.95" fill="none" id="Festival-backto-Programa" style="stroke:#181818;stroke-width:1;"/><polygon fill="#181818" points="331.66,187.1,330.411,194.2021,336.4863,198.0866,337.7354,190.9845,331.66,187.1" style="stroke:#181818;stroke-width:1;"/><text fill="#000000" font-family="sans-serif" font-size="13" lengthAdjust="spacing" textLength="56.2847" x="353" y="230.0669">contiene</text></g><!--link Festival to IDirector--><g class="link" data-entity-1="Festival" data-entity-2="IDirector" data-source-line="70" data-uid="lnk19" id="link_Festival_IDirector"><path codeLine="70" d="M238.05,187.1 C206.94,223.32 174.7605,260.7694 150.7505,288.7094" fill="none" id="Festival-to-IDirector" style="stroke:#181818;stroke-width:1;"/><polygon fill="#181818" points="146.84,293.26,155.7395,289.0411,150.0988,289.4678,149.672,283.8271,146.84,293.26" style="stroke:#181818;stroke-width:1;"/><text fill="#000000" font-family="sans-serif" font-size="13" lengthAdjust="spacing" textLength="74.5723" x="211" y="230.0669">dirigido por</text></g><!--reverse link Programa to Sesion--><g class="link" data-entity-1="Programa" data-entity-2="Sesion" data-source-line="71" data-uid="lnk20" id="link_Programa_Sesion"><path codeLine="71" d="M466.447,372.4862 C494.397,389.8262 517.29,404.15 547,423 C568.75,436.8 592.3,451.94 613.77,465.83" fill="none" id="Programa-backto-Sesion" style="stroke:#181818;stroke-width:1;"/><polygon fill="#181818" points="456.25,366.16,459.2398,372.7221,466.447,372.4862,463.4572,365.9241,456.25,366.16" style="stroke:#181818;stroke-width:1;"/><text fill="#000000" font-family="sans-serif" font-size="13" lengthAdjust="spacing" textLength="46.0205" x="532" y="411.0669">agrupa</text></g><!--reverse link Sesion to Pelicula--><g class="link" data-entity-1="Sesion" data-entity-2="Pelicula" data-source-line="72" data-uid="lnk21" id="link_Sesion_Pelicula"><path codeLine="72" d="M695.7454,575.2539 C699.2954,599.5439 701.83,616.84 705.2,639.86" fill="none" id="Sesion-backto-Pelicula" style="stroke:#181818;stroke-width:1;"/><polygon fill="none" points="694.01,563.38,690.9197,569.8954,695.7454,575.2539,698.8356,568.7385,694.01,563.38" style="stroke:#181818;stroke-width:1;"/><text fill="#000000" font-family="sans-serif" font-size="13" lengthAdjust="spacing" textLength="57.4526" x="701" y="606.0669">proyecta</text></g><!--link Jurado to Premio--><g class="link" data-entity-1="Jurado" data-entity-2="Premio" data-source-line="73" data-uid="lnk22" id="link_Jurado_Premio"><path codeLine="73" d="M933.46,366.16 C931.42,397.89 928.9651,436.1924 926.9251,467.9124" fill="none" id="Jurado-to-Premio" style="stroke:#181818;stroke-width:1;"/><polygon fill="#181818" points="926.54,473.9,931.1094,465.1753,926.8609,468.9103,923.1259,464.6618,926.54,473.9" style="stroke:#181818;stroke-width:1;"/><text fill="#000000" font-family="sans-serif" font-size="13" lengthAdjust="spacing" textLength="43.4751" x="932" y="411.0669">evalua</text></g><!--link Premio to Pelicula--><g class="link" data-entity-1="Premio" data-entity-2="Pelicula" data-source-line="74" data-uid="lnk23" id="link_Premio_Pelicula"><path codeLine="74" d="M872.44,555.2 C839.07,580.89 800.5541,610.5496 767.2141,636.2196" fill="none" id="Premio-to-Pelicula" style="stroke:#181818;stroke-width:1;"/><polygon fill="#181818" points="762.46,639.88,772.0314,637.5588,766.4218,636.8297,767.1509,631.22,762.46,639.88" style="stroke:#181818;stroke-width:1;"/><text fill="#000000" font-family="sans-serif" font-size="13" lengthAdjust="spacing" textLength="70.8716" x="818" y="606.0669">otorgado a</text></g><!--link Asistente to Sesion--><g class="link" data-entity-1="Asistente" data-entity-2="Sesion" data-source-line="75" data-uid="lnk24" id="link_Asistente_Sesion"><path codeLine="75" d="M705.91,366.16 C702.17,395.32 697.8234,429.1288 693.8634,459.9988" fill="none" id="Asistente-to-Sesion" style="stroke:#181818;stroke-width:1;"/><polygon fill="#181818" points="693.1,465.95,698.2126,457.5321,693.7362,460.9906,690.2776,456.5142,693.1,465.95" style="stroke:#181818;stroke-width:1;"/><text fill="#000000" font-family="sans-serif" font-size="13" lengthAdjust="spacing" textLength="50.3179" x="702" y="411.0669">asiste a</text></g><!--reverse link Persona to DirectorFestival--><g class="link" data-entity-1="Persona" data-entity-2="DirectorFestival" data-source-line="77" data-uid="lnk25" id="link_Persona_DirectorFestival"><path codeLine="77" d="M661.424,177.0254 C644.074,200.0054 635.21,214.21 621,242 C584.02,314.33 616.09,354.39 562,415 C532.94,447.57 490.8,470.28 452.04,485.61" fill="none" id="Persona-backto-DirectorFestival" style="stroke:#181818;stroke-width:1;"/><polygon fill="none" points="672.27,162.66,656.6356,173.4101,666.2125,180.6407,672.27,162.66" style="stroke:#181818;stroke-width:1;"/></g><!--reverse link Persona to Asistente--><g class="link" data-entity-1="Persona" data-entity-2="Asistente" data-source-line="78" data-uid="lnk26" id="link_Persona_Asistente"><path codeLine="78" d="M711,180.54 C711,217.48 711,250.12 711,284.88" fill="none" id="Persona-backto-Asistente" style="stroke:#181818;stroke-width:1;"/><polygon fill="none" points="711,162.54,705,180.54,717,180.54,711,162.54" style="stroke:#181818;stroke-width:1;"/></g><!--reverse link Persona to Jurado--><g class="link" data-entity-1="Persona" data-entity-2="Jurado" data-source-line="79" data-uid="lnk27" id="link_Persona_Jurado"><path codeLine="79" d="M775.2331,174.8066 C814.9031,211.7466 856.11,250.12 893.45,284.88" fill="none" id="Persona-backto-Jurado" style="stroke:#181818;stroke-width:1;"/><polygon fill="none" points="762.06,162.54,771.1443,179.1976,779.322,170.4155,762.06,162.54" style="stroke:#181818;stroke-width:1;"/></g><!--SRC=[bLH1RjKm4Dtx5ADk-53b0bPL2L6eG2o-r1DCdMaOaTZ1TYgXJm-5E48lXkt4STBcev2DxR77xytpc_IelcD3SF71T8E-W9CG43wyTzwYyg1QT0wEP9tHU4fxyQk0Qmbtth9k5a5jkdjB6nlK8RUh-9Du4k8D7F77G9xWbfpdvpyQQchXKrmyOYlwp6vpExADLx7sP1zG4No-OKlA6mk5wgKonjQiqUQymri9ZuRhYKSQnZhp2JZjAGgVVniPqHUntfh6OeSIZjDiiLbFx6GXMcXYOwb1UqUEZJwuD0JGD2u9Bm-_T-myXV8Fc6SIvk3PCZErLPaZ8Za9NqF-rGXy_V_yLaYvp5bOxlgMki3ERJvM472qcioUs_-E0NZson6jPyLX7LsJZJ9oclNPYPkaPViQhRWt2FgJb4hwBKWieciAeseh_0TItmBw3NfQiMfP3MsYDSuAhsor_2JddtjANU5vzaDhDbnTJFgoM-V2FWRnXorflmmMQxDJLqgtsCpE_QC0InsRVKrvHh5KmEp2TrLLca22CjepQIe7gkfwuKyPHU66GsbzQDavCrupFQM4q1z3Zs9QcuYGTPVnjn2iu55C2iNxfweaZ480Y2cIDakk2HIQc8IYM3UUAT0f30X2J2h3rQz0u6NthNVdozRXaU5V]--></g></svg>