<svg xmlns="http://www.w3.org/2000/svg" xmlns:xlink="http://www.w3.org/1999/xlink" contentStyleType="text/css" data-diagram-type="CLASS" height="670px" preserveAspectRatio="none" style="width:817px;height:670px;background:#FFFFFF;" version="1.1" viewBox="0 0 817 670" width="817px" zoomAndPan="magnify"><title>Dise&#241;o</title><defs/><g><text fill="#000000" font-family="sans-serif" font-size="14" font-weight="bold" lengthAdjust="spacing" textLength="53.833" x="374.9243" y="22.9951">Dise&#241;o</text><!--class Persona--><g class="entity" data-entity="Persona" data-source-line="2" data-uid="ent0002" id="entity_Persona"><rect fill="#F1F1F1" height="96.8906" rx="2.5" ry="2.5" style="stroke:#181818;stroke-width:0.5;" width="131.2803" x="447" y="44.2969"/><ellipse cx="481.4208" cy="60.2969" fill="#A9DCDF" rx="11" ry="11" style="stroke:#181818;stroke-width:1;"/><path d="M481.5301,55.6406 L480.3739,60.7188 L482.702,60.7188 L481.5301,55.6406 Z M480.0458,53.4063 L483.0301,53.4063 L486.3895,65.7969 L483.9364,65.7969 L483.1708,62.7344 L479.8895,62.7344 L479.1395,65.7969 L476.702,65.7969 L480.0458,53.4063 Z " fill="#000000"/><text fill="#000000" font-family="sans-serif" font-size="14" font-style="italic" lengthAdjust="spacing" textLength="56.123" x="499.7365" y="65.1436">Persona</text><line style="stroke:#181818;stroke-width:0.5;" x1="448" x2="577.2803" y1="76.2969" y2="76.2969"/><ellipse cx="458" cy="89.9453" fill="none" rx="3" ry="3" style="stroke:#038048;stroke-width:1;"/><text fill="#000000" font-family="sans-serif" font-size="14" lengthAdjust="spacing" textLength="63.7246" x="467" y="93.292">id: String</text><ellipse cx="458" cy="106.2422" fill="none" rx="3" ry="3" style="stroke:#038048;stroke-width:1;"/><text fill="#000000" font-family="sans-serif" font-size="14" lengthAdjust="spacing" textLength="105.2803" x="467" y="109.5889">nombre: String</text><ellipse cx="458" cy="122.5391" fill="none" rx="3" ry="3" style="stroke:#038048;stroke-width:1;"/><text fill="#000000" font-family="sans-serif" font-size="14" lengthAdjust="spacing" textLength="89.5576" x="467" y="125.8857">email: String</text><line style="stroke:#181818;stroke-width:0.5;" x1="448" x2="577.2803" y1="133.1875" y2="133.1875"/></g><!--class Festival--><g class="entity" data-entity="Festival" data-source-line="9" data-uid="ent0003" id="entity_Festival"><rect fill="#F1F1F1" height="96.8906" rx="2.5" ry="2.5" style="stroke:#181818;stroke-width:0.5;" width="144.3643" x="120.5" y="44.2969"/><ellipse cx="161.7222" cy="60.2969" fill="#ADD1B2" rx="11" ry="11" style="stroke:#181818;stroke-width:1;"/><path d="M164.6909,65.9375 Q164.1128,66.2344 163.4722,66.375 Q162.8315,66.5313 162.1284,66.5313 Q159.6284,66.5313 158.3003,64.8906 Q156.9878,63.2344 156.9878,60.1094 Q156.9878,56.9844 158.3003,55.3281 Q159.6284,53.6719 162.1284,53.6719 Q162.8315,53.6719 163.4722,53.8281 Q164.1284,53.9844 164.6909,54.2813 L164.6909,57 Q164.0659,56.4219 163.4722,56.1563 Q162.8784,55.875 162.2534,55.875 Q160.9097,55.875 160.2222,56.9531 Q159.5347,58.0156 159.5347,60.1094 Q159.5347,62.2031 160.2222,63.2813 Q160.9097,64.3438 162.2534,64.3438 Q162.8784,64.3438 163.4722,64.0781 Q164.0659,63.7969 164.6909,63.2188 L164.6909,65.9375 Z " fill="#000000"/><text fill="#000000" font-family="sans-serif" font-size="14" lengthAdjust="spacing" textLength="54.0928" x="181.5493" y="65.1436">Festival</text><line style="stroke:#181818;stroke-width:0.5;" x1="121.5" x2="263.8643" y1="76.2969" y2="76.2969"/><ellipse cx="131.5" cy="89.9453" fill="none" rx="3" ry="3" style="stroke:#038048;stroke-width:1;"/><text fill="#000000" font-family="sans-serif" font-size="14" lengthAdjust="spacing" textLength="105.2803" x="140.5" y="93.292">nombre: String</text><ellipse cx="131.5" cy="106.2422" fill="none" rx="3" ry="3" style="stroke:#038048;stroke-width:1;"/><text fill="#000000" font-family="sans-serif" font-size="14" lengthAdjust="spacing" textLength="118.3643" x="140.5" y="109.5889">fechaInicio: Date</text><ellipse cx="131.5" cy="122.5391" fill="none" rx="3" ry="3" style="stroke:#038048;stroke-width:1;"/><text fill="#000000" font-family="sans-serif" font-size="14" lengthAdjust="spacing" textLength="102.1357" x="140.5" y="125.8857">fechaFin: Date</text><line style="stroke:#181818;stroke-width:0.5;" x1="121.5" x2="263.8643" y1="133.1875" y2="133.1875"/></g><!--class Programa--><g class="entity" data-entity="Programa" data-source-line="15" data-uid="ent0004" id="entity_Programa"><rect fill="#F1F1F1" height="80.5938" rx="2.5" ry="2.5" style="stroke:#181818;stroke-width:0.5;" width="156.9971" x="7" y="218.2969"/><ellipse cx="47.5577" cy="234.2969" fill="#ADD1B2" rx="11" ry="11" style="stroke:#181818;stroke-width:1;"/><path d="M50.5265,239.9375 Q49.9483,240.2344 49.3077,240.375 Q48.6671,240.5313 47.964,240.5313 Q45.464,240.5313 44.1358,238.8906 Q42.8233,237.2344 42.8233,234.1094 Q42.8233,230.9844 44.1358,229.3281 Q45.464,227.6719 47.964,227.6719 Q48.6671,227.6719 49.3077,227.8281 Q49.964,227.9844 50.5265,228.2813 L50.5265,231 Q49.9015,230.4219 49.3077,230.1563 Q48.714,229.875 48.089,229.875 Q46.7452,229.875 46.0577,230.9531 Q45.3702,232.0156 45.3702,234.1094 Q45.3702,236.2031 46.0577,237.2813 Q46.7452,238.3438 48.089,238.3438 Q48.714,238.3438 49.3077,238.0781 Q49.9015,237.7969 50.5265,237.2188 L50.5265,239.9375 Z " fill="#000000"/><text fill="#000000" font-family="sans-serif" font-size="14" lengthAdjust="spacing" textLength="68.2021" x="67.2372" y="239.1436">Programa</text><line style="stroke:#181818;stroke-width:0.5;" x1="8" x2="162.9971" y1="250.2969" y2="250.2969"/><ellipse cx="18" cy="263.9453" fill="none" rx="3" ry="3" style="stroke:#038048;stroke-width:1;"/><text fill="#000000" font-family="sans-serif" font-size="14" lengthAdjust="spacing" textLength="105.2803" x="27" y="267.292">nombre: String</text><ellipse cx="18" cy="280.2422" fill="none" rx="3" ry="3" style="stroke:#038048;stroke-width:1;"/><text fill="#000000" font-family="sans-serif" font-size="14" lengthAdjust="spacing" textLength="130.9971" x="27" y="283.5889">descripcion: String</text><line style="stroke:#181818;stroke-width:0.5;" x1="8" x2="162.9971" y1="290.8906" y2="290.8906"/></g><!--class Sesion--><g class="entity" data-entity="Sesion" data-source-line="20" data-uid="ent0005" id="entity_Sesion"><rect fill="#F1F1F1" height="96.8906" rx="2.5" ry="2.5" style="stroke:#181818;stroke-width:0.5;" width="180.1504" x="392.5" y="376.2969"/><ellipse cx="455.2642" cy="392.2969" fill="#ADD1B2" rx="11" ry="11" style="stroke:#181818;stroke-width:1;"/><path d="M458.2329,397.9375 Q457.6548,398.2344 457.0142,398.375 Q456.3735,398.5313 455.6704,398.5313 Q453.1704,398.5313 451.8423,396.8906 Q450.5298,395.2344 450.5298,392.1094 Q450.5298,388.9844 451.8423,387.3281 Q453.1704,385.6719 455.6704,385.6719 Q456.3735,385.6719 457.0142,385.8281 Q457.6704,385.9844 458.2329,386.2813 L458.2329,389 Q457.6079,388.4219 457.0142,388.1563 Q456.4204,387.875 455.7954,387.875 Q454.4517,387.875 453.7642,388.9531 Q453.0767,390.0156 453.0767,392.1094 Q453.0767,394.2031 453.7642,395.2813 Q454.4517,396.3438 455.7954,396.3438 Q456.4204,396.3438 457.0142,396.0781 Q457.6079,395.7969 458.2329,395.2188 L458.2329,397.9375 Z " fill="#000000"/><text fill="#000000" font-family="sans-serif" font-size="14" lengthAdjust="spacing" textLength="46.1221" x="475.7642" y="397.1436">Sesion</text><line style="stroke:#181818;stroke-width:0.5;" x1="393.5" x2="571.6504" y1="408.2969" y2="408.2969"/><ellipse cx="403.5" cy="421.9453" fill="none" rx="3" ry="3" style="stroke:#038048;stroke-width:1;"/><text fill="#000000" font-family="sans-serif" font-size="14" lengthAdjust="spacing" textLength="81.3203" x="412.5" y="425.292">fecha: Date</text><ellipse cx="403.5" cy="438.2422" fill="none" rx="3" ry="3" style="stroke:#038048;stroke-width:1;"/><text fill="#000000" font-family="sans-serif" font-size="14" lengthAdjust="spacing" textLength="82.7217" x="412.5" y="441.5889">hora: String</text><ellipse cx="403.5" cy="454.5391" fill="none" rx="3" ry="3" style="stroke:#038048;stroke-width:1;"/><text fill="#000000" font-family="sans-serif" font-size="14" lengthAdjust="spacing" textLength="154.1504" x="412.5" y="457.8857">capacidadMaxima: int</text><line style="stroke:#181818;stroke-width:0.5;" x1="393.5" x2="571.6504" y1="465.1875" y2="465.1875"/></g><!--class Pelicula--><g class="entity" data-entity="Pelicula" data-source-line="26" data-uid="ent0006" id="entity_Pelicula"><rect fill="#F1F1F1" height="113.1875" rx="2.5" ry="2.5" style="stroke:#181818;stroke-width:0.5;" width="131.6016" x="529.5" y="550.2969"/><ellipse cx="565.0774" cy="566.2969" fill="#ADD1B2" rx="11" ry="11" style="stroke:#181818;stroke-width:1;"/><path d="M568.0461,571.9375 Q567.468,572.2344 566.8274,572.375 Q566.1868,572.5313 565.4836,572.5313 Q562.9836,572.5313 561.6555,570.8906 Q560.343,569.2344 560.343,566.1094 Q560.343,562.9844 561.6555,561.3281 Q562.9836,559.6719 565.4836,559.6719 Q566.1868,559.6719 566.8274,559.8281 Q567.4836,559.9844 568.0461,560.2813 L568.0461,563 Q567.4211,562.4219 566.8274,562.1563 Q566.2336,561.875 565.6086,561.875 Q564.2649,561.875 563.5774,562.9531 Q562.8899,564.0156 562.8899,566.1094 Q562.8899,568.2031 563.5774,569.2813 Q564.2649,570.3438 565.6086,570.3438 Q566.2336,570.3438 566.8274,570.0781 Q567.4211,569.7969 568.0461,569.2188 L568.0461,571.9375 Z " fill="#000000"/><text fill="#000000" font-family="sans-serif" font-size="14" lengthAdjust="spacing" textLength="53.874" x="583.6501" y="571.1436">Pelicula</text><line style="stroke:#181818;stroke-width:0.5;" x1="530.5" x2="660.1016" y1="582.2969" y2="582.2969"/><ellipse cx="540.5" cy="595.9453" fill="none" rx="3" ry="3" style="stroke:#038048;stroke-width:1;"/><text fill="#000000" font-family="sans-serif" font-size="14" lengthAdjust="spacing" textLength="87.1445" x="549.5" y="599.292">titulo: String</text><ellipse cx="540.5" cy="612.2422" fill="none" rx="3" ry="3" style="stroke:#038048;stroke-width:1;"/><text fill="#000000" font-family="sans-serif" font-size="14" lengthAdjust="spacing" textLength="105.6016" x="549.5" y="615.5889">director: String</text><ellipse cx="540.5" cy="628.5391" fill="none" rx="3" ry="3" style="stroke:#038048;stroke-width:1;"/><text fill="#000000" font-family="sans-serif" font-size="14" lengthAdjust="spacing" textLength="88.5391" x="549.5" y="631.8857">duracion: int</text><ellipse cx="540.5" cy="644.8359" fill="none" rx="3" ry="3" style="stroke:#038048;stroke-width:1;"/><text fill="#000000" font-family="sans-serif" font-size="14" lengthAdjust="spacing" textLength="100.2559" x="549.5" y="648.1826">genero: String</text><line style="stroke:#181818;stroke-width:0.5;" x1="530.5" x2="660.1016" y1="655.4844" y2="655.4844"/></g><!--class Premio--><g class="entity" data-entity="Premio" data-source-line="33" data-uid="ent0007" id="entity_Premio"><rect fill="#F1F1F1" height="96.8906" rx="2.5" ry="2.5" style="stroke:#181818;stroke-width:0.5;" width="202.6816" x="608" y="376.2969"/><ellipse cx="680.6387" cy="392.2969" fill="#ADD1B2" rx="11" ry="11" style="stroke:#181818;stroke-width:1;"/><path d="M683.6074,397.9375 Q683.0293,398.2344 682.3887,398.375 Q681.748,398.5313 681.0449,398.5313 Q678.5449,398.5313 677.2168,396.8906 Q675.9043,395.2344 675.9043,392.1094 Q675.9043,388.9844 677.2168,387.3281 Q678.5449,385.6719 681.0449,385.6719 Q681.748,385.6719 682.3887,385.8281 Q683.0449,385.9844 683.6074,386.2813 L683.6074,389 Q682.9824,388.4219 682.3887,388.1563 Q681.7949,387.875 681.1699,387.875 Q679.8262,387.875 679.1387,388.9531 Q678.4512,390.0156 678.4512,392.1094 Q678.4512,394.2031 679.1387,395.2813 Q679.8262,396.3438 681.1699,396.3438 Q681.7949,396.3438 682.3887,396.0781 Q682.9824,395.7969 683.6074,395.2188 L683.6074,397.9375 Z " fill="#000000"/><text fill="#000000" font-family="sans-serif" font-size="14" lengthAdjust="spacing" textLength="48.9043" x="701.1387" y="397.1436">Premio</text><line style="stroke:#181818;stroke-width:0.5;" x1="609" x2="809.6816" y1="408.2969" y2="408.2969"/><ellipse cx="619" cy="421.9453" fill="none" rx="3" ry="3" style="stroke:#038048;stroke-width:1;"/><text fill="#000000" font-family="sans-serif" font-size="14" lengthAdjust="spacing" textLength="105.2803" x="628" y="425.292">nombre: String</text><ellipse cx="619" cy="438.2422" fill="none" rx="3" ry="3" style="stroke:#038048;stroke-width:1;"/><text fill="#000000" font-family="sans-serif" font-size="14" lengthAdjust="spacing" textLength="117.0039" x="628" y="441.5889">categoria: String</text><ellipse cx="619" cy="454.5391" fill="none" rx="3" ry="3" style="stroke:#038048;stroke-width:1;"/><text fill="#000000" font-family="sans-serif" font-size="14" lengthAdjust="spacing" textLength="176.6816" x="628" y="457.8857">criterioEvaluacion: String</text><line style="stroke:#181818;stroke-width:0.5;" x1="609" x2="809.6816" y1="465.1875" y2="465.1875"/></g><!--class Asistente--><g class="entity" data-entity="Asistente" data-source-line="40" data-uid="ent0008" id="entity_Asistente"><rect fill="#F1F1F1" height="64.2969" rx="2.5" ry="2.5" style="stroke:#181818;stroke-width:0.5;" width="158.7881" x="433" y="226.7969"/><ellipse cx="475.7449" cy="242.7969" fill="#ADD1B2" rx="11" ry="11" style="stroke:#181818;stroke-width:1;"/><path d="M478.7136,248.4375 Q478.1355,248.7344 477.4949,248.875 Q476.8542,249.0313 476.1511,249.0313 Q473.6511,249.0313 472.323,247.3906 Q471.0105,245.7344 471.0105,242.6094 Q471.0105,239.4844 472.323,237.8281 Q473.6511,236.1719 476.1511,236.1719 Q476.8542,236.1719 477.4949,236.3281 Q478.1511,236.4844 478.7136,236.7813 L478.7136,239.5 Q478.0886,238.9219 477.4949,238.6563 Q476.9011,238.375 476.2761,238.375 Q474.9324,238.375 474.2449,239.4531 Q473.5574,240.5156 473.5574,242.6094 Q473.5574,244.7031 474.2449,245.7813 Q474.9324,246.8438 476.2761,246.8438 Q476.9011,246.8438 477.4949,246.5781 Q478.0886,246.2969 478.7136,245.7188 L478.7136,248.4375 Z " fill="#000000"/><text fill="#000000" font-family="sans-serif" font-size="14" lengthAdjust="spacing" textLength="65.1328" x="495.9104" y="247.6436">Asistente</text><line style="stroke:#181818;stroke-width:0.5;" x1="434" x2="590.7881" y1="258.7969" y2="258.7969"/><ellipse cx="444" cy="272.4453" fill="none" rx="3" ry="3" style="stroke:#038048;stroke-width:1;"/><text fill="#000000" font-family="sans-serif" font-size="14" lengthAdjust="spacing" textLength="132.7881" x="453" y="275.792">tipoEntrada: String</text><line style="stroke:#181818;stroke-width:0.5;" x1="434" x2="590.7881" y1="283.0938" y2="283.0938"/></g><!--class Jurado--><g class="entity" data-entity="Jurado" data-source-line="41" data-uid="ent0010" id="entity_Jurado"><rect fill="#F1F1F1" height="64.2969" rx="2.5" ry="2.5" style="stroke:#181818;stroke-width:0.5;" width="164.6533" x="627" y="226.7969"/><ellipse cx="682.6821" cy="242.7969" fill="#ADD1B2" rx="11" ry="11" style="stroke:#181818;stroke-width:1;"/><path d="M685.6509,248.4375 Q685.0728,248.7344 684.4321,248.875 Q683.7915,249.0313 683.0884,249.0313 Q680.5884,249.0313 679.2603,247.3906 Q677.9478,245.7344 677.9478,242.6094 Q677.9478,239.4844 679.2603,237.8281 Q680.5884,236.1719 683.0884,236.1719 Q683.7915,236.1719 684.4321,236.3281 Q685.0884,236.4844 685.6509,236.7813 L685.6509,239.5 Q685.0259,238.9219 684.4321,238.6563 Q683.8384,238.375 683.2134,238.375 Q681.8696,238.375 681.1821,239.4531 Q680.4946,240.5156 680.4946,242.6094 Q680.4946,244.7031 681.1821,245.7813 Q681.8696,246.8438 683.2134,246.8438 Q683.8384,246.8438 684.4321,246.5781 Q685.0259,246.2969 685.6509,245.7188 L685.6509,248.4375 Z " fill="#000000"/><text fill="#000000" font-family="sans-serif" font-size="14" lengthAdjust="spacing" textLength="44.7891" x="703.1821" y="247.6436">Jurado</text><line style="stroke:#181818;stroke-width:0.5;" x1="628" x2="790.6533" y1="258.7969" y2="258.7969"/><ellipse cx="638" cy="272.4453" fill="none" rx="3" ry="3" style="stroke:#038048;stroke-width:1;"/><text fill="#000000" font-family="sans-serif" font-size="14" lengthAdjust="spacing" textLength="138.6533" x="647" y="275.792">especialidad: String</text><line style="stroke:#181818;stroke-width:0.5;" x1="628" x2="790.6533" y1="283.0938" y2="283.0938"/></g><!--class DirectorFestival--><g class="entity" data-entity="DirectorFestival" data-source-line="42" data-uid="ent0012" id="entity_DirectorFestival"><rect fill="#F1F1F1" height="64.2969" rx="2.5" ry="2.5" style="stroke:#181818;stroke-width:0.5;" width="197.5205" x="199.5" y="226.7969"/><ellipse cx="239.1964" cy="242.7969" fill="#ADD1B2" rx="11" ry="11" style="stroke:#181818;stroke-width:1;"/><path d="M242.1651,248.4375 Q241.587,248.7344 240.9464,248.875 Q240.3058,249.0313 239.6026,249.0313 Q237.1026,249.0313 235.7745,247.3906 Q234.462,245.7344 234.462,242.6094 Q234.462,239.4844 235.7745,237.8281 Q237.1026,236.1719 239.6026,236.1719 Q240.3058,236.1719 240.9464,236.3281 Q241.6026,236.4844 242.1651,236.7813 L242.1651,239.5 Q241.5401,238.9219 240.9464,238.6563 Q240.3526,238.375 239.7276,238.375 Q238.3839,238.375 237.6964,239.4531 Q237.0089,240.5156 237.0089,242.6094 Q237.0089,244.7031 237.6964,245.7813 Q238.3839,246.8438 239.7276,246.8438 Q240.3526,246.8438 240.9464,246.5781 Q241.5401,246.2969 242.1651,245.7188 L242.1651,248.4375 Z " fill="#000000"/><text fill="#000000" font-family="sans-serif" font-size="14" lengthAdjust="spacing" textLength="110.6396" x="258.6845" y="247.6436">DirectorFestival</text><line style="stroke:#181818;stroke-width:0.5;" x1="200.5" x2="396.0205" y1="258.7969" y2="258.7969"/><ellipse cx="210.5" cy="272.4453" fill="none" rx="3" ry="3" style="stroke:#038048;stroke-width:1;"/><text fill="#000000" font-family="sans-serif" font-size="14" lengthAdjust="spacing" textLength="171.5205" x="219.5" y="275.792">telefonoContacto: String</text><line style="stroke:#181818;stroke-width:0.5;" x1="200.5" x2="396.0205" y1="283.0938" y2="283.0938"/></g><!--reverse link Persona to Asistente--><g class="link" data-entity-1="Persona" data-entity-2="Asistente" data-source-line="40" data-uid="lnk9" id="link_Persona_Asistente"><path codeLine="40" d="M512.5,159.6769 C512.5,187.0869 512.5,202.7069 512.5,226.6969" fill="none" id="Persona-backto-Asistente" style="stroke:#181818;stroke-width:1;"/><polygon fill="none" points="512.5,141.6769,506.5,159.6769,518.5,159.6769,512.5,141.6769" style="stroke:#181818;stroke-width:1;"/></g><!--reverse link Persona to Jurado--><g class="link" data-entity-1="Persona" data-entity-2="Jurado" data-source-line="41" data-uid="lnk11" id="link_Persona_Jurado"><path codeLine="41" d="M583.5842,152.9728 C616.5242,180.3928 643.15,202.5569 672.04,226.6169" fill="none" id="Persona-backto-Jurado" style="stroke:#181818;stroke-width:1;"/><polygon fill="none" points="569.75,141.4569,579.7456,157.5841,587.4228,148.3614,569.75,141.4569" style="stroke:#181818;stroke-width:1;"/></g><!--reverse link Persona to DirectorFestival--><g class="link" data-entity-1="Persona" data-entity-2="DirectorFestival" data-source-line="42" data-uid="lnk13" id="link_Persona_DirectorFestival"><path codeLine="42" d="M436.0229,152.4058 C400.2429,179.8258 370.58,202.5569 339.19,226.6169" fill="none" id="Persona-backto-DirectorFestival" style="stroke:#181818;stroke-width:1;"/><polygon fill="none" points="450.31,141.4569,432.3733,147.6434,439.6725,157.1682,450.31,141.4569" style="stroke:#181818;stroke-width:1;"/></g><!--reverse link Festival to Programa--><g class="link" data-entity-1="Festival" data-entity-2="Programa" data-source-line="56" data-uid="lnk14" id="link_Festival_Programa"><path codeLine="56" d="M154.7023,151.7266 C138.8523,176.0166 126.38,195.1369 111.36,218.1569" fill="none" id="Festival-backto-Programa" style="stroke:#181818;stroke-width:1;"/><polygon fill="#181818" points="161.26,141.6769,154.6312,144.5158,154.7023,151.7266,161.331,148.8876,161.26,141.6769" style="stroke:#181818;stroke-width:1;"/><text fill="#000000" font-family="sans-serif" font-size="13" lengthAdjust="spacing" textLength="56.2847" x="140.5" y="184.3638">contiene</text></g><!--reverse link Programa to Sesion--><g class="link" data-entity-1="Programa" data-entity-2="Sesion" data-source-line="57" data-uid="lnk15" id="link_Programa_Sesion"><path codeLine="57" d="M175.5013,296.9776 C241.1913,324.1076 323.65,358.1769 392.29,386.5369" fill="none" id="Programa-backto-Sesion" style="stroke:#181818;stroke-width:1;"/><polygon fill="#181818" points="164.41,292.3969,168.4287,298.3843,175.5013,296.9776,171.4826,290.9901,164.41,292.3969" style="stroke:#181818;stroke-width:1;"/><text fill="#000000" font-family="sans-serif" font-size="13" lengthAdjust="spacing" textLength="46.0205" x="284.5" y="342.3638">agrupa</text></g><!--reverse link Sesion to Pelicula--><g class="link" data-entity-1="Sesion" data-entity-2="Pelicula" data-source-line="58" data-uid="lnk16" id="link_Sesion_Pelicula"><path codeLine="58" d="M518.8678,483.7217 C533.6378,507.2617 545.17,525.6269 560.56,550.1469" fill="none" id="Sesion-backto-Pelicula" style="stroke:#181818;stroke-width:1;"/><polygon fill="none" points="512.49,473.5569,512.2906,480.7652,518.8678,483.7217,519.0672,476.5133,512.49,473.5569" style="stroke:#181818;stroke-width:1;"/><text fill="#000000" font-family="sans-serif" font-size="13" lengthAdjust="spacing" textLength="57.4526" x="539.5" y="516.3638">proyecta</text></g><!--link Jurado to Premio--><g class="link" data-entity-1="Jurado" data-entity-2="Premio" data-source-line="59" data-uid="lnk17" id="link_Jurado_Premio"><path codeLine="59" d="M709.5,291.0269 C709.5,315.0969 709.5,342.7969 709.5,370.2169" fill="none" id="Jurado-to-Premio" style="stroke:#181818;stroke-width:1;"/><polygon fill="#181818" points="709.5,376.2169,713.5,367.2169,709.5,371.2169,705.5,367.2169,709.5,376.2169" style="stroke:#181818;stroke-width:1;"/><text fill="#000000" font-family="sans-serif" font-size="13" lengthAdjust="spacing" textLength="43.4751" x="710.5" y="342.3638">eval&#250;a</text></g><!--link Premio to Pelicula--><g class="link" data-entity-1="Premio" data-entity-2="Pelicula" data-source-line="60" data-uid="lnk18" id="link_Premio_Pelicula"><path codeLine="60" d="M679.25,473.5569 C664.34,497.0969 649.4904,520.558 633.9604,545.078" fill="none" id="Premio-to-Pelicula" style="stroke:#181818;stroke-width:1;"/><polygon fill="#181818" points="630.75,550.1469,638.9449,544.6839,633.4253,545.9228,632.1864,540.4033,630.75,550.1469" style="stroke:#181818;stroke-width:1;"/><text fill="#000000" font-family="sans-serif" font-size="13" lengthAdjust="spacing" textLength="70.8716" x="659.5" y="516.3638">otorgado a</text></g><!--link Asistente to Sesion--><g class="link" data-entity-1="Asistente" data-entity-2="Sesion" data-source-line="61" data-uid="lnk19" id="link_Asistente_Sesion"><path codeLine="61" d="M506.79,291.0269 C502.38,315.0969 497.3005,342.895 492.2805,370.315" fill="none" id="Asistente-to-Sesion" style="stroke:#181818;stroke-width:1;"/><polygon fill="#181818" points="491.2,376.2169,496.7554,368.0844,492.1004,371.2986,488.8862,366.6437,491.2,376.2169" style="stroke:#181818;stroke-width:1;"/><text fill="#000000" font-family="sans-serif" font-size="13" lengthAdjust="spacing" textLength="50.3179" x="499.5" y="342.3638">asiste a</text></g><!--link Festival to DirectorFestival--><g class="link" data-entity-1="Festival" data-entity-2="DirectorFestival" data-source-line="62" data-uid="lnk20" id="link_Festival_DirectorFestival"><path codeLine="62" d="M223.44,141.6769 C241.17,169.0869 259.6324,197.6682 275.1424,221.6582" fill="none" id="Festival-to-DirectorFestival" style="stroke:#181818;stroke-width:1;"/><polygon fill="#181818" points="278.4,226.6969,276.8727,216.9672,275.6853,222.498,270.1545,221.3106,278.4,226.6969" style="stroke:#181818;stroke-width:1;"/><text fill="#000000" font-family="sans-serif" font-size="13" lengthAdjust="spacing" textLength="74.5723" x="252.5" y="184.3638">dirigido por</text></g><!--SRC=[TLBBQjn04BphAuQz11Bq0ui9XAoD4p0O_0NjsRRSC9eUUaOX8Sb7vPghVomrMacMTkERL5LJNVqeKWAxWsH- -QFEDVIOYv4lpWVAsTspPOtaVZREVN1otBk7OXAxyJTg_sYyWRWd2GloksdUkRPjtNKiSgGZPvT0U4aKy0scEPMvuLpa6uMfpd-CdzW_qvSeNdJl3bJu5RsHE46eDyKsxOnwUjiFMRn9WbrSnpqzV-0CV7eyrbZLV5QZZPMdHBwsTqVVfGSdiQoYS10_X3bAaJ84tKOHOr_Kjk20BOpXgbj5EeviUXdsthWNVRjJZ-2Tcfo5DYbiejUO-a3dOpXjxPQDiImQ5pLVmjKlC9-ovC8H4zd0Nn7wg5liC7KthtYElLWiWqcACu41NVPuCfwKd1CZLQWZlvIUrvljEV2JHlsiiU2yDtDSfE_RThcSlTjvQ0LJtpKB2eMRpmCAwcn8j6icHC4k-mQTJ7yW30HJ0stxSTuNQ4RDbxzKxKS8xFgreekkleBYTLhLOfrW9AfawQ8gBgO0AUvCEe5VKjlz0m00]--></g></svg>