<svg xmlns="http://www.w3.org/2000/svg" xmlns:xlink="http://www.w3.org/1999/xlink" contentStyleType="text/css" data-diagram-type="CLASS" height="664px" preserveAspectRatio="none" style="width:1271px;height:664px;background:#FFFFFF;" version="1.1" viewBox="0 0 1271 664" width="1271px" zoomAndPan="magnify"><defs/><g><!--cluster Core--><g class="cluster" data-entity="Core" data-source-line="1" data-uid="ent0002" id="cluster_Core"><path d="M185.5,30.5 L222.792,30.5 A3.75,3.75 0 0 1 225.292,33 L232.292,52.7969 L344.5,52.7969 A2.5,2.5 0 0 1 347,55.2969 L347,176 A2.5,2.5 0 0 1 344.5,178.5 L185.5,178.5 A2.5,2.5 0 0 1 183,176 L183,33 A2.5,2.5 0 0 1 185.5,30.5" fill="none" style="stroke:#000000;stroke-width:1.5;"/><line style="stroke:#000000;stroke-width:1.5;" x1="183" x2="232.292" y1="52.7969" y2="52.7969"/><text fill="#000000" font-family="sans-serif" font-size="14" font-weight="bold" lengthAdjust="spacing" textLength="36.292" x="187" y="45.4951">Core</text></g><!--cluster Gesti?n del Festival--><g class="cluster" data-entity="Gesti&#243;n del Festival" data-source-line="11" data-uid="ent0004" id="cluster_Gesti&#243;n del Festival"><path d="M512.5,6 L670.2139,6 A3.75,3.75 0 0 1 672.7139,8.5 L679.7139,28.2969 L1009.5,28.2969 A2.5,2.5 0 0 1 1012,30.7969 L1012,505.5 A2.5,2.5 0 0 1 1009.5,508 L512.5,508 A2.5,2.5 0 0 1 510,505.5 L510,8.5 A2.5,2.5 0 0 1 512.5,6" fill="none" style="stroke:#000000;stroke-width:1.5;"/><line style="stroke:#000000;stroke-width:1.5;" x1="510" x2="679.7139" y1="28.2969" y2="28.2969"/><text fill="#000000" font-family="sans-serif" font-size="14" font-weight="bold" lengthAdjust="spacing" textLength="156.7139" x="514" y="20.9951">Gesti&#243;n del Festival</text></g><!--cluster Participaci?n--><g class="cluster" data-entity="Participaci&#243;n" data-source-line="36" data-uid="ent0010" id="cluster_Participaci&#243;n"><path d="M304.5,212 L408.8525,212 A3.75,3.75 0 0 1 411.3525,214.5 L418.3525,234.2969 L483.5,234.2969 A2.5,2.5 0 0 1 486,236.7969 L486,341.5 A2.5,2.5 0 0 1 483.5,344 L304.5,344 A2.5,2.5 0 0 1 302,341.5 L302,214.5 A2.5,2.5 0 0 1 304.5,212" fill="none" style="stroke:#000000;stroke-width:1.5;"/><line style="stroke:#000000;stroke-width:1.5;" x1="302" x2="418.3525" y1="234.2969" y2="234.2969"/><text fill="#000000" font-family="sans-serif" font-size="14" font-weight="bold" lengthAdjust="spacing" textLength="103.3525" x="306" y="226.9951">Participaci&#243;n</text></g><!--cluster Proyecciones--><g class="cluster" data-entity="Proyecciones" data-source-line="44" data-uid="ent0012" id="cluster_Proyecciones"><path d="M1038.5,368 L1143.7139,368 A3.75,3.75 0 0 1 1146.2139,370.5 L1153.2139,390.2969 L1261.5,390.2969 A2.5,2.5 0 0 1 1264,392.7969 L1264,654.5 A2.5,2.5 0 0 1 1261.5,657 L1038.5,657 A2.5,2.5 0 0 1 1036,654.5 L1036,370.5 A2.5,2.5 0 0 1 1038.5,368" fill="none" style="stroke:#000000;stroke-width:1.5;"/><line style="stroke:#000000;stroke-width:1.5;" x1="1036" x2="1153.2139" y1="390.2969" y2="390.2969"/><text fill="#000000" font-family="sans-serif" font-size="14" font-weight="bold" lengthAdjust="spacing" textLength="104.2139" x="1040" y="382.9951">Proyecciones</text></g><!--cluster Evaluaci?n--><g class="cluster" data-entity="Evaluaci&#243;n" data-source-line="57" data-uid="ent0015" id="cluster_Evaluaci&#243;n"><path d="M8.5,212 L94.5322,212 A3.75,3.75 0 0 1 97.0322,214.5 L104.0322,234.2969 L225.5,234.2969 A2.5,2.5 0 0 1 228,236.7969 L228,505.5 A2.5,2.5 0 0 1 225.5,508 L8.5,508 A2.5,2.5 0 0 1 6,505.5 L6,214.5 A2.5,2.5 0 0 1 8.5,212" fill="none" style="stroke:#000000;stroke-width:1.5;"/><line style="stroke:#000000;stroke-width:1.5;" x1="6" x2="104.0322" y1="234.2969" y2="234.2969"/><text fill="#000000" font-family="sans-serif" font-size="14" font-weight="bold" lengthAdjust="spacing" textLength="85.0322" x="10" y="226.9951">Evaluaci&#243;n</text></g><!--class Persona--><g class="entity" data-entity="Persona" data-source-line="3" data-uid="ent0003" id="entity_Persona"><rect fill="#F1F1F1" height="96.8906" rx="2.5" ry="2.5" style="stroke:#181818;stroke-width:0.5;" width="131.2803" x="199.5" y="65.5"/><ellipse cx="233.9208" cy="81.5" fill="#A9DCDF" rx="11" ry="11" style="stroke:#181818;stroke-width:1;"/><path d="M234.0301,76.8438 L232.8739,81.9219 L235.202,81.9219 L234.0301,76.8438 Z M232.5458,74.6094 L235.5301,74.6094 L238.8895,87 L236.4364,87 L235.6708,83.9375 L232.3895,83.9375 L231.6395,87 L229.202,87 L232.5458,74.6094 Z " fill="#000000"/><text fill="#000000" font-family="sans-serif" font-size="14" font-style="italic" lengthAdjust="spacing" textLength="56.123" x="252.2365" y="86.3467">Persona</text><line style="stroke:#181818;stroke-width:0.5;" x1="200.5" x2="329.7803" y1="97.5" y2="97.5"/><rect fill="none" height="6" style="stroke:#C82930;stroke-width:1;" width="6" x="207.5" y="108.1484"/><text fill="#000000" font-family="sans-serif" font-size="14" lengthAdjust="spacing" textLength="63.7246" x="219.5" y="114.4951">id: String</text><rect fill="none" height="6" style="stroke:#C82930;stroke-width:1;" width="6" x="207.5" y="124.4453"/><text fill="#000000" font-family="sans-serif" font-size="14" lengthAdjust="spacing" textLength="105.2803" x="219.5" y="130.792">nombre: String</text><rect fill="none" height="6" style="stroke:#C82930;stroke-width:1;" width="6" x="207.5" y="140.7422"/><text fill="#000000" font-family="sans-serif" font-size="14" lengthAdjust="spacing" textLength="89.5576" x="219.5" y="147.0889">email: String</text><line style="stroke:#181818;stroke-width:0.5;" x1="200.5" x2="329.7803" y1="154.3906" y2="154.3906"/></g><!--class IDirector--><g class="entity" data-entity="IDirector" data-source-line="12" data-uid="ent0005" id="entity_IDirector"><rect fill="#F1F1F1" height="64.2969" rx="2.5" ry="2.5" style="stroke:#181818;stroke-width:0.5;" width="196.3789" x="526" y="255.5"/><ellipse cx="589.6016" cy="271.5" fill="#B4A7E5" rx="11" ry="11" style="stroke:#181818;stroke-width:1;"/><path d="M585.5234,267.2656 L585.5234,265.1094 L592.9141,265.1094 L592.9141,267.2656 L590.4453,267.2656 L590.4453,275.3438 L592.9141,275.3438 L592.9141,277.5 L585.5234,277.5 L585.5234,275.3438 L587.9922,275.3438 L587.9922,267.2656 L585.5234,267.2656 Z " fill="#000000"/><text fill="#000000" font-family="sans-serif" font-size="14" font-style="italic" lengthAdjust="spacing" textLength="60.6758" x="610.1016" y="276.3467">IDirector</text><line style="stroke:#181818;stroke-width:0.5;" x1="527" x2="721.3789" y1="287.5" y2="287.5"/><line style="stroke:#181818;stroke-width:0.5;" x1="527" x2="721.3789" y1="295.5" y2="295.5"/><ellipse cx="537" cy="309.1484" fill="#84BE84" rx="3" ry="3" style="stroke:#038048;stroke-width:1;"/><text fill="#000000" font-family="sans-serif" font-size="14" lengthAdjust="spacing" textLength="170.3789" x="546" y="312.4951">coordinarFestival(): void</text></g><!--class Festival--><g class="entity" data-entity="Festival" data-source-line="16" data-uid="ent0006" id="entity_Festival"><rect fill="#F1F1F1" height="145.7813" rx="2.5" ry="2.5" style="stroke:#181818;stroke-width:0.5;" width="278.7861" x="526.5" y="41"/><ellipse cx="634.5967" cy="57" fill="#ADD1B2" rx="11" ry="11" style="stroke:#181818;stroke-width:1;"/><path d="M637.5654,62.6406 Q636.9873,62.9375 636.3467,63.0781 Q635.7061,63.2344 635.0029,63.2344 Q632.5029,63.2344 631.1748,61.5938 Q629.8623,59.9375 629.8623,56.8125 Q629.8623,53.6875 631.1748,52.0313 Q632.5029,50.375 635.0029,50.375 Q635.7061,50.375 636.3467,50.5313 Q637.0029,50.6875 637.5654,50.9844 L637.5654,53.7031 Q636.9404,53.125 636.3467,52.8594 Q635.7529,52.5781 635.1279,52.5781 Q633.7842,52.5781 633.0967,53.6563 Q632.4092,54.7188 632.4092,56.8125 Q632.4092,58.9063 633.0967,59.9844 Q633.7842,61.0469 635.1279,61.0469 Q635.7529,61.0469 636.3467,60.7813 Q636.9404,60.5 637.5654,59.9219 L637.5654,62.6406 Z " fill="#000000"/><text fill="#000000" font-family="sans-serif" font-size="14" lengthAdjust="spacing" textLength="54.0928" x="655.0967" y="61.8467">Festival</text><line style="stroke:#181818;stroke-width:0.5;" x1="527.5" x2="804.2861" y1="73" y2="73"/><rect fill="none" height="6" style="stroke:#C82930;stroke-width:1;" width="6" x="534.5" y="83.6484"/><text fill="#000000" font-family="sans-serif" font-size="14" lengthAdjust="spacing" textLength="105.2803" x="546.5" y="89.9951">nombre: String</text><rect fill="none" height="6" style="stroke:#C82930;stroke-width:1;" width="6" x="534.5" y="99.9453"/><text fill="#000000" font-family="sans-serif" font-size="14" lengthAdjust="spacing" textLength="53.4365" x="546.5" y="106.292">a&#241;o: int</text><rect fill="none" height="6" style="stroke:#C82930;stroke-width:1;" width="6" x="534.5" y="116.2422"/><text fill="#000000" font-family="sans-serif" font-size="14" lengthAdjust="spacing" textLength="146.0156" x="546.5" y="122.5889">programa: Programa</text><rect fill="none" height="6" style="stroke:#C82930;stroke-width:1;" width="6" x="534.5" y="132.5391"/><text fill="#000000" font-family="sans-serif" font-size="14" lengthAdjust="spacing" textLength="124.4961" x="546.5" y="138.8857">director: IDirector</text><line style="stroke:#181818;stroke-width:0.5;" x1="527.5" x2="804.2861" y1="146.1875" y2="146.1875"/><ellipse cx="537.5" cy="159.8359" fill="#84BE84" rx="3" ry="3" style="stroke:#038048;stroke-width:1;"/><text fill="#000000" font-family="sans-serif" font-size="14" lengthAdjust="spacing" textLength="213.4795" x="546.5" y="163.1826">agregarSesion(s: Sesion): void</text><ellipse cx="537.5" cy="176.1328" fill="#84BE84" rx="3" ry="3" style="stroke:#038048;stroke-width:1;"/><text fill="#000000" font-family="sans-serif" font-size="14" lengthAdjust="spacing" textLength="252.7861" x="546.5" y="179.4795">agregarAsistente(a: Asistente): void</text></g><!--class Programa--><g class="entity" data-entity="Programa" data-source-line="25" data-uid="ent0007" id="entity_Programa"><rect fill="#F1F1F1" height="80.5938" rx="2.5" ry="2.5" style="stroke:#181818;stroke-width:0.5;" width="239.4795" x="757.5" y="247"/><ellipse cx="838.8887" cy="263" fill="#ADD1B2" rx="11" ry="11" style="stroke:#181818;stroke-width:1;"/><path d="M841.8574,268.6406 Q841.2793,268.9375 840.6387,269.0781 Q839.998,269.2344 839.2949,269.2344 Q836.7949,269.2344 835.4668,267.5938 Q834.1543,265.9375 834.1543,262.8125 Q834.1543,259.6875 835.4668,258.0313 Q836.7949,256.375 839.2949,256.375 Q839.998,256.375 840.6387,256.5313 Q841.2949,256.6875 841.8574,256.9844 L841.8574,259.7031 Q841.2324,259.125 840.6387,258.8594 Q840.0449,258.5781 839.4199,258.5781 Q838.0762,258.5781 837.3887,259.6563 Q836.7012,260.7188 836.7012,262.8125 Q836.7012,264.9063 837.3887,265.9844 Q838.0762,267.0469 839.4199,267.0469 Q840.0449,267.0469 840.6387,266.7813 Q841.2324,266.5 841.8574,265.9219 L841.8574,268.6406 Z " fill="#000000"/><text fill="#000000" font-family="sans-serif" font-size="14" lengthAdjust="spacing" textLength="68.2021" x="859.3887" y="267.8467">Programa</text><line style="stroke:#181818;stroke-width:0.5;" x1="758.5" x2="995.9795" y1="279" y2="279"/><rect fill="none" height="6" style="stroke:#C82930;stroke-width:1;" width="6" x="765.5" y="289.6484"/><text fill="#000000" font-family="sans-serif" font-size="14" lengthAdjust="spacing" textLength="163.6592" x="777.5" y="295.9951">sesiones: List&lt;Sesion&gt;</text><line style="stroke:#181818;stroke-width:0.5;" x1="758.5" x2="995.9795" y1="303.2969" y2="303.2969"/><ellipse cx="768.5" cy="316.9453" fill="#84BE84" rx="3" ry="3" style="stroke:#038048;stroke-width:1;"/><text fill="#000000" font-family="sans-serif" font-size="14" lengthAdjust="spacing" textLength="213.4795" x="777.5" y="320.292">agregarSesion(s: Sesion): void</text></g><!--class DirectorFestival--><g class="entity" data-entity="DirectorFestival" data-source-line="30" data-uid="ent0008" id="entity_DirectorFestival"><rect fill="#F1F1F1" height="80.5938" rx="2.5" ry="2.5" style="stroke:#181818;stroke-width:0.5;" width="196.3789" x="526" y="411"/><ellipse cx="565.1827" cy="427" fill="#ADD1B2" rx="11" ry="11" style="stroke:#181818;stroke-width:1;"/><path d="M568.1514,432.6406 Q567.5733,432.9375 566.9327,433.0781 Q566.292,433.2344 565.5889,433.2344 Q563.0889,433.2344 561.7608,431.5938 Q560.4483,429.9375 560.4483,426.8125 Q560.4483,423.6875 561.7608,422.0313 Q563.0889,420.375 565.5889,420.375 Q566.292,420.375 566.9327,420.5313 Q567.5889,420.6875 568.1514,420.9844 L568.1514,423.7031 Q567.5264,423.125 566.9327,422.8594 Q566.3389,422.5781 565.7139,422.5781 Q564.3702,422.5781 563.6827,423.6563 Q562.9952,424.7188 562.9952,426.8125 Q562.9952,428.9063 563.6827,429.9844 Q564.3702,431.0469 565.7139,431.0469 Q566.3389,431.0469 566.9327,430.7813 Q567.5264,430.5 568.1514,429.9219 L568.1514,432.6406 Z " fill="#000000"/><text fill="#000000" font-family="sans-serif" font-size="14" lengthAdjust="spacing" textLength="110.6396" x="584.5566" y="431.8467">DirectorFestival</text><line style="stroke:#181818;stroke-width:0.5;" x1="527" x2="721.3789" y1="443" y2="443"/><rect fill="none" height="6" style="stroke:#C82930;stroke-width:1;" width="6" x="534" y="453.6484"/><text fill="#000000" font-family="sans-serif" font-size="14" lengthAdjust="spacing" textLength="121.8574" x="546" y="459.9951">persona: Persona</text><line style="stroke:#181818;stroke-width:0.5;" x1="527" x2="721.3789" y1="467.2969" y2="467.2969"/><ellipse cx="537" cy="480.9453" fill="#84BE84" rx="3" ry="3" style="stroke:#038048;stroke-width:1;"/><text fill="#000000" font-family="sans-serif" font-size="14" lengthAdjust="spacing" textLength="170.3789" x="546" y="484.292">coordinarFestival(): void</text></g><!--class Asistente--><g class="entity" data-entity="Asistente" data-source-line="37" data-uid="ent0011" id="entity_Asistente"><rect fill="#F1F1F1" height="80.5938" rx="2.5" ry="2.5" style="stroke:#181818;stroke-width:0.5;" width="151.6445" x="318" y="247"/><ellipse cx="357.5303" cy="263" fill="#ADD1B2" rx="11" ry="11" style="stroke:#181818;stroke-width:1;"/><path d="M360.499,268.6406 Q359.9209,268.9375 359.2803,269.0781 Q358.6396,269.2344 357.9365,269.2344 Q355.4365,269.2344 354.1084,267.5938 Q352.7959,265.9375 352.7959,262.8125 Q352.7959,259.6875 354.1084,258.0313 Q355.4365,256.375 357.9365,256.375 Q358.6396,256.375 359.2803,256.5313 Q359.9365,256.6875 360.499,256.9844 L360.499,259.7031 Q359.874,259.125 359.2803,258.8594 Q358.6865,258.5781 358.0615,258.5781 Q356.7178,258.5781 356.0303,259.6563 Q355.3428,260.7188 355.3428,262.8125 Q355.3428,264.9063 356.0303,265.9844 Q356.7178,267.0469 358.0615,267.0469 Q358.6865,267.0469 359.2803,266.7813 Q359.874,266.5 360.499,265.9219 L360.499,268.6406 Z " fill="#000000"/><text fill="#000000" font-family="sans-serif" font-size="14" lengthAdjust="spacing" textLength="65.1328" x="376.9814" y="267.8467">Asistente</text><line style="stroke:#181818;stroke-width:0.5;" x1="319" x2="468.6445" y1="279" y2="279"/><rect fill="none" height="6" style="stroke:#C82930;stroke-width:1;" width="6" x="326" y="289.6484"/><text fill="#000000" font-family="sans-serif" font-size="14" lengthAdjust="spacing" textLength="121.8574" x="338" y="295.9951">persona: Persona</text><line style="stroke:#181818;stroke-width:0.5;" x1="319" x2="468.6445" y1="303.2969" y2="303.2969"/><ellipse cx="329" cy="316.9453" fill="#84BE84" rx="3" ry="3" style="stroke:#038048;stroke-width:1;"/><text fill="#000000" font-family="sans-serif" font-size="14" lengthAdjust="spacing" textLength="125.6445" x="338" y="320.292">registrarse(): void</text></g><!--class Sesion--><g class="entity" data-entity="Sesion" data-source-line="45" data-uid="ent0013" id="entity_Sesion"><rect fill="#F1F1F1" height="96.8906" rx="2.5" ry="2.5" style="stroke:#181818;stroke-width:0.5;" width="196.2422" x="1052" y="403"/><ellipse cx="1122.8101" cy="419" fill="#ADD1B2" rx="11" ry="11" style="stroke:#181818;stroke-width:1;"/><path d="M1125.7788,424.6406 Q1125.2007,424.9375 1124.5601,425.0781 Q1123.9194,425.2344 1123.2163,425.2344 Q1120.7163,425.2344 1119.3882,423.5938 Q1118.0757,421.9375 1118.0757,418.8125 Q1118.0757,415.6875 1119.3882,414.0313 Q1120.7163,412.375 1123.2163,412.375 Q1123.9194,412.375 1124.5601,412.5313 Q1125.2163,412.6875 1125.7788,412.9844 L1125.7788,415.7031 Q1125.1538,415.125 1124.5601,414.8594 Q1123.9663,414.5781 1123.3413,414.5781 Q1121.9976,414.5781 1121.3101,415.6563 Q1120.6226,416.7188 1120.6226,418.8125 Q1120.6226,420.9063 1121.3101,421.9844 Q1121.9976,423.0469 1123.3413,423.0469 Q1123.9663,423.0469 1124.5601,422.7813 Q1125.1538,422.5 1125.7788,421.9219 L1125.7788,424.6406 Z " fill="#000000"/><text fill="#000000" font-family="sans-serif" font-size="14" lengthAdjust="spacing" textLength="46.1221" x="1143.3101" y="423.8467">Sesion</text><line style="stroke:#181818;stroke-width:0.5;" x1="1053" x2="1247.2422" y1="435" y2="435"/><rect fill="none" height="6" style="stroke:#C82930;stroke-width:1;" width="6" x="1060" y="445.6484"/><text fill="#000000" font-family="sans-serif" font-size="14" lengthAdjust="spacing" textLength="81.3203" x="1072" y="451.9951">fecha: Date</text><rect fill="none" height="6" style="stroke:#C82930;stroke-width:1;" width="6" x="1060" y="461.9453"/><text fill="#000000" font-family="sans-serif" font-size="14" lengthAdjust="spacing" textLength="117.3594" x="1072" y="468.292">pelicula: Pelicula</text><line style="stroke:#181818;stroke-width:0.5;" x1="1053" x2="1247.2422" y1="475.5938" y2="475.5938"/><ellipse cx="1063" cy="489.2422" fill="#84BE84" rx="3" ry="3" style="stroke:#038048;stroke-width:1;"/><text fill="#000000" font-family="sans-serif" font-size="14" lengthAdjust="spacing" textLength="170.2422" x="1072" y="492.5889">programarSesion(): void</text></g><!--class Pelicula--><g class="entity" data-entity="Pelicula" data-source-line="51" data-uid="ent0014" id="entity_Pelicula"><rect fill="#F1F1F1" height="80.5938" rx="2.5" ry="2.5" style="stroke:#181818;stroke-width:0.5;" width="131.6016" x="1068" y="560"/><ellipse cx="1103.5774" cy="576" fill="#ADD1B2" rx="11" ry="11" style="stroke:#181818;stroke-width:1;"/><path d="M1106.5461,581.6406 Q1105.968,581.9375 1105.3274,582.0781 Q1104.6868,582.2344 1103.9836,582.2344 Q1101.4836,582.2344 1100.1555,580.5938 Q1098.843,578.9375 1098.843,575.8125 Q1098.843,572.6875 1100.1555,571.0313 Q1101.4836,569.375 1103.9836,569.375 Q1104.6868,569.375 1105.3274,569.5313 Q1105.9836,569.6875 1106.5461,569.9844 L1106.5461,572.7031 Q1105.9211,572.125 1105.3274,571.8594 Q1104.7336,571.5781 1104.1086,571.5781 Q1102.7649,571.5781 1102.0774,572.6563 Q1101.3899,573.7188 1101.3899,575.8125 Q1101.3899,577.9063 1102.0774,578.9844 Q1102.7649,580.0469 1104.1086,580.0469 Q1104.7336,580.0469 1105.3274,579.7813 Q1105.9211,579.5 1106.5461,578.9219 L1106.5461,581.6406 Z " fill="#000000"/><text fill="#000000" font-family="sans-serif" font-size="14" lengthAdjust="spacing" textLength="53.874" x="1122.1501" y="580.8467">Pelicula</text><line style="stroke:#181818;stroke-width:0.5;" x1="1069" x2="1198.6016" y1="592" y2="592"/><rect fill="none" height="6" style="stroke:#C82930;stroke-width:1;" width="6" x="1076" y="602.6484"/><text fill="#000000" font-family="sans-serif" font-size="14" lengthAdjust="spacing" textLength="87.1445" x="1088" y="608.9951">titulo: String</text><rect fill="none" height="6" style="stroke:#C82930;stroke-width:1;" width="6" x="1076" y="618.9453"/><text fill="#000000" font-family="sans-serif" font-size="14" lengthAdjust="spacing" textLength="105.6016" x="1088" y="625.292">director: String</text><line style="stroke:#181818;stroke-width:0.5;" x1="1069" x2="1198.6016" y1="632.5938" y2="632.5938"/></g><!--class Jurado--><g class="entity" data-entity="Jurado" data-source-line="58" data-uid="ent0016" id="entity_Jurado"><rect fill="#F1F1F1" height="80.5938" rx="2.5" ry="2.5" style="stroke:#181818;stroke-width:0.5;" width="189.4609" x="22.5" y="247"/><ellipse cx="90.5859" cy="263" fill="#ADD1B2" rx="11" ry="11" style="stroke:#181818;stroke-width:1;"/><path d="M93.5547,268.6406 Q92.9766,268.9375 92.3359,269.0781 Q91.6953,269.2344 90.9922,269.2344 Q88.4922,269.2344 87.1641,267.5938 Q85.8516,265.9375 85.8516,262.8125 Q85.8516,259.6875 87.1641,258.0313 Q88.4922,256.375 90.9922,256.375 Q91.6953,256.375 92.3359,256.5313 Q92.9922,256.6875 93.5547,256.9844 L93.5547,259.7031 Q92.9297,259.125 92.3359,258.8594 Q91.7422,258.5781 91.1172,258.5781 Q89.7734,258.5781 89.0859,259.6563 Q88.3984,260.7188 88.3984,262.8125 Q88.3984,264.9063 89.0859,265.9844 Q89.7734,267.0469 91.1172,267.0469 Q91.7422,267.0469 92.3359,266.7813 Q92.9297,266.5 93.5547,265.9219 L93.5547,268.6406 Z " fill="#000000"/><text fill="#000000" font-family="sans-serif" font-size="14" lengthAdjust="spacing" textLength="44.7891" x="111.0859" y="267.8467">Jurado</text><line style="stroke:#181818;stroke-width:0.5;" x1="23.5" x2="210.9609" y1="279" y2="279"/><rect fill="none" height="6" style="stroke:#C82930;stroke-width:1;" width="6" x="30.5" y="289.6484"/><text fill="#000000" font-family="sans-serif" font-size="14" lengthAdjust="spacing" textLength="121.8574" x="42.5" y="295.9951">persona: Persona</text><line style="stroke:#181818;stroke-width:0.5;" x1="23.5" x2="210.9609" y1="303.2969" y2="303.2969"/><ellipse cx="33.5" cy="316.9453" fill="#84BE84" rx="3" ry="3" style="stroke:#038048;stroke-width:1;"/><text fill="#000000" font-family="sans-serif" font-size="14" lengthAdjust="spacing" textLength="163.4609" x="42.5" y="320.292">evaluarPeliculas(): void</text></g><!--class Premio--><g class="entity" data-entity="Premio" data-source-line="63" data-uid="ent0017" id="entity_Premio"><rect fill="#F1F1F1" height="80.5938" rx="2.5" ry="2.5" style="stroke:#181818;stroke-width:0.5;" width="143.3594" x="56.5" y="411"/><ellipse cx="99.6048" cy="427" fill="#ADD1B2" rx="11" ry="11" style="stroke:#181818;stroke-width:1;"/><path d="M102.5735,432.6406 Q101.9954,432.9375 101.3548,433.0781 Q100.7142,433.2344 100.011,433.2344 Q97.511,433.2344 96.1829,431.5938 Q94.8704,429.9375 94.8704,426.8125 Q94.8704,423.6875 96.1829,422.0313 Q97.511,420.375 100.011,420.375 Q100.7142,420.375 101.3548,420.5313 Q102.011,420.6875 102.5735,420.9844 L102.5735,423.7031 Q101.9485,423.125 101.3548,422.8594 Q100.761,422.5781 100.136,422.5781 Q98.7923,422.5781 98.1048,423.6563 Q97.4173,424.7188 97.4173,426.8125 Q97.4173,428.9063 98.1048,429.9844 Q98.7923,431.0469 100.136,431.0469 Q100.761,431.0469 101.3548,430.7813 Q101.9485,430.5 102.5735,429.9219 L102.5735,432.6406 Z " fill="#000000"/><text fill="#000000" font-family="sans-serif" font-size="14" lengthAdjust="spacing" textLength="48.9043" x="119.8503" y="431.8467">Premio</text><line style="stroke:#181818;stroke-width:0.5;" x1="57.5" x2="198.8594" y1="443" y2="443"/><rect fill="none" height="6" style="stroke:#C82930;stroke-width:1;" width="6" x="64.5" y="453.6484"/><text fill="#000000" font-family="sans-serif" font-size="14" lengthAdjust="spacing" textLength="105.2803" x="76.5" y="459.9951">nombre: String</text><rect fill="none" height="6" style="stroke:#C82930;stroke-width:1;" width="6" x="64.5" y="469.9453"/><text fill="#000000" font-family="sans-serif" font-size="14" lengthAdjust="spacing" textLength="117.3594" x="76.5" y="476.292">pelicula: Pelicula</text><line style="stroke:#181818;stroke-width:0.5;" x1="57.5" x2="198.8594" y1="483.5938" y2="483.5938"/></g><!--reverse link IDirector to DirectorFestival--><g class="link" data-entity-1="IDirector" data-entity-2="DirectorFestival" data-source-line="31" data-uid="lnk9" id="link_IDirector_DirectorFestival"><path d="M624,337.74 C624,363.66 624,382.7 624,410.74" fill="none" id="IDirector-backto-DirectorFestival" style="stroke:#181818;stroke-width:1;stroke-dasharray:7.0,7.0;"/><polygon fill="none" points="624,319.74,618,337.74,630,337.74,624,319.74" style="stroke:#181818;stroke-width:1;"/></g><!--link Festival to Programa--><g class="link" data-entity-1="Festival" data-entity-2="Programa" data-source-line="69" data-uid="lnk18" id="link_Festival_Programa"><path codeLine="69" d="M754.87,187.23 C779.99,207.65 801.7343,225.3252 823.5443,243.0552" fill="none" id="Festival-to-Programa" style="stroke:#181818;stroke-width:1;"/><polygon fill="#181818" points="828.2,246.84,823.7396,238.0591,824.3202,243.686,818.6933,244.2667,828.2,246.84" style="stroke:#181818;stroke-width:1;"/></g><!--link Festival to IDirector--><g class="link" data-entity-1="Festival" data-entity-2="IDirector" data-source-line="70" data-uid="lnk19" id="link_Festival_IDirector"><path codeLine="70" d="M648.31,187.23 C642.48,211.04 637.7272,230.4322 633.0572,249.5022" fill="none" id="Festival-to-IDirector" style="stroke:#181818;stroke-width:1;"/><polygon fill="#181818" points="631.63,255.33,637.6559,247.5397,632.8193,250.4735,629.8855,245.6369,631.63,255.33" style="stroke:#181818;stroke-width:1;"/></g><!--link Festival to Asistente--><g class="link" data-entity-1="Festival" data-entity-2="Asistente" data-source-line="71" data-uid="lnk20" id="link_Festival_Asistente"><path codeLine="71" d="M537.27,187.09 C527.97,192.7 518.8,198.38 510,204 C489.07,217.37 471.5593,229.4444 452.0993,243.4544" fill="none" id="Festival-to-Asistente" style="stroke:#181818;stroke-width:1;"/><polygon fill="#181818" points="447.23,246.96,456.8711,244.9478,451.2878,244.0386,452.1969,238.4553,447.23,246.96" style="stroke:#181818;stroke-width:1;"/></g><!--link Programa to Sesion--><g class="link" data-entity-1="Programa" data-entity-2="Sesion" data-source-line="72" data-uid="lnk21" id="link_Programa_Sesion"><path codeLine="72" d="M954.79,328.11 C973.7,338.17 993.73,349.21 1012,360 C1034.57,373.34 1053.6199,385.3986 1075.2299,399.6386" fill="none" id="Programa-to-Sesion" style="stroke:#181818;stroke-width:1;"/><polygon fill="#181818" points="1080.24,402.94,1074.9258,394.6479,1076.0649,400.1888,1070.524,401.3279,1080.24,402.94" style="stroke:#181818;stroke-width:1;"/></g><!--link Sesion to Pelicula--><g class="link" data-entity-1="Sesion" data-entity-2="Pelicula" data-source-line="73" data-uid="lnk22" id="link_Sesion_Pelicula"><path codeLine="73" d="M1144.81,500.23 C1142.71,519.51 1140.9591,535.5352 1138.9591,553.9152" fill="none" id="Sesion-to-Pelicula" style="stroke:#181818;stroke-width:1;"/><polygon fill="#181818" points="1138.31,559.88,1143.2601,551.3655,1138.8509,554.9093,1135.3071,550.5001,1138.31,559.88" style="stroke:#181818;stroke-width:1;"/></g><!--link Jurado to Premio--><g class="link" data-entity-1="Jurado" data-entity-2="Premio" data-source-line="74" data-uid="lnk23" id="link_Jurado_Premio"><path codeLine="74" d="M119.69,328.13 C121.4,353.33 123.2033,379.8438 124.9133,405.0138" fill="none" id="Jurado-to-Premio" style="stroke:#181818;stroke-width:1;"/><polygon fill="#181818" points="125.32,411,128.7008,401.7496,124.9811,406.0115,120.7192,402.2918,125.32,411" style="stroke:#181818;stroke-width:1;"/></g><!--link Premio to Pelicula--><g class="link" data-entity-1="Premio" data-entity-2="Pelicula" data-source-line="75" data-uid="lnk24" id="link_Premio_Pelicula"><path codeLine="75" d="M199.71,465.12 C276.39,478.45 401.63,499.75 510,516 C712.94,546.44 947.8861,576.398 1061.9161,590.608" fill="none" id="Premio-to-Pelicula" style="stroke:#181818;stroke-width:1;"/><polygon fill="#181818" points="1067.87,591.35,1059.4337,586.2678,1062.9084,590.7317,1058.4444,594.2064,1067.87,591.35" style="stroke:#181818;stroke-width:1;"/></g><!--reverse link Persona to DirectorFestival--><g class="link" data-entity-1="Persona" data-entity-2="DirectorFestival" data-source-line="77" data-uid="lnk25" id="link_Persona_DirectorFestival"><path codeLine="77" d="M257.3107,180.8655 C253.2007,233.5755 256.71,299.77 302,352 C357.44,415.93 453.13,439.06 525.83,447.08" fill="none" id="Persona-backto-DirectorFestival" style="stroke:#181818;stroke-width:1;"/><polygon fill="none" points="258.71,162.92,251.3289,180.3991,263.2926,181.332,258.71,162.92" style="stroke:#181818;stroke-width:1;"/></g><!--reverse link Persona to Asistente--><g class="link" data-entity-1="Persona" data-entity-2="Asistente" data-source-line="78" data-uid="lnk26" id="link_Persona_Asistente"><path codeLine="78" d="M311.75,177.155 C331.66,203.625 345.29,221.75 364.14,246.8" fill="none" id="Persona-backto-Asistente" style="stroke:#181818;stroke-width:1;"/><polygon fill="none" points="300.93,162.77,306.955,180.7616,316.545,173.5483,300.93,162.77" style="stroke:#181818;stroke-width:1;"/></g><!--reverse link Persona to Jurado--><g class="link" data-entity-1="Persona" data-entity-2="Jurado" data-source-line="79" data-uid="lnk27" id="link_Persona_Jurado"><path codeLine="79" d="M212.0138,176.4006 C189.1838,202.8706 172.88,221.75 151.26,246.8" fill="none" id="Persona-backto-Jurado" style="stroke:#181818;stroke-width:1;"/><polygon fill="none" points="223.77,162.77,207.4703,172.4818,216.5574,180.3193,223.77,162.77" style="stroke:#181818;stroke-width:1;"/></g><!--SRC=[bLDRRjmm3FpNAOJyP8l05p0M0OecBLhaOu6SW94PbwXjRIavGB39eOeU8HUh7fOjDTx2zOybKj8CXyCZg1_Gehpuf1alv4a8wJvuC9P1MQawC4OUa8qUu1Ho_giaDRMyjqn3cmK7tJymhYIm1-gA-Aju5U9I7k3dY1Rb5pIMtduFii5EVlQR9-Z4CP5RJNks_YaQBF8ZA9HVRuXHMSroeNgbjEQ61k1qR_UXba-Qceb7-CKwqmbvsb8KlFtIjKVFOaVMBKCFjJnCgopPJEpgXUX24rh65lWU3UbXPnnUMELSytCV3HcBhlATmvetPojBR8hAJ410XtNdxkyZuFL_KIf0Kb6pZDGVE-mTCRFQ6YTND5QT7BQzQmvuTiS1s98Yj_SUIRQ8d6PfDkAwYibxdms-HrpywlHyHgM2V1cHB5hIYCeL71vHVNSCRi1YmQmZDNQ1Mbmjt9AvKaVETtkwMk1PicEdLtoysFBl-PmBktKD6DVa_JOoD7gZjXXUuSJE_AC0nfxqjZ4yerWeO7PYLLql4rb4br4imhDln3mwFXoL5rCxmwi9T98Y8ddwOggYE2KcLUJ-fQhUJKoPpJZauGZq1m00]--></g></svg>