<svg xmlns="http://www.w3.org/2000/svg" xmlns:xlink="http://www.w3.org/1999/xlink" contentStyleType="text/css" data-diagram-type="CLASS" height="921px" preserveAspectRatio="none" style="width:780px;height:921px;background:#FFFFFF;" version="1.1" viewBox="0 0 780 921" width="780px" zoomAndPan="magnify"><title>Dise&#241;o Modular</title><defs/><g><text fill="#000000" font-family="sans-serif" font-size="14" font-weight="bold" lengthAdjust="spacing" textLength="123.3955" x="321.3022" y="22.9951">Dise&#241;o Modular</text><!--cluster Comun--><g class="cluster" data-entity="Comun" data-source-line="2" data-uid="ent0002" id="cluster_Comun"><path d="M468.5,43.2969 L523.9141,43.2969 A3.75,3.75 0 0 1 526.4141,45.7969 L533.4141,65.5938 L627.5,65.5938 A2.5,2.5 0 0 1 630,68.0938 L630,188.7969 A2.5,2.5 0 0 1 627.5,191.2969 L468.5,191.2969 A2.5,2.5 0 0 1 466,188.7969 L466,45.7969 A2.5,2.5 0 0 1 468.5,43.2969" fill="none" style="stroke:#000000;stroke-width:1.5;"/><line style="stroke:#000000;stroke-width:1.5;" x1="466" x2="533.4141" y1="65.5938" y2="65.5938"/><text fill="#000000" font-family="sans-serif" font-size="14" font-weight="bold" lengthAdjust="spacing" textLength="54.4141" x="470" y="58.292">Comun</text></g><!--cluster Gesti?n del Festival--><g class="cluster" data-entity="Gesti&#243;n del Festival" data-source-line="10" data-uid="ent0004" id="cluster_Gesti&#243;n del Festival"><path d="M8.5,43.2969 L166.2139,43.2969 A3.75,3.75 0 0 1 168.7139,45.7969 L175.7139,65.5938 L426.5,65.5938 A2.5,2.5 0 0 1 429,68.0938 L429,361.2969 A2.5,2.5 0 0 1 426.5,363.7969 L8.5,363.7969 A2.5,2.5 0 0 1 6,361.2969 L6,45.7969 A2.5,2.5 0 0 1 8.5,43.2969" fill="none" style="stroke:#000000;stroke-width:1.5;"/><line style="stroke:#000000;stroke-width:1.5;" x1="6" x2="175.7139" y1="65.5938" y2="65.5938"/><text fill="#000000" font-family="sans-serif" font-size="14" font-weight="bold" lengthAdjust="spacing" textLength="156.7139" x="10" y="58.292">Gesti&#243;n del Festival</text></g><!--cluster Proyecciones--><g class="cluster" data-entity="Proyecciones" data-source-line="29" data-uid="ent0009" id="cluster_Proyecciones"><path d="M305.5,574.7969 L410.7139,574.7969 A3.75,3.75 0 0 1 413.2139,577.2969 L420.2139,597.0938 L512.5,597.0938 A2.5,2.5 0 0 1 515,599.5938 L515,912.2969 A2.5,2.5 0 0 1 512.5,914.7969 L305.5,914.7969 A2.5,2.5 0 0 1 303,912.2969 L303,577.2969 A2.5,2.5 0 0 1 305.5,574.7969" fill="none" style="stroke:#000000;stroke-width:1.5;"/><line style="stroke:#000000;stroke-width:1.5;" x1="303" x2="420.2139" y1="597.0938" y2="597.0938"/><text fill="#000000" font-family="sans-serif" font-size="14" font-weight="bold" lengthAdjust="spacing" textLength="104.2139" x="307" y="589.792">Proyecciones</text></g><!--cluster Evaluaci?n--><g class="cluster" data-entity="Evaluaci&#243;n" data-source-line="44" data-uid="ent0012" id="cluster_Evaluaci&#243;n"><path d="M541.5,412.7969 L627.5322,412.7969 A3.75,3.75 0 0 1 630.0322,415.2969 L637.0322,435.0938 L770.5,435.0938 A2.5,2.5 0 0 1 773,437.5938 L773,720.2969 A2.5,2.5 0 0 1 770.5,722.7969 L541.5,722.7969 A2.5,2.5 0 0 1 539,720.2969 L539,415.2969 A2.5,2.5 0 0 1 541.5,412.7969" fill="none" style="stroke:#000000;stroke-width:1.5;"/><line style="stroke:#000000;stroke-width:1.5;" x1="539" x2="637.0322" y1="435.0938" y2="435.0938"/><text fill="#000000" font-family="sans-serif" font-size="14" font-weight="bold" lengthAdjust="spacing" textLength="85.0322" x="543" y="427.792">Evaluaci&#243;n</text></g><!--cluster Participaci?n--><g class="cluster" data-entity="Participaci&#243;n" data-source-line="58" data-uid="ent0016" id="cluster_Participaci&#243;n"><path d="M455.5,240.2969 L559.8525,240.2969 A3.75,3.75 0 0 1 562.3525,242.7969 L569.3525,262.5938 L640.5,262.5938 A2.5,2.5 0 0 1 643,265.0938 L643,352.7969 A2.5,2.5 0 0 1 640.5,355.2969 L455.5,355.2969 A2.5,2.5 0 0 1 453,352.7969 L453,242.7969 A2.5,2.5 0 0 1 455.5,240.2969" fill="none" style="stroke:#000000;stroke-width:1.5;"/><line style="stroke:#000000;stroke-width:1.5;" x1="453" x2="569.3525" y1="262.5938" y2="262.5938"/><text fill="#000000" font-family="sans-serif" font-size="14" font-weight="bold" lengthAdjust="spacing" textLength="103.3525" x="457" y="255.292">Participaci&#243;n</text></g><!--class Persona--><g class="entity" data-entity="Persona" data-source-line="3" data-uid="ent0003" id="entity_Persona"><rect fill="#F1F1F1" height="96.8906" rx="2.5" ry="2.5" style="stroke:#181818;stroke-width:0.5;" width="131.2803" x="482.5" y="78.2969"/><ellipse cx="516.9208" cy="94.2969" fill="#A9DCDF" rx="11" ry="11" style="stroke:#181818;stroke-width:1;"/><path d="M517.0301,89.6406 L515.8739,94.7188 L518.202,94.7188 L517.0301,89.6406 Z M515.5458,87.4063 L518.5301,87.4063 L521.8895,99.7969 L519.4364,99.7969 L518.6708,96.7344 L515.3895,96.7344 L514.6395,99.7969 L512.202,99.7969 L515.5458,87.4063 Z " fill="#000000"/><text fill="#000000" font-family="sans-serif" font-size="14" font-style="italic" lengthAdjust="spacing" textLength="56.123" x="535.2365" y="99.1436">Persona</text><line style="stroke:#181818;stroke-width:0.5;" x1="483.5" x2="612.7803" y1="110.2969" y2="110.2969"/><ellipse cx="493.5" cy="123.9453" fill="none" rx="3" ry="3" style="stroke:#038048;stroke-width:1;"/><text fill="#000000" font-family="sans-serif" font-size="14" lengthAdjust="spacing" textLength="63.7246" x="502.5" y="127.292">id: String</text><ellipse cx="493.5" cy="140.2422" fill="none" rx="3" ry="3" style="stroke:#038048;stroke-width:1;"/><text fill="#000000" font-family="sans-serif" font-size="14" lengthAdjust="spacing" textLength="105.2803" x="502.5" y="143.5889">nombre: String</text><ellipse cx="493.5" cy="156.5391" fill="none" rx="3" ry="3" style="stroke:#038048;stroke-width:1;"/><text fill="#000000" font-family="sans-serif" font-size="14" lengthAdjust="spacing" textLength="89.5576" x="502.5" y="159.8857">email: String</text><line style="stroke:#181818;stroke-width:0.5;" x1="483.5" x2="612.7803" y1="167.1875" y2="167.1875"/></g><!--class Festival--><g class="entity" data-entity="Festival" data-source-line="11" data-uid="ent0005" id="entity_Festival"><rect fill="#F1F1F1" height="96.8906" rx="2.5" ry="2.5" style="stroke:#181818;stroke-width:0.5;" width="144.3643" x="90" y="78.2969"/><ellipse cx="131.2222" cy="94.2969" fill="#ADD1B2" rx="11" ry="11" style="stroke:#181818;stroke-width:1;"/><path d="M134.1909,99.9375 Q133.6128,100.2344 132.9722,100.375 Q132.3315,100.5313 131.6284,100.5313 Q129.1284,100.5313 127.8003,98.8906 Q126.4878,97.2344 126.4878,94.1094 Q126.4878,90.9844 127.8003,89.3281 Q129.1284,87.6719 131.6284,87.6719 Q132.3315,87.6719 132.9722,87.8281 Q133.6284,87.9844 134.1909,88.2813 L134.1909,91 Q133.5659,90.4219 132.9722,90.1563 Q132.3784,89.875 131.7534,89.875 Q130.4097,89.875 129.7222,90.9531 Q129.0347,92.0156 129.0347,94.1094 Q129.0347,96.2031 129.7222,97.2813 Q130.4097,98.3438 131.7534,98.3438 Q132.3784,98.3438 132.9722,98.0781 Q133.5659,97.7969 134.1909,97.2188 L134.1909,99.9375 Z " fill="#000000"/><text fill="#000000" font-family="sans-serif" font-size="14" lengthAdjust="spacing" textLength="54.0928" x="151.0493" y="99.1436">Festival</text><line style="stroke:#181818;stroke-width:0.5;" x1="91" x2="233.3643" y1="110.2969" y2="110.2969"/><ellipse cx="101" cy="123.9453" fill="none" rx="3" ry="3" style="stroke:#038048;stroke-width:1;"/><text fill="#000000" font-family="sans-serif" font-size="14" lengthAdjust="spacing" textLength="105.2803" x="110" y="127.292">nombre: String</text><ellipse cx="101" cy="140.2422" fill="none" rx="3" ry="3" style="stroke:#038048;stroke-width:1;"/><text fill="#000000" font-family="sans-serif" font-size="14" lengthAdjust="spacing" textLength="118.3643" x="110" y="143.5889">fechaInicio: Date</text><ellipse cx="101" cy="156.5391" fill="none" rx="3" ry="3" style="stroke:#038048;stroke-width:1;"/><text fill="#000000" font-family="sans-serif" font-size="14" lengthAdjust="spacing" textLength="102.1357" x="110" y="159.8857">fechaFin: Date</text><line style="stroke:#181818;stroke-width:0.5;" x1="91" x2="233.3643" y1="167.1875" y2="167.1875"/></g><!--class Programa--><g class="entity" data-entity="Programa" data-source-line="17" data-uid="ent0006" id="entity_Programa"><rect fill="#F1F1F1" height="80.5938" rx="2.5" ry="2.5" style="stroke:#181818;stroke-width:0.5;" width="156.9971" x="22.5" y="266.7969"/><ellipse cx="63.0577" cy="282.7969" fill="#ADD1B2" rx="11" ry="11" style="stroke:#181818;stroke-width:1;"/><path d="M66.0265,288.4375 Q65.4483,288.7344 64.8077,288.875 Q64.1671,289.0313 63.464,289.0313 Q60.964,289.0313 59.6358,287.3906 Q58.3233,285.7344 58.3233,282.6094 Q58.3233,279.4844 59.6358,277.8281 Q60.964,276.1719 63.464,276.1719 Q64.1671,276.1719 64.8077,276.3281 Q65.464,276.4844 66.0265,276.7813 L66.0265,279.5 Q65.4015,278.9219 64.8077,278.6563 Q64.214,278.375 63.589,278.375 Q62.2452,278.375 61.5577,279.4531 Q60.8702,280.5156 60.8702,282.6094 Q60.8702,284.7031 61.5577,285.7813 Q62.2452,286.8438 63.589,286.8438 Q64.214,286.8438 64.8077,286.5781 Q65.4015,286.2969 66.0265,285.7188 L66.0265,288.4375 Z " fill="#000000"/><text fill="#000000" font-family="sans-serif" font-size="14" lengthAdjust="spacing" textLength="68.2021" x="82.7372" y="287.6436">Programa</text><line style="stroke:#181818;stroke-width:0.5;" x1="23.5" x2="178.4971" y1="298.7969" y2="298.7969"/><ellipse cx="33.5" cy="312.4453" fill="none" rx="3" ry="3" style="stroke:#038048;stroke-width:1;"/><text fill="#000000" font-family="sans-serif" font-size="14" lengthAdjust="spacing" textLength="105.2803" x="42.5" y="315.792">nombre: String</text><ellipse cx="33.5" cy="328.7422" fill="none" rx="3" ry="3" style="stroke:#038048;stroke-width:1;"/><text fill="#000000" font-family="sans-serif" font-size="14" lengthAdjust="spacing" textLength="130.9971" x="42.5" y="332.0889">descripcion: String</text><line style="stroke:#181818;stroke-width:0.5;" x1="23.5" x2="178.4971" y1="339.3906" y2="339.3906"/></g><!--class DirectorFestival--><g class="entity" data-entity="DirectorFestival" data-source-line="22" data-uid="ent0007" id="entity_DirectorFestival"><rect fill="#F1F1F1" height="64.2969" rx="2.5" ry="2.5" style="stroke:#181818;stroke-width:0.5;" width="197.5205" x="215" y="275.2969"/><ellipse cx="254.6964" cy="291.2969" fill="#ADD1B2" rx="11" ry="11" style="stroke:#181818;stroke-width:1;"/><path d="M257.6651,296.9375 Q257.087,297.2344 256.4464,297.375 Q255.8058,297.5313 255.1026,297.5313 Q252.6026,297.5313 251.2745,295.8906 Q249.962,294.2344 249.962,291.1094 Q249.962,287.9844 251.2745,286.3281 Q252.6026,284.6719 255.1026,284.6719 Q255.8058,284.6719 256.4464,284.8281 Q257.1026,284.9844 257.6651,285.2813 L257.6651,288 Q257.0401,287.4219 256.4464,287.1563 Q255.8526,286.875 255.2276,286.875 Q253.8839,286.875 253.1964,287.9531 Q252.5089,289.0156 252.5089,291.1094 Q252.5089,293.2031 253.1964,294.2813 Q253.8839,295.3438 255.2276,295.3438 Q255.8526,295.3438 256.4464,295.0781 Q257.0401,294.7969 257.6651,294.2188 L257.6651,296.9375 Z " fill="#000000"/><text fill="#000000" font-family="sans-serif" font-size="14" lengthAdjust="spacing" textLength="110.6396" x="274.1845" y="296.1436">DirectorFestival</text><line style="stroke:#181818;stroke-width:0.5;" x1="216" x2="411.5205" y1="307.2969" y2="307.2969"/><ellipse cx="226" cy="320.9453" fill="none" rx="3" ry="3" style="stroke:#038048;stroke-width:1;"/><text fill="#000000" font-family="sans-serif" font-size="14" lengthAdjust="spacing" textLength="171.5205" x="235" y="324.292">telefonoContacto: String</text><line style="stroke:#181818;stroke-width:0.5;" x1="216" x2="411.5205" y1="331.5938" y2="331.5938"/></g><!--class Sesion--><g class="entity" data-entity="Sesion" data-source-line="30" data-uid="ent0010" id="entity_Sesion"><rect fill="#F1F1F1" height="96.8906" rx="2.5" ry="2.5" style="stroke:#181818;stroke-width:0.5;" width="180.1504" x="319" y="609.7969"/><ellipse cx="381.7642" cy="625.7969" fill="#ADD1B2" rx="11" ry="11" style="stroke:#181818;stroke-width:1;"/><path d="M384.7329,631.4375 Q384.1548,631.7344 383.5142,631.875 Q382.8735,632.0313 382.1704,632.0313 Q379.6704,632.0313 378.3423,630.3906 Q377.0298,628.7344 377.0298,625.6094 Q377.0298,622.4844 378.3423,620.8281 Q379.6704,619.1719 382.1704,619.1719 Q382.8735,619.1719 383.5142,619.3281 Q384.1704,619.4844 384.7329,619.7813 L384.7329,622.5 Q384.1079,621.9219 383.5142,621.6563 Q382.9204,621.375 382.2954,621.375 Q380.9517,621.375 380.2642,622.4531 Q379.5767,623.5156 379.5767,625.6094 Q379.5767,627.7031 380.2642,628.7813 Q380.9517,629.8438 382.2954,629.8438 Q382.9204,629.8438 383.5142,629.5781 Q384.1079,629.2969 384.7329,628.7188 L384.7329,631.4375 Z " fill="#000000"/><text fill="#000000" font-family="sans-serif" font-size="14" lengthAdjust="spacing" textLength="46.1221" x="402.2642" y="630.6436">Sesion</text><line style="stroke:#181818;stroke-width:0.5;" x1="320" x2="498.1504" y1="641.7969" y2="641.7969"/><ellipse cx="330" cy="655.4453" fill="none" rx="3" ry="3" style="stroke:#038048;stroke-width:1;"/><text fill="#000000" font-family="sans-serif" font-size="14" lengthAdjust="spacing" textLength="81.3203" x="339" y="658.792">fecha: Date</text><ellipse cx="330" cy="671.7422" fill="none" rx="3" ry="3" style="stroke:#038048;stroke-width:1;"/><text fill="#000000" font-family="sans-serif" font-size="14" lengthAdjust="spacing" textLength="82.7217" x="339" y="675.0889">hora: String</text><ellipse cx="330" cy="688.0391" fill="none" rx="3" ry="3" style="stroke:#038048;stroke-width:1;"/><text fill="#000000" font-family="sans-serif" font-size="14" lengthAdjust="spacing" textLength="154.1504" x="339" y="691.3857">capacidadMaxima: int</text><line style="stroke:#181818;stroke-width:0.5;" x1="320" x2="498.1504" y1="698.6875" y2="698.6875"/></g><!--class Pel?cula--><g class="entity" data-entity="Pel&#237;cula" data-source-line="36" data-uid="ent0011" id="entity_Pel&#237;cula"><rect fill="#F1F1F1" height="113.1875" rx="2.5" ry="2.5" style="stroke:#181818;stroke-width:0.5;" width="131.6016" x="361" y="785.7969"/><ellipse cx="396.5774" cy="801.7969" fill="#ADD1B2" rx="11" ry="11" style="stroke:#181818;stroke-width:1;"/><path d="M399.5461,807.4375 Q398.968,807.7344 398.3274,807.875 Q397.6868,808.0313 396.9836,808.0313 Q394.4836,808.0313 393.1555,806.3906 Q391.843,804.7344 391.843,801.6094 Q391.843,798.4844 393.1555,796.8281 Q394.4836,795.1719 396.9836,795.1719 Q397.6868,795.1719 398.3274,795.3281 Q398.9836,795.4844 399.5461,795.7813 L399.5461,798.5 Q398.9211,797.9219 398.3274,797.6563 Q397.7336,797.375 397.1086,797.375 Q395.7649,797.375 395.0774,798.4531 Q394.3899,799.5156 394.3899,801.6094 Q394.3899,803.7031 395.0774,804.7813 Q395.7649,805.8438 397.1086,805.8438 Q397.7336,805.8438 398.3274,805.5781 Q398.9211,805.2969 399.5461,804.7188 L399.5461,807.4375 Z " fill="#000000"/><text fill="#000000" font-family="sans-serif" font-size="14" lengthAdjust="spacing" textLength="53.874" x="415.1501" y="806.6436">Pel&#237;cula</text><line style="stroke:#181818;stroke-width:0.5;" x1="362" x2="491.6016" y1="817.7969" y2="817.7969"/><ellipse cx="372" cy="831.4453" fill="none" rx="3" ry="3" style="stroke:#038048;stroke-width:1;"/><text fill="#000000" font-family="sans-serif" font-size="14" lengthAdjust="spacing" textLength="87.1445" x="381" y="834.792">titulo: String</text><ellipse cx="372" cy="847.7422" fill="none" rx="3" ry="3" style="stroke:#038048;stroke-width:1;"/><text fill="#000000" font-family="sans-serif" font-size="14" lengthAdjust="spacing" textLength="105.6016" x="381" y="851.0889">director: String</text><ellipse cx="372" cy="864.0391" fill="none" rx="3" ry="3" style="stroke:#038048;stroke-width:1;"/><text fill="#000000" font-family="sans-serif" font-size="14" lengthAdjust="spacing" textLength="88.5391" x="381" y="867.3857">duracion: int</text><ellipse cx="372" cy="880.3359" fill="none" rx="3" ry="3" style="stroke:#038048;stroke-width:1;"/><text fill="#000000" font-family="sans-serif" font-size="14" lengthAdjust="spacing" textLength="100.2559" x="381" y="883.6826">genero: String</text><line style="stroke:#181818;stroke-width:0.5;" x1="362" x2="491.6016" y1="890.9844" y2="890.9844"/></g><!--class Jurado--><g class="entity" data-entity="Jurado" data-source-line="45" data-uid="ent0013" id="entity_Jurado"><rect fill="#F1F1F1" height="64.2969" rx="2.5" ry="2.5" style="stroke:#181818;stroke-width:0.5;" width="164.6533" x="573.5" y="447.7969"/><ellipse cx="629.1821" cy="463.7969" fill="#ADD1B2" rx="11" ry="11" style="stroke:#181818;stroke-width:1;"/><path d="M632.1509,469.4375 Q631.5728,469.7344 630.9321,469.875 Q630.2915,470.0313 629.5884,470.0313 Q627.0884,470.0313 625.7603,468.3906 Q624.4478,466.7344 624.4478,463.6094 Q624.4478,460.4844 625.7603,458.8281 Q627.0884,457.1719 629.5884,457.1719 Q630.2915,457.1719 630.9321,457.3281 Q631.5884,457.4844 632.1509,457.7813 L632.1509,460.5 Q631.5259,459.9219 630.9321,459.6563 Q630.3384,459.375 629.7134,459.375 Q628.3696,459.375 627.6821,460.4531 Q626.9946,461.5156 626.9946,463.6094 Q626.9946,465.7031 627.6821,466.7813 Q628.3696,467.8438 629.7134,467.8438 Q630.3384,467.8438 630.9321,467.5781 Q631.5259,467.2969 632.1509,466.7188 L632.1509,469.4375 Z " fill="#000000"/><text fill="#000000" font-family="sans-serif" font-size="14" lengthAdjust="spacing" textLength="44.7891" x="649.6821" y="468.6436">Jurado</text><line style="stroke:#181818;stroke-width:0.5;" x1="574.5" x2="737.1533" y1="479.7969" y2="479.7969"/><ellipse cx="584.5" cy="493.4453" fill="none" rx="3" ry="3" style="stroke:#038048;stroke-width:1;"/><text fill="#000000" font-family="sans-serif" font-size="14" lengthAdjust="spacing" textLength="138.6533" x="593.5" y="496.792">especialidad: String</text><line style="stroke:#181818;stroke-width:0.5;" x1="574.5" x2="737.1533" y1="504.0938" y2="504.0938"/></g><!--class Premio--><g class="entity" data-entity="Premio" data-source-line="49" data-uid="ent0014" id="entity_Premio"><rect fill="#F1F1F1" height="96.8906" rx="2.5" ry="2.5" style="stroke:#181818;stroke-width:0.5;" width="202.6816" x="554.5" y="609.7969"/><ellipse cx="627.1387" cy="625.7969" fill="#ADD1B2" rx="11" ry="11" style="stroke:#181818;stroke-width:1;"/><path d="M630.1074,631.4375 Q629.5293,631.7344 628.8887,631.875 Q628.248,632.0313 627.5449,632.0313 Q625.0449,632.0313 623.7168,630.3906 Q622.4043,628.7344 622.4043,625.6094 Q622.4043,622.4844 623.7168,620.8281 Q625.0449,619.1719 627.5449,619.1719 Q628.248,619.1719 628.8887,619.3281 Q629.5449,619.4844 630.1074,619.7813 L630.1074,622.5 Q629.4824,621.9219 628.8887,621.6563 Q628.2949,621.375 627.6699,621.375 Q626.3262,621.375 625.6387,622.4531 Q624.9512,623.5156 624.9512,625.6094 Q624.9512,627.7031 625.6387,628.7813 Q626.3262,629.8438 627.6699,629.8438 Q628.2949,629.8438 628.8887,629.5781 Q629.4824,629.2969 630.1074,628.7188 L630.1074,631.4375 Z " fill="#000000"/><text fill="#000000" font-family="sans-serif" font-size="14" lengthAdjust="spacing" textLength="48.9043" x="647.6387" y="630.6436">Premio</text><line style="stroke:#181818;stroke-width:0.5;" x1="555.5" x2="756.1816" y1="641.7969" y2="641.7969"/><ellipse cx="565.5" cy="655.4453" fill="none" rx="3" ry="3" style="stroke:#038048;stroke-width:1;"/><text fill="#000000" font-family="sans-serif" font-size="14" lengthAdjust="spacing" textLength="105.2803" x="574.5" y="658.792">nombre: String</text><ellipse cx="565.5" cy="671.7422" fill="none" rx="3" ry="3" style="stroke:#038048;stroke-width:1;"/><text fill="#000000" font-family="sans-serif" font-size="14" lengthAdjust="spacing" textLength="117.0039" x="574.5" y="675.0889">categoria: String</text><ellipse cx="565.5" cy="688.0391" fill="none" rx="3" ry="3" style="stroke:#038048;stroke-width:1;"/><text fill="#000000" font-family="sans-serif" font-size="14" lengthAdjust="spacing" textLength="176.6816" x="574.5" y="691.3857">criterioEvaluacion: String</text><line style="stroke:#181818;stroke-width:0.5;" x1="555.5" x2="756.1816" y1="698.6875" y2="698.6875"/></g><!--class Asistente--><g class="entity" data-entity="Asistente" data-source-line="59" data-uid="ent0017" id="entity_Asistente"><rect fill="#F1F1F1" height="64.2969" rx="2.5" ry="2.5" style="stroke:#181818;stroke-width:0.5;" width="158.7881" x="468.5" y="275.2969"/><ellipse cx="511.2449" cy="291.2969" fill="#ADD1B2" rx="11" ry="11" style="stroke:#181818;stroke-width:1;"/><path d="M514.2136,296.9375 Q513.6355,297.2344 512.9949,297.375 Q512.3542,297.5313 511.6511,297.5313 Q509.1511,297.5313 507.823,295.8906 Q506.5105,294.2344 506.5105,291.1094 Q506.5105,287.9844 507.823,286.3281 Q509.1511,284.6719 511.6511,284.6719 Q512.3542,284.6719 512.9949,284.8281 Q513.6511,284.9844 514.2136,285.2813 L514.2136,288 Q513.5886,287.4219 512.9949,287.1563 Q512.4011,286.875 511.7761,286.875 Q510.4324,286.875 509.7449,287.9531 Q509.0574,289.0156 509.0574,291.1094 Q509.0574,293.2031 509.7449,294.2813 Q510.4324,295.3438 511.7761,295.3438 Q512.4011,295.3438 512.9949,295.0781 Q513.5886,294.7969 514.2136,294.2188 L514.2136,296.9375 Z " fill="#000000"/><text fill="#000000" font-family="sans-serif" font-size="14" lengthAdjust="spacing" textLength="65.1328" x="531.4104" y="296.1436">Asistente</text><line style="stroke:#181818;stroke-width:0.5;" x1="469.5" x2="626.2881" y1="307.2969" y2="307.2969"/><ellipse cx="479.5" cy="320.9453" fill="none" rx="3" ry="3" style="stroke:#038048;stroke-width:1;"/><text fill="#000000" font-family="sans-serif" font-size="14" lengthAdjust="spacing" textLength="132.7881" x="488.5" y="324.292">tipoEntrada: String</text><line style="stroke:#181818;stroke-width:0.5;" x1="469.5" x2="626.2881" y1="331.5938" y2="331.5938"/></g><!--reverse link Persona to DirectorFestival--><g class="link" data-entity-1="Persona" data-entity-2="DirectorFestival" data-source-line="26" data-uid="lnk8" id="link_Persona_DirectorFestival"><path codeLine="26" d="M471.2879,186.3131 C429.8579,217.9131 390.97,247.5869 354.86,275.1269" fill="none" id="Persona-backto-DirectorFestival" style="stroke:#181818;stroke-width:1;"/><polygon fill="none" points="485.6,175.3969,467.6492,181.5425,474.9267,191.0838,485.6,175.3969" style="stroke:#181818;stroke-width:1;"/></g><!--reverse link Persona to Jurado--><g class="link" data-entity-1="Persona" data-entity-2="Jurado" data-source-line="55" data-uid="lnk15" id="link_Persona_Jurado"><path codeLine="55" d="M616.183,188.4296 C631.643,204.7896 634.22,211.2569 643,232.2969 C673.2,304.6769 666.86,399.5369 660.8,447.7569" fill="none" id="Persona-backto-Jurado" style="stroke:#181818;stroke-width:1;"/><polygon fill="none" points="603.82,175.3469,611.8221,192.5506,620.5439,184.3086,603.82,175.3469" style="stroke:#181818;stroke-width:1;"/></g><!--reverse link Persona to Asistente--><g class="link" data-entity-1="Persona" data-entity-2="Asistente" data-source-line="63" data-uid="lnk18" id="link_Persona_Asistente"><path codeLine="63" d="M548,193.6269 C548,225.2369 548,247.7369 548,275.2069" fill="none" id="Persona-backto-Asistente" style="stroke:#181818;stroke-width:1;"/><polygon fill="none" points="548,175.6269,542,193.6269,554,193.6269,548,175.6269" style="stroke:#181818;stroke-width:1;"/></g><!--reverse link Festival to Programa--><g class="link" data-entity-1="Festival" data-entity-2="Programa" data-source-line="66" data-uid="lnk19" id="link_Festival_Programa"><path codeLine="66" d="M141.7705,186.9825 C132.0305,215.4925 123.7,239.8769 114.51,266.7769" fill="none" id="Festival-backto-Programa" style="stroke:#181818;stroke-width:1;"/><polygon fill="#181818" points="145.65,175.6269,139.9251,180.0115,141.7705,186.9825,147.4955,182.5978,145.65,175.6269" style="stroke:#181818;stroke-width:1;"/><text fill="#000000" font-family="sans-serif" font-size="13" lengthAdjust="spacing" textLength="56.2847" x="135" y="220.3638">contiene</text></g><!--reverse link Programa to Sesion--><g class="link" data-entity-1="Programa" data-entity-2="Sesion" data-source-line="67" data-uid="lnk20" id="link_Programa_Sesion"><path codeLine="67" d="M143.9702,356.9843 C200.9702,421.5743 305.62,540.1569 366.88,609.5769" fill="none" id="Programa-backto-Sesion" style="stroke:#181818;stroke-width:1;"/><polygon fill="#181818" points="136.03,347.9869,137.0009,355.1323,143.9702,356.9843,142.9992,349.8389,136.03,347.9869" style="stroke:#181818;stroke-width:1;"/><text fill="#000000" font-family="sans-serif" font-size="13" lengthAdjust="spacing" textLength="46.0205" x="282" y="484.3638">agrupa</text></g><!--reverse link Sesion to Pel?cula--><g class="link" data-entity-1="Sesion" data-entity-2="Pel&#237;cula" data-source-line="68" data-uid="lnk21" id="link_Sesion_Pel&#237;cula"><path codeLine="68" d="M414.9084,719.0589 C417.2884,743.1789 419.02,760.6169 421.51,785.7369" fill="none" id="Sesion-backto-Pel&#237;cula" style="stroke:#181818;stroke-width:1;"/><polygon fill="none" points="413.73,707.1169,410.3385,713.4807,414.9084,719.0589,418.2998,712.6951,413.73,707.1169" style="stroke:#181818;stroke-width:1;"/><text fill="#000000" font-family="sans-serif" font-size="13" lengthAdjust="spacing" textLength="57.4526" x="420" y="751.8638">proyecta</text></g><!--link Jurado to Premio--><g class="link" data-entity-1="Jurado" data-entity-2="Premio" data-source-line="69" data-uid="lnk22" id="link_Jurado_Premio"><path codeLine="69" d="M656,511.9469 C656,538.9669 656,572.4969 656,603.5069" fill="none" id="Jurado-to-Premio" style="stroke:#181818;stroke-width:1;"/><polygon fill="#181818" points="656,609.5069,660,600.5069,656,604.5069,652,600.5069,656,609.5069" style="stroke:#181818;stroke-width:1;"/><text fill="#000000" font-family="sans-serif" font-size="13" lengthAdjust="spacing" textLength="43.4751" x="657" y="554.8638">eval&#250;a</text></g><!--link Premio to Pel?cula--><g class="link" data-entity-1="Premio" data-entity-2="Pel&#237;cula" data-source-line="70" data-uid="lnk23" id="link_Premio_Pel&#237;cula"><path codeLine="70" d="M596.13,706.8769 C564.59,731.9469 530.5278,759.0244 498.0678,784.8144" fill="none" id="Premio-to-Pel&#237;cula" style="stroke:#181818;stroke-width:1;"/><polygon fill="#181818" points="493.37,788.5469,502.9049,786.08,497.2848,785.4365,497.9283,779.8164,493.37,788.5469" style="stroke:#181818;stroke-width:1;"/><text fill="#000000" font-family="sans-serif" font-size="13" lengthAdjust="spacing" textLength="70.8716" x="557" y="751.8638">otorgado a</text></g><!--link Asistente to Sesion--><g class="link" data-entity-1="Asistente" data-entity-2="Sesion" data-source-line="71" data-uid="lnk24" id="link_Asistente_Sesion"><path codeLine="71" d="M525.16,339.6969 C512.63,358.0069 497.53,381.9369 487,404.7969 C455.52,473.1369 433.775,551.7161 421.195,603.5561" fill="none" id="Asistente-to-Sesion" style="stroke:#181818;stroke-width:1;"/><polygon fill="#181818" points="419.78,609.3869,425.7896,601.584,420.9591,604.5279,418.0152,599.6974,419.78,609.3869" style="stroke:#181818;stroke-width:1;"/><text fill="#000000" font-family="sans-serif" font-size="13" lengthAdjust="spacing" textLength="50.3179" x="488" y="484.3638">asiste a</text></g><!--link Festival to DirectorFestival--><g class="link" data-entity-1="Festival" data-entity-2="DirectorFestival" data-source-line="72" data-uid="lnk25" id="link_Festival_DirectorFestival"><path codeLine="72" d="M202.73,175.6269 C229.64,207.2369 260.2392,243.1694 283.6392,270.6394" fill="none" id="Festival-to-DirectorFestival" style="stroke:#181818;stroke-width:1;"/><polygon fill="#181818" points="287.53,275.2069,284.7388,265.7618,284.2877,271.4006,278.6489,270.9495,287.53,275.2069" style="stroke:#181818;stroke-width:1;"/><text fill="#000000" font-family="sans-serif" font-size="13" lengthAdjust="spacing" textLength="74.5723" x="244" y="220.3638">dirigido por</text></g><!--link DirectorFestival to Jurado--><g class="link" data-entity-1="DirectorFestival" data-entity-2="Jurado" data-source-line="73" data-uid="lnk26" id="link_DirectorFestival_Jurado"><path codeLine="73" d="M376.33,339.3669 C438.08,370.1569 526.7403,414.3599 588.4403,445.1199" fill="none" id="DirectorFestival-to-Jurado" style="stroke:#181818;stroke-width:1;stroke-dasharray:7.0,7.0;"/><polygon fill="#181818" points="593.81,447.7969,587.5401,440.2016,589.3353,445.566,583.9708,447.3611,593.81,447.7969" style="stroke:#181818;stroke-width:1;"/><text fill="#000000" font-family="sans-serif" font-size="13" lengthAdjust="spacing" textLength="56.4688" x="486" y="392.8638">coordina</text></g><!--SRC=[ZLFBRjH04BpxAqO-Wlm3AuI4iWa2AT9AEI8EdPcEjvNnjDKpHY389t50tBZkZz7ZjRrhhmFnpVsgwkgQHCcZsLB4moysj-mw3sAA5kmZr6ZAAswwK1hplJ3wmNrC0ZOPwo56iqE97618vk-r8RSnTqaer6V1mCszu4e26o0_YpyLJyK9_Zt6H8VVmJZqvYR_V04_qJco6CCp6iyYFg3TmuT0bdXZjf1mcRkXS9PGCYUadN0jqC3Ba1n6AzGgK5XiU3PoIu8siQmkaT3Z0mU-uf1KTLuRCzxWpO-gkfWsqrBPVqERwM1SI7Y7KSCpx5wB2uNsBB2ogWL58GVk5hvIenKKqefyw0y_hHfilYIbplEQViCoQwbENTZhEW8TupK65Fw7dwvLb4vRrL8B2JxgICSpPXXRj0G-B_Ry1NU23V7BB65LpPg5LZKKIYZ48yLrrypEVUGyFp98Kc-tgpk-YnGJXeIB0xHy7VHTE_WluZGXWqwUVQMPwMriJ6dLhwIdA8ifcai6bsa1rDArK1P3X7F_P0xDjxrLarOCPwcgjwFGcaO5FVo1FBuFzTdpVbRRrBbFQqvBvx8p3dqyLqnxv8AB1wcbwaIgISUrB6LnKL5zSX3tw3vh-y2t5u75KO3oBm00]--></g></svg>