<svg xmlns="http://www.w3.org/2000/svg" xmlns:xlink="http://www.w3.org/1999/xlink" contentStyleType="text/css" data-diagram-type="CLASS" height="1147px" preserveAspectRatio="none" style="width:742px;height:1147px;background:#FFFFFF;" version="1.1" viewBox="0 0 742 1147" width="742px" zoomAndPan="magnify"><defs/><g><!--cluster Comun--><g class="cluster" data-entity="Comun" data-source-line="1" data-uid="ent0002" id="cluster_Comun"><path d="M8.5,250 L63.9141,250 A3.75,3.75 0 0 1 66.4141,252.5 L73.4141,272.2969 L167.5,272.2969 A2.5,2.5 0 0 1 170,274.7969 L170,395.5 A2.5,2.5 0 0 1 167.5,398 L8.5,398 A2.5,2.5 0 0 1 6,395.5 L6,252.5 A2.5,2.5 0 0 1 8.5,250" fill="none" style="stroke:#000000;stroke-width:1.5;"/><line style="stroke:#000000;stroke-width:1.5;" x1="6" x2="73.4141" y1="272.2969" y2="272.2969"/><text fill="#000000" font-family="sans-serif" font-size="14" font-weight="bold" lengthAdjust="spacing" textLength="54.4141" x="10" y="264.9951">Comun</text></g><!--cluster Gesti?n del Festival--><g class="cluster" data-entity="Gesti&#243;n del Festival" data-source-line="11" data-uid="ent0004" id="cluster_Gesti&#243;n del Festival"><path d="M196.5,6 L354.2139,6 A3.75,3.75 0 0 1 356.7139,8.5 L363.7139,28.2969 L732.5,28.2969 A2.5,2.5 0 0 1 735,30.7969 L735,539.5 A2.5,2.5 0 0 1 732.5,542 L196.5,542 A2.5,2.5 0 0 1 194,539.5 L194,8.5 A2.5,2.5 0 0 1 196.5,6" fill="none" style="stroke:#000000;stroke-width:1.5;"/><line style="stroke:#000000;stroke-width:1.5;" x1="194" x2="363.7139" y1="28.2969" y2="28.2969"/><text fill="#000000" font-family="sans-serif" font-size="14" font-weight="bold" lengthAdjust="spacing" textLength="156.7139" x="198" y="20.9951">Gesti&#243;n del Festival</text></g><!--cluster Participaci?n--><g class="cluster" data-entity="Participaci&#243;n" data-source-line="36" data-uid="ent0010" id="cluster_Participaci&#243;n"><path d="M18.5,653 L122.8525,653 A3.75,3.75 0 0 1 125.3525,655.5 L132.3525,675.2969 L197.5,675.2969 A2.5,2.5 0 0 1 200,677.7969 L200,782.5 A2.5,2.5 0 0 1 197.5,785 L18.5,785 A2.5,2.5 0 0 1 16,782.5 L16,655.5 A2.5,2.5 0 0 1 18.5,653" fill="none" style="stroke:#000000;stroke-width:1.5;"/><line style="stroke:#000000;stroke-width:1.5;" x1="16" x2="132.3525" y1="675.2969" y2="675.2969"/><text fill="#000000" font-family="sans-serif" font-size="14" font-weight="bold" lengthAdjust="spacing" textLength="103.3525" x="20" y="667.9951">Participaci&#243;n</text></g><!--cluster Proyecciones--><g class="cluster" data-entity="Proyecciones" data-source-line="44" data-uid="ent0012" id="cluster_Proyecciones"><path d="M35.5,834 L140.7139,834 A3.75,3.75 0 0 1 143.2139,836.5 L150.2139,856.2969 L258.5,856.2969 A2.5,2.5 0 0 1 261,858.7969 L261,1137.5 A2.5,2.5 0 0 1 258.5,1140 L35.5,1140 A2.5,2.5 0 0 1 33,1137.5 L33,836.5 A2.5,2.5 0 0 1 35.5,834" fill="none" style="stroke:#000000;stroke-width:1.5;"/><line style="stroke:#000000;stroke-width:1.5;" x1="33" x2="150.2139" y1="856.2969" y2="856.2969"/><text fill="#000000" font-family="sans-serif" font-size="14" font-weight="bold" lengthAdjust="spacing" textLength="104.2139" x="37" y="848.9951">Proyecciones</text></g><!--cluster Evaluaci?n--><g class="cluster" data-entity="Evaluaci&#243;n" data-source-line="57" data-uid="ent0015" id="cluster_Evaluaci&#243;n"><path d="M287.5,653 L373.5322,653 A3.75,3.75 0 0 1 376.0322,655.5 L383.0322,675.2969 L504.5,675.2969 A2.5,2.5 0 0 1 507,677.7969 L507,971.5 A2.5,2.5 0 0 1 504.5,974 L287.5,974 A2.5,2.5 0 0 1 285,971.5 L285,655.5 A2.5,2.5 0 0 1 287.5,653" fill="none" style="stroke:#000000;stroke-width:1.5;"/><line style="stroke:#000000;stroke-width:1.5;" x1="285" x2="383.0322" y1="675.2969" y2="675.2969"/><text fill="#000000" font-family="sans-serif" font-size="14" font-weight="bold" lengthAdjust="spacing" textLength="85.0322" x="289" y="667.9951">Evaluaci&#243;n</text></g><!--class Persona--><g class="entity" data-entity="Persona" data-source-line="3" data-uid="ent0003" id="entity_Persona"><rect fill="#F1F1F1" height="96.8906" rx="2.5" ry="2.5" style="stroke:#181818;stroke-width:0.5;" width="131.2803" x="22.5" y="285"/><ellipse cx="56.9208" cy="301" fill="#A9DCDF" rx="11" ry="11" style="stroke:#181818;stroke-width:1;"/><path d="M57.0301,296.3438 L55.8739,301.4219 L58.202,301.4219 L57.0301,296.3438 Z M55.5458,294.1094 L58.5301,294.1094 L61.8895,306.5 L59.4364,306.5 L58.6708,303.4375 L55.3895,303.4375 L54.6395,306.5 L52.202,306.5 L55.5458,294.1094 Z " fill="#000000"/><text fill="#000000" font-family="sans-serif" font-size="14" font-style="italic" lengthAdjust="spacing" textLength="56.123" x="75.2365" y="305.8467">Persona</text><line style="stroke:#181818;stroke-width:0.5;" x1="23.5" x2="152.7803" y1="317" y2="317"/><rect fill="none" height="6" style="stroke:#C82930;stroke-width:1;" width="6" x="30.5" y="327.6484"/><text fill="#000000" font-family="sans-serif" font-size="14" lengthAdjust="spacing" textLength="63.7246" x="42.5" y="333.9951">id: String</text><rect fill="none" height="6" style="stroke:#C82930;stroke-width:1;" width="6" x="30.5" y="343.9453"/><text fill="#000000" font-family="sans-serif" font-size="14" lengthAdjust="spacing" textLength="105.2803" x="42.5" y="350.292">nombre: String</text><rect fill="none" height="6" style="stroke:#C82930;stroke-width:1;" width="6" x="30.5" y="360.2422"/><text fill="#000000" font-family="sans-serif" font-size="14" lengthAdjust="spacing" textLength="89.5576" x="42.5" y="366.5889">email: String</text><line style="stroke:#181818;stroke-width:0.5;" x1="23.5" x2="152.7803" y1="373.8906" y2="373.8906"/></g><!--class IDirector--><g class="entity" data-entity="IDirector" data-source-line="12" data-uid="ent0005" id="entity_IDirector"><rect fill="#F1F1F1" height="64.2969" rx="2.5" ry="2.5" style="stroke:#181818;stroke-width:0.5;" width="196.3789" x="523" y="301.5"/><ellipse cx="586.6016" cy="317.5" fill="#B4A7E5" rx="11" ry="11" style="stroke:#181818;stroke-width:1;"/><path d="M582.5234,313.2656 L582.5234,311.1094 L589.9141,311.1094 L589.9141,313.2656 L587.4453,313.2656 L587.4453,321.3438 L589.9141,321.3438 L589.9141,323.5 L582.5234,323.5 L582.5234,321.3438 L584.9922,321.3438 L584.9922,313.2656 L582.5234,313.2656 Z " fill="#000000"/><text fill="#000000" font-family="sans-serif" font-size="14" font-style="italic" lengthAdjust="spacing" textLength="60.6758" x="607.1016" y="322.3467">IDirector</text><line style="stroke:#181818;stroke-width:0.5;" x1="524" x2="718.3789" y1="333.5" y2="333.5"/><line style="stroke:#181818;stroke-width:0.5;" x1="524" x2="718.3789" y1="341.5" y2="341.5"/><ellipse cx="534" cy="355.1484" fill="#84BE84" rx="3" ry="3" style="stroke:#038048;stroke-width:1;"/><text fill="#000000" font-family="sans-serif" font-size="14" lengthAdjust="spacing" textLength="170.3789" x="543" y="358.4951">coordinarFestival(): void</text></g><!--class Festival--><g class="entity" data-entity="Festival" data-source-line="16" data-uid="ent0006" id="entity_Festival"><rect fill="#F1F1F1" height="145.7813" rx="2.5" ry="2.5" style="stroke:#181818;stroke-width:0.5;" width="334.3418" x="284" y="41"/><ellipse cx="419.8745" cy="57" fill="#ADD1B2" rx="11" ry="11" style="stroke:#181818;stroke-width:1;"/><path d="M422.8433,62.6406 Q422.2651,62.9375 421.6245,63.0781 Q420.9839,63.2344 420.2808,63.2344 Q417.7808,63.2344 416.4526,61.5938 Q415.1401,59.9375 415.1401,56.8125 Q415.1401,53.6875 416.4526,52.0313 Q417.7808,50.375 420.2808,50.375 Q420.9839,50.375 421.6245,50.5313 Q422.2808,50.6875 422.8433,50.9844 L422.8433,53.7031 Q422.2183,53.125 421.6245,52.8594 Q421.0308,52.5781 420.4058,52.5781 Q419.062,52.5781 418.3745,53.6563 Q417.687,54.7188 417.687,56.8125 Q417.687,58.9063 418.3745,59.9844 Q419.062,61.0469 420.4058,61.0469 Q421.0308,61.0469 421.6245,60.7813 Q422.2183,60.5 422.8433,59.9219 L422.8433,62.6406 Z " fill="#000000"/><text fill="#000000" font-family="sans-serif" font-size="14" lengthAdjust="spacing" textLength="54.0928" x="440.3745" y="61.8467">Festival</text><line style="stroke:#181818;stroke-width:0.5;" x1="285" x2="617.3418" y1="73" y2="73"/><rect fill="none" height="6" style="stroke:#C82930;stroke-width:1;" width="6" x="292" y="83.6484"/><text fill="#000000" font-family="sans-serif" font-size="14" lengthAdjust="spacing" textLength="105.2803" x="304" y="89.9951">nombre: String</text><rect fill="none" height="6" style="stroke:#C82930;stroke-width:1;" width="6" x="292" y="99.9453"/><text fill="#000000" font-family="sans-serif" font-size="14" lengthAdjust="spacing" textLength="53.4365" x="304" y="106.292">a&#241;o: int</text><rect fill="none" height="6" style="stroke:#C82930;stroke-width:1;" width="6" x="292" y="116.2422"/><text fill="#000000" font-family="sans-serif" font-size="14" lengthAdjust="spacing" textLength="146.0156" x="304" y="122.5889">programa: Programa</text><rect fill="none" height="6" style="stroke:#C82930;stroke-width:1;" width="6" x="292" y="132.5391"/><text fill="#000000" font-family="sans-serif" font-size="14" lengthAdjust="spacing" textLength="124.4961" x="304" y="138.8857">director: IDirector</text><line style="stroke:#181818;stroke-width:0.5;" x1="285" x2="617.3418" y1="146.1875" y2="146.1875"/><ellipse cx="295" cy="159.8359" fill="#84BE84" rx="3" ry="3" style="stroke:#038048;stroke-width:1;"/><text fill="#000000" font-family="sans-serif" font-size="14" lengthAdjust="spacing" textLength="250.7148" x="304" y="163.1826">agregarSesion(sesion: Sesion): void</text><ellipse cx="295" cy="176.1328" fill="#84BE84" rx="3" ry="3" style="stroke:#038048;stroke-width:1;"/><text fill="#000000" font-family="sans-serif" font-size="14" lengthAdjust="spacing" textLength="308.3418" x="304" y="179.4795">agregarAsistente(asistente: Asistente): void</text></g><!--class Programa--><g class="entity" data-entity="Programa" data-source-line="25" data-uid="ent0007" id="entity_Programa"><rect fill="#F1F1F1" height="80.5938" rx="2.5" ry="2.5" style="stroke:#181818;stroke-width:0.5;" width="276.7148" x="210.5" y="293"/><ellipse cx="310.5063" cy="309" fill="#ADD1B2" rx="11" ry="11" style="stroke:#181818;stroke-width:1;"/><path d="M313.4751,314.6406 Q312.897,314.9375 312.2563,315.0781 Q311.6157,315.2344 310.9126,315.2344 Q308.4126,315.2344 307.0845,313.5938 Q305.772,311.9375 305.772,308.8125 Q305.772,305.6875 307.0845,304.0313 Q308.4126,302.375 310.9126,302.375 Q311.6157,302.375 312.2563,302.5313 Q312.9126,302.6875 313.4751,302.9844 L313.4751,305.7031 Q312.8501,305.125 312.2563,304.8594 Q311.6626,304.5781 311.0376,304.5781 Q309.6938,304.5781 309.0063,305.6563 Q308.3188,306.7188 308.3188,308.8125 Q308.3188,310.9063 309.0063,311.9844 Q309.6938,313.0469 311.0376,313.0469 Q311.6626,313.0469 312.2563,312.7813 Q312.8501,312.5 313.4751,311.9219 L313.4751,314.6406 Z " fill="#000000"/><text fill="#000000" font-family="sans-serif" font-size="14" lengthAdjust="spacing" textLength="68.2021" x="331.0063" y="313.8467">Programa</text><line style="stroke:#181818;stroke-width:0.5;" x1="211.5" x2="486.2148" y1="325" y2="325"/><rect fill="none" height="6" style="stroke:#C82930;stroke-width:1;" width="6" x="218.5" y="335.6484"/><text fill="#000000" font-family="sans-serif" font-size="14" lengthAdjust="spacing" textLength="163.6592" x="230.5" y="341.9951">sesiones: List&lt;Sesion&gt;</text><line style="stroke:#181818;stroke-width:0.5;" x1="211.5" x2="486.2148" y1="349.2969" y2="349.2969"/><ellipse cx="221.5" cy="362.9453" fill="#84BE84" rx="3" ry="3" style="stroke:#038048;stroke-width:1;"/><text fill="#000000" font-family="sans-serif" font-size="14" lengthAdjust="spacing" textLength="250.7148" x="230.5" y="366.292">agregarSesion(sesion: Sesion): void</text></g><!--class DirectorFestival--><g class="entity" data-entity="DirectorFestival" data-source-line="30" data-uid="ent0008" id="entity_DirectorFestival"><rect fill="#F1F1F1" height="80.5938" rx="2.5" ry="2.5" style="stroke:#181818;stroke-width:0.5;" width="196.3789" x="300" y="445"/><ellipse cx="339.1827" cy="461" fill="#ADD1B2" rx="11" ry="11" style="stroke:#181818;stroke-width:1;"/><path d="M342.1514,466.6406 Q341.5733,466.9375 340.9327,467.0781 Q340.292,467.2344 339.5889,467.2344 Q337.0889,467.2344 335.7608,465.5938 Q334.4483,463.9375 334.4483,460.8125 Q334.4483,457.6875 335.7608,456.0313 Q337.0889,454.375 339.5889,454.375 Q340.292,454.375 340.9327,454.5313 Q341.5889,454.6875 342.1514,454.9844 L342.1514,457.7031 Q341.5264,457.125 340.9327,456.8594 Q340.3389,456.5781 339.7139,456.5781 Q338.3702,456.5781 337.6827,457.6563 Q336.9952,458.7188 336.9952,460.8125 Q336.9952,462.9063 337.6827,463.9844 Q338.3702,465.0469 339.7139,465.0469 Q340.3389,465.0469 340.9327,464.7813 Q341.5264,464.5 342.1514,463.9219 L342.1514,466.6406 Z " fill="#000000"/><text fill="#000000" font-family="sans-serif" font-size="14" lengthAdjust="spacing" textLength="110.6396" x="358.5566" y="465.8467">DirectorFestival</text><line style="stroke:#181818;stroke-width:0.5;" x1="301" x2="495.3789" y1="477" y2="477"/><rect fill="none" height="6" style="stroke:#C82930;stroke-width:1;" width="6" x="308" y="487.6484"/><text fill="#000000" font-family="sans-serif" font-size="14" lengthAdjust="spacing" textLength="121.8574" x="320" y="493.9951">persona: Persona</text><line style="stroke:#181818;stroke-width:0.5;" x1="301" x2="495.3789" y1="501.2969" y2="501.2969"/><ellipse cx="311" cy="514.9453" fill="#84BE84" rx="3" ry="3" style="stroke:#038048;stroke-width:1;"/><text fill="#000000" font-family="sans-serif" font-size="14" lengthAdjust="spacing" textLength="170.3789" x="320" y="518.292">coordinarFestival(): void</text></g><!--class Asistente--><g class="entity" data-entity="Asistente" data-source-line="37" data-uid="ent0011" id="entity_Asistente"><rect fill="#F1F1F1" height="80.5938" rx="2.5" ry="2.5" style="stroke:#181818;stroke-width:0.5;" width="151.6445" x="32" y="688"/><ellipse cx="71.5303" cy="704" fill="#ADD1B2" rx="11" ry="11" style="stroke:#181818;stroke-width:1;"/><path d="M74.499,709.6406 Q73.9209,709.9375 73.2803,710.0781 Q72.6396,710.2344 71.9365,710.2344 Q69.4365,710.2344 68.1084,708.5938 Q66.7959,706.9375 66.7959,703.8125 Q66.7959,700.6875 68.1084,699.0313 Q69.4365,697.375 71.9365,697.375 Q72.6396,697.375 73.2803,697.5313 Q73.9365,697.6875 74.499,697.9844 L74.499,700.7031 Q73.874,700.125 73.2803,699.8594 Q72.6865,699.5781 72.0615,699.5781 Q70.7178,699.5781 70.0303,700.6563 Q69.3428,701.7188 69.3428,703.8125 Q69.3428,705.9063 70.0303,706.9844 Q70.7178,708.0469 72.0615,708.0469 Q72.6865,708.0469 73.2803,707.7813 Q73.874,707.5 74.499,706.9219 L74.499,709.6406 Z " fill="#000000"/><text fill="#000000" font-family="sans-serif" font-size="14" lengthAdjust="spacing" textLength="65.1328" x="90.9814" y="708.8467">Asistente</text><line style="stroke:#181818;stroke-width:0.5;" x1="33" x2="182.6445" y1="720" y2="720"/><rect fill="none" height="6" style="stroke:#C82930;stroke-width:1;" width="6" x="40" y="730.6484"/><text fill="#000000" font-family="sans-serif" font-size="14" lengthAdjust="spacing" textLength="121.8574" x="52" y="736.9951">persona: Persona</text><line style="stroke:#181818;stroke-width:0.5;" x1="33" x2="182.6445" y1="744.2969" y2="744.2969"/><ellipse cx="43" cy="757.9453" fill="#84BE84" rx="3" ry="3" style="stroke:#038048;stroke-width:1;"/><text fill="#000000" font-family="sans-serif" font-size="14" lengthAdjust="spacing" textLength="125.6445" x="52" y="761.292">registrarse(): void</text></g><!--class Sesion--><g class="entity" data-entity="Sesion" data-source-line="45" data-uid="ent0013" id="entity_Sesion"><rect fill="#F1F1F1" height="96.8906" rx="2.5" ry="2.5" style="stroke:#181818;stroke-width:0.5;" width="196.2422" x="49" y="869"/><ellipse cx="119.8101" cy="885" fill="#ADD1B2" rx="11" ry="11" style="stroke:#181818;stroke-width:1;"/><path d="M122.7788,890.6406 Q122.2007,890.9375 121.5601,891.0781 Q120.9194,891.2344 120.2163,891.2344 Q117.7163,891.2344 116.3882,889.5938 Q115.0757,887.9375 115.0757,884.8125 Q115.0757,881.6875 116.3882,880.0313 Q117.7163,878.375 120.2163,878.375 Q120.9194,878.375 121.5601,878.5313 Q122.2163,878.6875 122.7788,878.9844 L122.7788,881.7031 Q122.1538,881.125 121.5601,880.8594 Q120.9663,880.5781 120.3413,880.5781 Q118.9976,880.5781 118.3101,881.6563 Q117.6226,882.7188 117.6226,884.8125 Q117.6226,886.9063 118.3101,887.9844 Q118.9976,889.0469 120.3413,889.0469 Q120.9663,889.0469 121.5601,888.7813 Q122.1538,888.5 122.7788,887.9219 L122.7788,890.6406 Z " fill="#000000"/><text fill="#000000" font-family="sans-serif" font-size="14" lengthAdjust="spacing" textLength="46.1221" x="140.3101" y="889.8467">Sesion</text><line style="stroke:#181818;stroke-width:0.5;" x1="50" x2="244.2422" y1="901" y2="901"/><rect fill="none" height="6" style="stroke:#C82930;stroke-width:1;" width="6" x="57" y="911.6484"/><text fill="#000000" font-family="sans-serif" font-size="14" lengthAdjust="spacing" textLength="81.3203" x="69" y="917.9951">fecha: Date</text><rect fill="none" height="6" style="stroke:#C82930;stroke-width:1;" width="6" x="57" y="927.9453"/><text fill="#000000" font-family="sans-serif" font-size="14" lengthAdjust="spacing" textLength="117.3594" x="69" y="934.292">pelicula: Pelicula</text><line style="stroke:#181818;stroke-width:0.5;" x1="50" x2="244.2422" y1="941.5938" y2="941.5938"/><ellipse cx="60" cy="955.2422" fill="#84BE84" rx="3" ry="3" style="stroke:#038048;stroke-width:1;"/><text fill="#000000" font-family="sans-serif" font-size="14" lengthAdjust="spacing" textLength="170.2422" x="69" y="958.5889">programarSesion(): void</text></g><!--class Pelicula--><g class="entity" data-entity="Pelicula" data-source-line="51" data-uid="ent0014" id="entity_Pelicula"><rect fill="#F1F1F1" height="80.5938" rx="2.5" ry="2.5" style="stroke:#181818;stroke-width:0.5;" width="131.6016" x="105" y="1043"/><ellipse cx="140.5774" cy="1059" fill="#ADD1B2" rx="11" ry="11" style="stroke:#181818;stroke-width:1;"/><path d="M143.5461,1064.6406 Q142.968,1064.9375 142.3274,1065.0781 Q141.6868,1065.2344 140.9836,1065.2344 Q138.4836,1065.2344 137.1555,1063.5938 Q135.843,1061.9375 135.843,1058.8125 Q135.843,1055.6875 137.1555,1054.0313 Q138.4836,1052.375 140.9836,1052.375 Q141.6868,1052.375 142.3274,1052.5313 Q142.9836,1052.6875 143.5461,1052.9844 L143.5461,1055.7031 Q142.9211,1055.125 142.3274,1054.8594 Q141.7336,1054.5781 141.1086,1054.5781 Q139.7649,1054.5781 139.0774,1055.6563 Q138.3899,1056.7188 138.3899,1058.8125 Q138.3899,1060.9063 139.0774,1061.9844 Q139.7649,1063.0469 141.1086,1063.0469 Q141.7336,1063.0469 142.3274,1062.7813 Q142.9211,1062.5 143.5461,1061.9219 L143.5461,1064.6406 Z " fill="#000000"/><text fill="#000000" font-family="sans-serif" font-size="14" lengthAdjust="spacing" textLength="53.874" x="159.1501" y="1063.8467">Pelicula</text><line style="stroke:#181818;stroke-width:0.5;" x1="106" x2="235.6016" y1="1075" y2="1075"/><rect fill="none" height="6" style="stroke:#C82930;stroke-width:1;" width="6" x="113" y="1085.6484"/><text fill="#000000" font-family="sans-serif" font-size="14" lengthAdjust="spacing" textLength="87.1445" x="125" y="1091.9951">titulo: String</text><rect fill="none" height="6" style="stroke:#C82930;stroke-width:1;" width="6" x="113" y="1101.9453"/><text fill="#000000" font-family="sans-serif" font-size="14" lengthAdjust="spacing" textLength="105.6016" x="125" y="1108.292">director: String</text><line style="stroke:#181818;stroke-width:0.5;" x1="106" x2="235.6016" y1="1115.5938" y2="1115.5938"/></g><!--class Jurado--><g class="entity" data-entity="Jurado" data-source-line="58" data-uid="ent0016" id="entity_Jurado"><rect fill="#F1F1F1" height="80.5938" rx="2.5" ry="2.5" style="stroke:#181818;stroke-width:0.5;" width="189.4609" x="301.5" y="688"/><ellipse cx="369.5859" cy="704" fill="#ADD1B2" rx="11" ry="11" style="stroke:#181818;stroke-width:1;"/><path d="M372.5547,709.6406 Q371.9766,709.9375 371.3359,710.0781 Q370.6953,710.2344 369.9922,710.2344 Q367.4922,710.2344 366.1641,708.5938 Q364.8516,706.9375 364.8516,703.8125 Q364.8516,700.6875 366.1641,699.0313 Q367.4922,697.375 369.9922,697.375 Q370.6953,697.375 371.3359,697.5313 Q371.9922,697.6875 372.5547,697.9844 L372.5547,700.7031 Q371.9297,700.125 371.3359,699.8594 Q370.7422,699.5781 370.1172,699.5781 Q368.7734,699.5781 368.0859,700.6563 Q367.3984,701.7188 367.3984,703.8125 Q367.3984,705.9063 368.0859,706.9844 Q368.7734,708.0469 370.1172,708.0469 Q370.7422,708.0469 371.3359,707.7813 Q371.9297,707.5 372.5547,706.9219 L372.5547,709.6406 Z " fill="#000000"/><text fill="#000000" font-family="sans-serif" font-size="14" lengthAdjust="spacing" textLength="44.7891" x="390.0859" y="708.8467">Jurado</text><line style="stroke:#181818;stroke-width:0.5;" x1="302.5" x2="489.9609" y1="720" y2="720"/><rect fill="none" height="6" style="stroke:#C82930;stroke-width:1;" width="6" x="309.5" y="730.6484"/><text fill="#000000" font-family="sans-serif" font-size="14" lengthAdjust="spacing" textLength="121.8574" x="321.5" y="736.9951">persona: Persona</text><line style="stroke:#181818;stroke-width:0.5;" x1="302.5" x2="489.9609" y1="744.2969" y2="744.2969"/><ellipse cx="312.5" cy="757.9453" fill="#84BE84" rx="3" ry="3" style="stroke:#038048;stroke-width:1;"/><text fill="#000000" font-family="sans-serif" font-size="14" lengthAdjust="spacing" textLength="163.4609" x="321.5" y="761.292">evaluarPeliculas(): void</text></g><!--class Premio--><g class="entity" data-entity="Premio" data-source-line="63" data-uid="ent0017" id="entity_Premio"><rect fill="#F1F1F1" height="80.5938" rx="2.5" ry="2.5" style="stroke:#181818;stroke-width:0.5;" width="143.3594" x="312.5" y="877"/><ellipse cx="355.6048" cy="893" fill="#ADD1B2" rx="11" ry="11" style="stroke:#181818;stroke-width:1;"/><path d="M358.5735,898.6406 Q357.9954,898.9375 357.3548,899.0781 Q356.7142,899.2344 356.011,899.2344 Q353.511,899.2344 352.1829,897.5938 Q350.8704,895.9375 350.8704,892.8125 Q350.8704,889.6875 352.1829,888.0313 Q353.511,886.375 356.011,886.375 Q356.7142,886.375 357.3548,886.5313 Q358.011,886.6875 358.5735,886.9844 L358.5735,889.7031 Q357.9485,889.125 357.3548,888.8594 Q356.761,888.5781 356.136,888.5781 Q354.7923,888.5781 354.1048,889.6563 Q353.4173,890.7188 353.4173,892.8125 Q353.4173,894.9063 354.1048,895.9844 Q354.7923,897.0469 356.136,897.0469 Q356.761,897.0469 357.3548,896.7813 Q357.9485,896.5 358.5735,895.9219 L358.5735,898.6406 Z " fill="#000000"/><text fill="#000000" font-family="sans-serif" font-size="14" lengthAdjust="spacing" textLength="48.9043" x="375.8503" y="897.8467">Premio</text><line style="stroke:#181818;stroke-width:0.5;" x1="313.5" x2="454.8594" y1="909" y2="909"/><rect fill="none" height="6" style="stroke:#C82930;stroke-width:1;" width="6" x="320.5" y="919.6484"/><text fill="#000000" font-family="sans-serif" font-size="14" lengthAdjust="spacing" textLength="105.2803" x="332.5" y="925.9951">nombre: String</text><rect fill="none" height="6" style="stroke:#C82930;stroke-width:1;" width="6" x="320.5" y="935.9453"/><text fill="#000000" font-family="sans-serif" font-size="14" lengthAdjust="spacing" textLength="117.3594" x="332.5" y="942.292">pelicula: Pelicula</text><line style="stroke:#181818;stroke-width:0.5;" x1="313.5" x2="454.8594" y1="949.5938" y2="949.5938"/></g><!--reverse link IDirector to DirectorFestival--><g class="link" data-entity-1="IDirector" data-entity-2="DirectorFestival" data-source-line="31" data-uid="lnk9" id="link_IDirector_DirectorFestival"><path d="M559.8549,375.627 C525.6649,398.627 493.77,420.08 456.89,444.89" fill="none" id="IDirector-backto-DirectorFestival" style="stroke:#181818;stroke-width:1;stroke-dasharray:7.0,7.0;"/><polygon fill="none" points="574.79,365.58,556.5059,370.6486,563.2039,380.6054,574.79,365.58" style="stroke:#181818;stroke-width:1;"/></g><!--reverse link Festival to Programa--><g class="link" data-entity-1="Festival" data-entity-2="Programa" data-source-line="69" data-uid="lnk18" id="link_Festival_Programa"><path codeLine="69" d="M412.084,197.9842 C395.554,233.2242 381.4,263.42 367.57,292.89" fill="none" id="Festival-backto-Programa" style="stroke:#181818;stroke-width:1;"/><polygon fill="#181818" points="417.18,187.12,411.0106,190.8534,412.084,197.9842,418.2534,194.2508,417.18,187.12" style="stroke:#181818;stroke-width:1;"/><text fill="#000000" font-family="sans-serif" font-size="13" lengthAdjust="spacing" textLength="56.2847" x="404" y="230.0669">contiene</text></g><!--link Festival to IDirector--><g class="link" data-entity-1="Festival" data-entity-2="IDirector" data-source-line="70" data-uid="lnk19" id="link_Festival_IDirector"><path codeLine="70" d="M507.37,187.12 C537.62,225.83 569.6547,266.813 592.8647,296.503" fill="none" id="Festival-to-IDirector" style="stroke:#181818;stroke-width:1;"/><polygon fill="#181818" points="596.56,301.23,594.1684,291.6759,593.4806,297.2908,587.8657,296.603,596.56,301.23" style="stroke:#181818;stroke-width:1;"/><text fill="#000000" font-family="sans-serif" font-size="13" lengthAdjust="spacing" textLength="74.5723" x="542" y="230.0669">dirigido por</text></g><!--reverse link Programa to Sesion--><g class="link" data-entity-1="Programa" data-entity-2="Sesion" data-source-line="71" data-uid="lnk20" id="link_Programa_Sesion"><path codeLine="71" d="M294.4149,382.8538 C267.4249,410.6138 247,441.67 247,484.5 C247,484.5 247,484.5 247,729.5 C247,781.41 216.66,832.87 189.41,868.62" fill="none" id="Programa-backto-Sesion" style="stroke:#181818;stroke-width:1;"/><polygon fill="#181818" points="302.78,374.25,295.7295,375.7635,294.4149,382.8538,301.4654,381.3403,302.78,374.25" style="stroke:#181818;stroke-width:1;"/><text fill="#000000" font-family="sans-serif" font-size="13" lengthAdjust="spacing" textLength="46.0205" x="248" y="602.0669">agrupa</text></g><!--reverse link Sesion to Pelicula--><g class="link" data-entity-1="Sesion" data-entity-2="Pelicula" data-source-line="72" data-uid="lnk21" id="link_Sesion_Pelicula"><path codeLine="72" d="M155.7454,978.2539 C159.2954,1002.5439 161.83,1019.84 165.2,1042.86" fill="none" id="Sesion-backto-Pelicula" style="stroke:#181818;stroke-width:1;"/><polygon fill="none" points="154.01,966.38,150.9197,972.8954,155.7454,978.2539,158.8356,971.7385,154.01,966.38" style="stroke:#181818;stroke-width:1;"/><text fill="#000000" font-family="sans-serif" font-size="13" lengthAdjust="spacing" textLength="57.4526" x="161" y="1009.0669">proyecta</text></g><!--link Jurado to Premio--><g class="link" data-entity-1="Jurado" data-entity-2="Premio" data-source-line="73" data-uid="lnk22" id="link_Jurado_Premio"><path codeLine="73" d="M393.46,769.16 C391.42,800.89 388.9651,839.1924 386.9251,870.9124" fill="none" id="Jurado-to-Premio" style="stroke:#181818;stroke-width:1;"/><polygon fill="#181818" points="386.54,876.9,391.1094,868.1753,386.8609,871.9103,383.1259,867.6618,386.54,876.9" style="stroke:#181818;stroke-width:1;"/><text fill="#000000" font-family="sans-serif" font-size="13" lengthAdjust="spacing" textLength="43.4751" x="392" y="814.0669">evalua</text></g><!--link Premio to Pelicula--><g class="link" data-entity-1="Premio" data-entity-2="Pelicula" data-source-line="74" data-uid="lnk23" id="link_Premio_Pelicula"><path codeLine="74" d="M332.44,958.2 C299.07,983.89 260.5541,1013.5496 227.2141,1039.2196" fill="none" id="Premio-to-Pelicula" style="stroke:#181818;stroke-width:1;"/><polygon fill="#181818" points="222.46,1042.88,232.0314,1040.5588,226.4218,1039.8297,227.1509,1034.22,222.46,1042.88" style="stroke:#181818;stroke-width:1;"/><text fill="#000000" font-family="sans-serif" font-size="13" lengthAdjust="spacing" textLength="70.8716" x="278" y="1009.0669">otorgado a</text></g><!--link Asistente to Sesion--><g class="link" data-entity-1="Asistente" data-entity-2="Sesion" data-source-line="75" data-uid="lnk24" id="link_Asistente_Sesion"><path codeLine="75" d="M116.27,769.16 C122.35,798.32 129.4265,832.2061 135.8565,863.0761" fill="none" id="Asistente-to-Sesion" style="stroke:#181818;stroke-width:1;"/><polygon fill="#181818" points="137.08,868.95,139.1607,859.3234,136.0604,864.0551,131.3288,860.9548,137.08,868.95" style="stroke:#181818;stroke-width:1;"/><text fill="#000000" font-family="sans-serif" font-size="13" lengthAdjust="spacing" textLength="50.3179" x="127" y="814.0669">asiste a</text></g><!--reverse link Persona to DirectorFestival--><g class="link" data-entity-1="Persona" data-entity-2="DirectorFestival" data-source-line="77" data-uid="lnk25" id="link_Persona_DirectorFestival"><path codeLine="77" d="M168.6691,391.8997 C181.7391,400.4197 180.52,398.97 194,406 C227.4,423.41 265.57,439.11 299.78,451.82" fill="none" id="Persona-backto-DirectorFestival" style="stroke:#181818;stroke-width:1;"/><polygon fill="none" points="153.59,382.07,165.3925,396.926,171.9456,386.8733,153.59,382.07" style="stroke:#181818;stroke-width:1;"/></g><!--reverse link Persona to Asistente--><g class="link" data-entity-1="Persona" data-entity-2="Asistente" data-source-line="78" data-uid="lnk26" id="link_Persona_Asistente"><path codeLine="78" d="M91.3456,400.2767 C95.3356,478.6167 102.27,614.94 105.98,687.72" fill="none" id="Persona-backto-Asistente" style="stroke:#181818;stroke-width:1;"/><polygon fill="none" points="90.43,382.3,85.3534,400.5819,97.3378,399.9715,90.43,382.3" style="stroke:#181818;stroke-width:1;"/></g><!--reverse link Persona to Jurado--><g class="link" data-entity-1="Persona" data-entity-2="Jurado" data-source-line="79" data-uid="lnk27" id="link_Persona_Jurado"><path codeLine="79" d="M113.2088,399.0408 C141.9188,472.0308 188.7,588.02 204,606 C232.89,639.94 273.69,667.59 310.25,687.89" fill="none" id="Persona-backto-Jurado" style="stroke:#181818;stroke-width:1;"/><polygon fill="none" points="106.62,382.29,107.6252,401.237,118.7924,396.8445,106.62,382.29" style="stroke:#181818;stroke-width:1;"/></g><!--link DirectorFestival to Jurado--><g class="link" data-entity-1="DirectorFestival" data-entity-2="Jurado" data-source-line="80" data-uid="lnk28" id="link_DirectorFestival_Jurado"><path codeLine="80" d="M397.67,526.03 C397.3,570.76 396.7496,637.2102 396.3796,681.9502" fill="none" id="DirectorFestival-to-Jurado" style="stroke:#181818;stroke-width:1;stroke-dasharray:7.0,7.0;"/><polygon fill="#181818" points="396.33,687.95,400.4043,678.9834,396.3713,682.9502,392.4046,678.9172,396.33,687.95" style="stroke:#181818;stroke-width:1;"/></g><!--SRC=[bLHHZjGm3FtFAQpzOG1r3X2jHa8i810V8-q9lActMBH9ITALqB27GXnXBqRI9asxsq53VvBOSVpy_DmUrNTi2AxUcsxGLt0I0iA7TyvRL1vKYyx1aQmp6a-ZBtuLS2tXrblMpSAeJNTdQSD17NAxiZ-AHo5UmH5_3EG9Ff7p_FH7GqqjV8o71sn5dz5jkYFQ-1HhJ_OU5S7d6xQalB5GeBvLnjYQDTeSjtijuS5mdN2CorHdlW6dIuh2fzz6nkmBMszDOx532SUqMpZhX4uMe0KcDfOQjBVasEYT6vUGT5oNW9UNtpbsdaBvEymx2RFnR9aPsghCAICv2Lz3_FMK-F3_-5QPSfapiTprBNK1dTjiLY1mafhCchkyZo7nh9SZMi-Ampcg9WjbmZJpSs7UK3R7QR2ENcOi2Wwa_YIbHWuNG1RMDOo9kHM6UrBV0e8RzBH2rh8QsX7Qj2lOijnoMywtF8MkyddsGsisb5s4-dnYvy8-X0OCM_H-6IpMva9kQNp5PdJk7mLOwjXSDfXd61iBc9NufghA84XGHdicJUL2LHqM6fMH56uubDQ7iPqZupEfbHB2Z0mzYdGsCKFcNSPVGv22Hv4OYk-dgYHCH028P1cT9TO424qCGb7a6- -KrACP48H8BCFrhm3W-GIklVDZQ_E4KBoOtlr-VqZElm00]--></g></svg>