<svg xmlns="http://www.w3.org/2000/svg" xmlns:xlink="http://www.w3.org/1999/xlink" contentStyleType="text/css" data-diagram-type="CLASS" height="716px" preserveAspectRatio="none" style="width:1196px;height:716px;background:#FFFFFF;" version="1.1" viewBox="0 0 1196 716" width="1196px" zoomAndPan="magnify"><defs/><g><!--cluster Comun--><g class="cluster" data-entity="Comun" data-source-line="1" data-uid="ent0002" id="cluster_Comun"><path d="M677.5,14 L732.9141,14 A3.75,3.75 0 0 1 735.4141,16.5 L742.4141,36.2969 L836.5,36.2969 A2.5,2.5 0 0 1 839,38.7969 L839,159.5 A2.5,2.5 0 0 1 836.5,162 L677.5,162 A2.5,2.5 0 0 1 675,159.5 L675,16.5 A2.5,2.5 0 0 1 677.5,14" fill="none" style="stroke:#000000;stroke-width:1.5;"/><line style="stroke:#000000;stroke-width:1.5;" x1="675" x2="742.4141" y1="36.2969" y2="36.2969"/><text fill="#000000" font-family="sans-serif" font-size="14" font-weight="bold" lengthAdjust="spacing" textLength="54.4141" x="679" y="28.9951">Comun</text></g><!--cluster Gesti?n del Festival--><g class="cluster" data-entity="Gesti&#243;n del Festival" data-source-line="11" data-uid="ent0004" id="cluster_Gesti&#243;n del Festival"><path d="M8.5,6 L166.2139,6 A3.75,3.75 0 0 1 168.7139,8.5 L175.7139,28.2969 L544.5,28.2969 A2.5,2.5 0 0 1 547,30.7969 L547,524.5 A2.5,2.5 0 0 1 544.5,527 L8.5,527 A2.5,2.5 0 0 1 6,524.5 L6,8.5 A2.5,2.5 0 0 1 8.5,6" fill="none" style="stroke:#000000;stroke-width:1.5;"/><line style="stroke:#000000;stroke-width:1.5;" x1="6" x2="175.7139" y1="28.2969" y2="28.2969"/><text fill="#000000" font-family="sans-serif" font-size="14" font-weight="bold" lengthAdjust="spacing" textLength="156.7139" x="10" y="20.9951">Gesti&#243;n del Festival</text></g><!--cluster Participaci?n--><g class="cluster" data-entity="Participaci&#243;n" data-source-line="33" data-uid="ent0010" id="cluster_Participaci&#243;n"><path d="M684.5,217 L788.8525,217 A3.75,3.75 0 0 1 791.3525,219.5 L798.3525,239.2969 L829.5,239.2969 A2.5,2.5 0 0 1 832,241.7969 L832,329.5 A2.5,2.5 0 0 1 829.5,332 L684.5,332 A2.5,2.5 0 0 1 682,329.5 L682,219.5 A2.5,2.5 0 0 1 684.5,217" fill="none" style="stroke:#000000;stroke-width:1.5;"/><line style="stroke:#000000;stroke-width:1.5;" x1="682" x2="798.3525" y1="239.2969" y2="239.2969"/><text fill="#000000" font-family="sans-serif" font-size="14" font-weight="bold" lengthAdjust="spacing" textLength="103.3525" x="686" y="231.9951">Participaci&#243;n</text></g><!--cluster Proyecciones--><g class="cluster" data-entity="Proyecciones" data-source-line="40" data-uid="ent0012" id="cluster_Proyecciones"><path d="M573.5,387.5 L678.7139,387.5 A3.75,3.75 0 0 1 681.2139,390 L688.2139,409.7969 L940.5,409.7969 A2.5,2.5 0 0 1 943,412.2969 L943,707 A2.5,2.5 0 0 1 940.5,709.5 L573.5,709.5 A2.5,2.5 0 0 1 571,707 L571,390 A2.5,2.5 0 0 1 573.5,387.5" fill="none" style="stroke:#000000;stroke-width:1.5;"/><line style="stroke:#000000;stroke-width:1.5;" x1="571" x2="688.2139" y1="409.7969" y2="409.7969"/><text fill="#000000" font-family="sans-serif" font-size="14" font-weight="bold" lengthAdjust="spacing" textLength="104.2139" x="575" y="402.4951">Proyecciones</text></g><!--cluster Evaluaci?n--><g class="cluster" data-entity="Evaluaci&#243;n" data-source-line="55" data-uid="ent0015" id="cluster_Evaluaci&#243;n"><path d="M969.5,217 L1055.5322,217 A3.75,3.75 0 0 1 1058.0322,219.5 L1065.0322,239.2969 L1186.5,239.2969 A2.5,2.5 0 0 1 1189,241.7969 L1189,524.5 A2.5,2.5 0 0 1 1186.5,527 L969.5,527 A2.5,2.5 0 0 1 967,524.5 L967,219.5 A2.5,2.5 0 0 1 969.5,217" fill="none" style="stroke:#000000;stroke-width:1.5;"/><line style="stroke:#000000;stroke-width:1.5;" x1="967" x2="1065.0322" y1="239.2969" y2="239.2969"/><text fill="#000000" font-family="sans-serif" font-size="14" font-weight="bold" lengthAdjust="spacing" textLength="85.0322" x="971" y="231.9951">Evaluaci&#243;n</text></g><!--class Persona--><g class="entity" data-entity="Persona" data-source-line="3" data-uid="ent0003" id="entity_Persona"><rect fill="#F1F1F1" height="96.8906" rx="2.5" ry="2.5" style="stroke:#181818;stroke-width:0.5;" width="131.2803" x="691.5" y="49"/><ellipse cx="725.9208" cy="65" fill="#A9DCDF" rx="11" ry="11" style="stroke:#181818;stroke-width:1;"/><path d="M726.0301,60.3438 L724.8739,65.4219 L727.202,65.4219 L726.0301,60.3438 Z M724.5458,58.1094 L727.5301,58.1094 L730.8895,70.5 L728.4364,70.5 L727.6708,67.4375 L724.3895,67.4375 L723.6395,70.5 L721.202,70.5 L724.5458,58.1094 Z " fill="#000000"/><text fill="#000000" font-family="sans-serif" font-size="14" font-style="italic" lengthAdjust="spacing" textLength="56.123" x="744.2365" y="69.8467">Persona</text><line style="stroke:#181818;stroke-width:0.5;" x1="692.5" x2="821.7803" y1="81" y2="81"/><rect fill="none" height="6" style="stroke:#C82930;stroke-width:1;" width="6" x="699.5" y="91.6484"/><text fill="#000000" font-family="sans-serif" font-size="14" lengthAdjust="spacing" textLength="63.7246" x="711.5" y="97.9951">id: String</text><rect fill="none" height="6" style="stroke:#C82930;stroke-width:1;" width="6" x="699.5" y="107.9453"/><text fill="#000000" font-family="sans-serif" font-size="14" lengthAdjust="spacing" textLength="105.2803" x="711.5" y="114.292">nombre: String</text><rect fill="none" height="6" style="stroke:#C82930;stroke-width:1;" width="6" x="699.5" y="124.2422"/><text fill="#000000" font-family="sans-serif" font-size="14" lengthAdjust="spacing" textLength="89.5576" x="711.5" y="130.5889">email: String</text><line style="stroke:#181818;stroke-width:0.5;" x1="692.5" x2="821.7803" y1="137.8906" y2="137.8906"/></g><!--class IDirector--><g class="entity" data-entity="IDirector" data-source-line="12" data-uid="ent0005" id="entity_IDirector"><rect fill="#F1F1F1" height="64.2969" rx="2.5" ry="2.5" style="stroke:#181818;stroke-width:0.5;" width="196.3789" x="22" y="252"/><ellipse cx="85.6016" cy="268" fill="#B4A7E5" rx="11" ry="11" style="stroke:#181818;stroke-width:1;"/><path d="M81.5234,263.7656 L81.5234,261.6094 L88.9141,261.6094 L88.9141,263.7656 L86.4453,263.7656 L86.4453,271.8438 L88.9141,271.8438 L88.9141,274 L81.5234,274 L81.5234,271.8438 L83.9922,271.8438 L83.9922,263.7656 L81.5234,263.7656 Z " fill="#000000"/><text fill="#000000" font-family="sans-serif" font-size="14" font-style="italic" lengthAdjust="spacing" textLength="60.6758" x="106.1016" y="272.8467">IDirector</text><line style="stroke:#181818;stroke-width:0.5;" x1="23" x2="217.3789" y1="284" y2="284"/><line style="stroke:#181818;stroke-width:0.5;" x1="23" x2="217.3789" y1="292" y2="292"/><ellipse cx="33" cy="305.6484" fill="#84BE84" rx="3" ry="3" style="stroke:#038048;stroke-width:1;"/><text fill="#000000" font-family="sans-serif" font-size="14" lengthAdjust="spacing" textLength="170.3789" x="42" y="308.9951">coordinarFestival(): void</text></g><!--class Festival--><g class="entity" data-entity="Festival" data-source-line="16" data-uid="ent0006" id="entity_Festival"><rect fill="#F1F1F1" height="113.1875" rx="2.5" ry="2.5" style="stroke:#181818;stroke-width:0.5;" width="144.3643" x="218" y="41"/><ellipse cx="259.2222" cy="57" fill="#ADD1B2" rx="11" ry="11" style="stroke:#181818;stroke-width:1;"/><path d="M262.1909,62.6406 Q261.6128,62.9375 260.9722,63.0781 Q260.3315,63.2344 259.6284,63.2344 Q257.1284,63.2344 255.8003,61.5938 Q254.4878,59.9375 254.4878,56.8125 Q254.4878,53.6875 255.8003,52.0313 Q257.1284,50.375 259.6284,50.375 Q260.3315,50.375 260.9722,50.5313 Q261.6284,50.6875 262.1909,50.9844 L262.1909,53.7031 Q261.5659,53.125 260.9722,52.8594 Q260.3784,52.5781 259.7534,52.5781 Q258.4097,52.5781 257.7222,53.6563 Q257.0347,54.7188 257.0347,56.8125 Q257.0347,58.9063 257.7222,59.9844 Q258.4097,61.0469 259.7534,61.0469 Q260.3784,61.0469 260.9722,60.7813 Q261.5659,60.5 262.1909,59.9219 L262.1909,62.6406 Z " fill="#000000"/><text fill="#000000" font-family="sans-serif" font-size="14" lengthAdjust="spacing" textLength="54.0928" x="279.0493" y="61.8467">Festival</text><line style="stroke:#181818;stroke-width:0.5;" x1="219" x2="361.3643" y1="73" y2="73"/><rect fill="none" height="6" style="stroke:#C82930;stroke-width:1;" width="6" x="226" y="83.6484"/><text fill="#000000" font-family="sans-serif" font-size="14" lengthAdjust="spacing" textLength="105.2803" x="238" y="89.9951">nombre: String</text><rect fill="none" height="6" style="stroke:#C82930;stroke-width:1;" width="6" x="226" y="99.9453"/><text fill="#000000" font-family="sans-serif" font-size="14" lengthAdjust="spacing" textLength="86.9326" x="238" y="106.292">lugar: String</text><rect fill="none" height="6" style="stroke:#C82930;stroke-width:1;" width="6" x="226" y="116.2422"/><text fill="#000000" font-family="sans-serif" font-size="14" lengthAdjust="spacing" textLength="118.3643" x="238" y="122.5889">fechaInicio: Date</text><rect fill="none" height="6" style="stroke:#C82930;stroke-width:1;" width="6" x="226" y="132.5391"/><text fill="#000000" font-family="sans-serif" font-size="14" lengthAdjust="spacing" textLength="102.1357" x="238" y="138.8857">fechaFin: Date</text><line style="stroke:#181818;stroke-width:0.5;" x1="219" x2="361.3643" y1="146.1875" y2="146.1875"/></g><!--class Programa--><g class="entity" data-entity="Programa" data-source-line="23" data-uid="ent0007" id="entity_Programa"><rect fill="#F1F1F1" height="80.5938" rx="2.5" ry="2.5" style="stroke:#181818;stroke-width:0.5;" width="276.7148" x="253.5" y="243.5"/><ellipse cx="353.5063" cy="259.5" fill="#ADD1B2" rx="11" ry="11" style="stroke:#181818;stroke-width:1;"/><path d="M356.4751,265.1406 Q355.897,265.4375 355.2563,265.5781 Q354.6157,265.7344 353.9126,265.7344 Q351.4126,265.7344 350.0845,264.0938 Q348.772,262.4375 348.772,259.3125 Q348.772,256.1875 350.0845,254.5313 Q351.4126,252.875 353.9126,252.875 Q354.6157,252.875 355.2563,253.0313 Q355.9126,253.1875 356.4751,253.4844 L356.4751,256.2031 Q355.8501,255.625 355.2563,255.3594 Q354.6626,255.0781 354.0376,255.0781 Q352.6938,255.0781 352.0063,256.1563 Q351.3188,257.2188 351.3188,259.3125 Q351.3188,261.4063 352.0063,262.4844 Q352.6938,263.5469 354.0376,263.5469 Q354.6626,263.5469 355.2563,263.2813 Q355.8501,263 356.4751,262.4219 L356.4751,265.1406 Z " fill="#000000"/><text fill="#000000" font-family="sans-serif" font-size="14" lengthAdjust="spacing" textLength="68.2021" x="374.0063" y="264.3467">Programa</text><line style="stroke:#181818;stroke-width:0.5;" x1="254.5" x2="529.2148" y1="275.5" y2="275.5"/><rect fill="none" height="6" style="stroke:#C82930;stroke-width:1;" width="6" x="261.5" y="286.1484"/><text fill="#000000" font-family="sans-serif" font-size="14" lengthAdjust="spacing" textLength="163.6592" x="273.5" y="292.4951">sesiones: List&lt;Sesion&gt;</text><line style="stroke:#181818;stroke-width:0.5;" x1="254.5" x2="529.2148" y1="299.7969" y2="299.7969"/><ellipse cx="264.5" cy="313.4453" fill="#84BE84" rx="3" ry="3" style="stroke:#038048;stroke-width:1;"/><text fill="#000000" font-family="sans-serif" font-size="14" lengthAdjust="spacing" textLength="250.7148" x="273.5" y="316.792">agregarSesion(sesion: Sesion): void</text></g><!--class DirectorFestival--><g class="entity" data-entity="DirectorFestival" data-source-line="28" data-uid="ent0008" id="entity_DirectorFestival"><rect fill="#F1F1F1" height="64.2969" rx="2.5" ry="2.5" style="stroke:#181818;stroke-width:0.5;" width="196.3789" x="256" y="447"/><ellipse cx="295.1827" cy="463" fill="#ADD1B2" rx="11" ry="11" style="stroke:#181818;stroke-width:1;"/><path d="M298.1514,468.6406 Q297.5733,468.9375 296.9327,469.0781 Q296.292,469.2344 295.5889,469.2344 Q293.0889,469.2344 291.7608,467.5938 Q290.4483,465.9375 290.4483,462.8125 Q290.4483,459.6875 291.7608,458.0313 Q293.0889,456.375 295.5889,456.375 Q296.292,456.375 296.9327,456.5313 Q297.5889,456.6875 298.1514,456.9844 L298.1514,459.7031 Q297.5264,459.125 296.9327,458.8594 Q296.3389,458.5781 295.7139,458.5781 Q294.3702,458.5781 293.6827,459.6563 Q292.9952,460.7188 292.9952,462.8125 Q292.9952,464.9063 293.6827,465.9844 Q294.3702,467.0469 295.7139,467.0469 Q296.3389,467.0469 296.9327,466.7813 Q297.5264,466.5 298.1514,465.9219 L298.1514,468.6406 Z " fill="#000000"/><text fill="#000000" font-family="sans-serif" font-size="14" lengthAdjust="spacing" textLength="110.6396" x="314.5566" y="467.8467">DirectorFestival</text><line style="stroke:#181818;stroke-width:0.5;" x1="257" x2="451.3789" y1="479" y2="479"/><line style="stroke:#181818;stroke-width:0.5;" x1="257" x2="451.3789" y1="487" y2="487"/><ellipse cx="267" cy="500.6484" fill="#84BE84" rx="3" ry="3" style="stroke:#038048;stroke-width:1;"/><text fill="#000000" font-family="sans-serif" font-size="14" lengthAdjust="spacing" textLength="170.3789" x="276" y="503.9951">coordinarFestival(): void</text></g><!--class Asistente--><g class="entity" data-entity="Asistente" data-source-line="34" data-uid="ent0011" id="entity_Asistente"><rect fill="#F1F1F1" height="64.2969" rx="2.5" ry="2.5" style="stroke:#181818;stroke-width:0.5;" width="117.9092" x="698" y="252"/><ellipse cx="722.3494" cy="268" fill="#ADD1B2" rx="11" ry="11" style="stroke:#181818;stroke-width:1;"/><path d="M725.3181,273.6406 Q724.74,273.9375 724.0994,274.0781 Q723.4587,274.2344 722.7556,274.2344 Q720.2556,274.2344 718.9275,272.5938 Q717.615,270.9375 717.615,267.8125 Q717.615,264.6875 718.9275,263.0313 Q720.2556,261.375 722.7556,261.375 Q723.4587,261.375 724.0994,261.5313 Q724.7556,261.6875 725.3181,261.9844 L725.3181,264.7031 Q724.6931,264.125 724.0994,263.8594 Q723.5056,263.5781 722.8806,263.5781 Q721.5369,263.5781 720.8494,264.6563 Q720.1619,265.7188 720.1619,267.8125 Q720.1619,269.9063 720.8494,270.9844 Q721.5369,272.0469 722.8806,272.0469 Q723.5056,272.0469 724.0994,271.7813 Q724.6931,271.5 725.3181,270.9219 L725.3181,273.6406 Z " fill="#000000"/><text fill="#000000" font-family="sans-serif" font-size="14" lengthAdjust="spacing" textLength="65.1328" x="738.427" y="272.8467">Asistente</text><line style="stroke:#181818;stroke-width:0.5;" x1="699" x2="814.9092" y1="284" y2="284"/><line style="stroke:#181818;stroke-width:0.5;" x1="699" x2="814.9092" y1="292" y2="292"/><ellipse cx="709" cy="305.6484" fill="#84BE84" rx="3" ry="3" style="stroke:#038048;stroke-width:1;"/><text fill="#000000" font-family="sans-serif" font-size="14" lengthAdjust="spacing" textLength="91.9092" x="718" y="308.9951">asistir(): void</text></g><!--class Sesion--><g class="entity" data-entity="Sesion" data-source-line="41" data-uid="ent0013" id="entity_Sesion"><rect fill="#F1F1F1" height="113.1875" rx="2.5" ry="2.5" style="stroke:#181818;stroke-width:0.5;" width="338.792" x="587.5" y="422.5"/><ellipse cx="729.585" cy="438.5" fill="#ADD1B2" rx="11" ry="11" style="stroke:#181818;stroke-width:1;"/><path d="M732.5537,444.1406 Q731.9756,444.4375 731.335,444.5781 Q730.6943,444.7344 729.9912,444.7344 Q727.4912,444.7344 726.1631,443.0938 Q724.8506,441.4375 724.8506,438.3125 Q724.8506,435.1875 726.1631,433.5313 Q727.4912,431.875 729.9912,431.875 Q730.6943,431.875 731.335,432.0313 Q731.9912,432.1875 732.5537,432.4844 L732.5537,435.2031 Q731.9287,434.625 731.335,434.3594 Q730.7412,434.0781 730.1162,434.0781 Q728.7725,434.0781 728.085,435.1563 Q727.3975,436.2188 727.3975,438.3125 Q727.3975,440.4063 728.085,441.4844 Q728.7725,442.5469 730.1162,442.5469 Q730.7412,442.5469 731.335,442.2813 Q731.9287,442 732.5537,441.4219 L732.5537,444.1406 Z " fill="#000000"/><text fill="#000000" font-family="sans-serif" font-size="14" lengthAdjust="spacing" textLength="46.1221" x="750.085" y="443.3467">Sesion</text><line style="stroke:#181818;stroke-width:0.5;" x1="588.5" x2="925.292" y1="454.5" y2="454.5"/><rect fill="none" height="6" style="stroke:#C82930;stroke-width:1;" width="6" x="595.5" y="465.1484"/><text fill="#000000" font-family="sans-serif" font-size="14" lengthAdjust="spacing" textLength="81.3203" x="607.5" y="471.4951">fecha: Date</text><rect fill="none" height="6" style="stroke:#C82930;stroke-width:1;" width="6" x="595.5" y="481.4453"/><text fill="#000000" font-family="sans-serif" font-size="14" lengthAdjust="spacing" textLength="193.6621" x="607.5" y="487.792">asistentes: List&lt;Asistente&gt;</text><line style="stroke:#181818;stroke-width:0.5;" x1="588.5" x2="925.292" y1="495.0938" y2="495.0938"/><ellipse cx="598.5" cy="508.7422" fill="#84BE84" rx="3" ry="3" style="stroke:#038048;stroke-width:1;"/><text fill="#000000" font-family="sans-serif" font-size="14" lengthAdjust="spacing" textLength="170.2422" x="607.5" y="512.0889">programarSesion(): void</text><ellipse cx="598.5" cy="525.0391" fill="#84BE84" rx="3" ry="3" style="stroke:#038048;stroke-width:1;"/><text fill="#000000" font-family="sans-serif" font-size="14" lengthAdjust="spacing" textLength="312.792" x="607.5" y="528.3857">agregarAsistente(asistente : Asistente): void</text></g><!--class Pelicula--><g class="entity" data-entity="Pelicula" data-source-line="49" data-uid="ent0014" id="entity_Pelicula"><rect fill="#F1F1F1" height="80.5938" rx="2.5" ry="2.5" style="stroke:#181818;stroke-width:0.5;" width="131.6016" x="767" y="612.5"/><ellipse cx="802.5774" cy="628.5" fill="#ADD1B2" rx="11" ry="11" style="stroke:#181818;stroke-width:1;"/><path d="M805.5461,634.1406 Q804.968,634.4375 804.3274,634.5781 Q803.6868,634.7344 802.9836,634.7344 Q800.4836,634.7344 799.1555,633.0938 Q797.843,631.4375 797.843,628.3125 Q797.843,625.1875 799.1555,623.5313 Q800.4836,621.875 802.9836,621.875 Q803.6868,621.875 804.3274,622.0313 Q804.9836,622.1875 805.5461,622.4844 L805.5461,625.2031 Q804.9211,624.625 804.3274,624.3594 Q803.7336,624.0781 803.1086,624.0781 Q801.7649,624.0781 801.0774,625.1563 Q800.3899,626.2188 800.3899,628.3125 Q800.3899,630.4063 801.0774,631.4844 Q801.7649,632.5469 803.1086,632.5469 Q803.7336,632.5469 804.3274,632.2813 Q804.9211,632 805.5461,631.4219 L805.5461,634.1406 Z " fill="#000000"/><text fill="#000000" font-family="sans-serif" font-size="14" lengthAdjust="spacing" textLength="53.874" x="821.1501" y="633.3467">Pelicula</text><line style="stroke:#181818;stroke-width:0.5;" x1="768" x2="897.6016" y1="644.5" y2="644.5"/><rect fill="none" height="6" style="stroke:#C82930;stroke-width:1;" width="6" x="775" y="655.1484"/><text fill="#000000" font-family="sans-serif" font-size="14" lengthAdjust="spacing" textLength="87.1445" x="787" y="661.4951">titulo: String</text><rect fill="none" height="6" style="stroke:#C82930;stroke-width:1;" width="6" x="775" y="671.4453"/><text fill="#000000" font-family="sans-serif" font-size="14" lengthAdjust="spacing" textLength="105.6016" x="787" y="677.792">director: String</text><line style="stroke:#181818;stroke-width:0.5;" x1="768" x2="897.6016" y1="685.0938" y2="685.0938"/></g><!--class Jurado--><g class="entity" data-entity="Jurado" data-source-line="56" data-uid="ent0016" id="entity_Jurado"><rect fill="#F1F1F1" height="64.2969" rx="2.5" ry="2.5" style="stroke:#181818;stroke-width:0.5;" width="189.4609" x="983.5" y="252"/><ellipse cx="1051.5859" cy="268" fill="#ADD1B2" rx="11" ry="11" style="stroke:#181818;stroke-width:1;"/><path d="M1054.5547,273.6406 Q1053.9766,273.9375 1053.3359,274.0781 Q1052.6953,274.2344 1051.9922,274.2344 Q1049.4922,274.2344 1048.1641,272.5938 Q1046.8516,270.9375 1046.8516,267.8125 Q1046.8516,264.6875 1048.1641,263.0313 Q1049.4922,261.375 1051.9922,261.375 Q1052.6953,261.375 1053.3359,261.5313 Q1053.9922,261.6875 1054.5547,261.9844 L1054.5547,264.7031 Q1053.9297,264.125 1053.3359,263.8594 Q1052.7422,263.5781 1052.1172,263.5781 Q1050.7734,263.5781 1050.0859,264.6563 Q1049.3984,265.7188 1049.3984,267.8125 Q1049.3984,269.9063 1050.0859,270.9844 Q1050.7734,272.0469 1052.1172,272.0469 Q1052.7422,272.0469 1053.3359,271.7813 Q1053.9297,271.5 1054.5547,270.9219 L1054.5547,273.6406 Z " fill="#000000"/><text fill="#000000" font-family="sans-serif" font-size="14" lengthAdjust="spacing" textLength="44.7891" x="1072.0859" y="272.8467">Jurado</text><line style="stroke:#181818;stroke-width:0.5;" x1="984.5" x2="1171.9609" y1="284" y2="284"/><line style="stroke:#181818;stroke-width:0.5;" x1="984.5" x2="1171.9609" y1="292" y2="292"/><ellipse cx="994.5" cy="305.6484" fill="#84BE84" rx="3" ry="3" style="stroke:#038048;stroke-width:1;"/><text fill="#000000" font-family="sans-serif" font-size="14" lengthAdjust="spacing" textLength="163.4609" x="1003.5" y="308.9951">evaluarPeliculas(): void</text></g><!--class Premio--><g class="entity" data-entity="Premio" data-source-line="60" data-uid="ent0017" id="entity_Premio"><rect fill="#F1F1F1" height="64.2969" rx="2.5" ry="2.5" style="stroke:#181818;stroke-width:0.5;" width="131.2803" x="997.5" y="447"/><ellipse cx="1035.1692" cy="463" fill="#ADD1B2" rx="11" ry="11" style="stroke:#181818;stroke-width:1;"/><path d="M1038.1379,468.6406 Q1037.5598,468.9375 1036.9192,469.0781 Q1036.2786,469.2344 1035.5754,469.2344 Q1033.0754,469.2344 1031.7473,467.5938 Q1030.4348,465.9375 1030.4348,462.8125 Q1030.4348,459.6875 1031.7473,458.0313 Q1033.0754,456.375 1035.5754,456.375 Q1036.2786,456.375 1036.9192,456.5313 Q1037.5754,456.6875 1038.1379,456.9844 L1038.1379,459.7031 Q1037.5129,459.125 1036.9192,458.8594 Q1036.3254,458.5781 1035.7004,458.5781 Q1034.3567,458.5781 1033.6692,459.6563 Q1032.9817,460.7188 1032.9817,462.8125 Q1032.9817,464.9063 1033.6692,465.9844 Q1034.3567,467.0469 1035.7004,467.0469 Q1036.3254,467.0469 1036.9192,466.7813 Q1037.5129,466.5 1038.1379,465.9219 L1038.1379,468.6406 Z " fill="#000000"/><text fill="#000000" font-family="sans-serif" font-size="14" lengthAdjust="spacing" textLength="48.9043" x="1054.2068" y="467.8467">Premio</text><line style="stroke:#181818;stroke-width:0.5;" x1="998.5" x2="1127.7803" y1="479" y2="479"/><rect fill="none" height="6" style="stroke:#C82930;stroke-width:1;" width="6" x="1005.5" y="489.6484"/><text fill="#000000" font-family="sans-serif" font-size="14" lengthAdjust="spacing" textLength="105.2803" x="1017.5" y="495.9951">nombre: String</text><line style="stroke:#181818;stroke-width:0.5;" x1="998.5" x2="1127.7803" y1="503.2969" y2="503.2969"/></g><!--reverse link IDirector to DirectorFestival--><g class="link" data-entity-1="IDirector" data-entity-2="DirectorFestival" data-source-line="29" data-uid="lnk9" id="link_IDirector_DirectorFestival"><path d="M171.4851,327.4645 C215.0151,363.3745 272.45,410.74 316.11,446.75" fill="none" id="IDirector-backto-DirectorFestival" style="stroke:#181818;stroke-width:1;stroke-dasharray:7.0,7.0;"/><polygon fill="none" points="157.6,316.01,167.6669,332.0928,175.3032,322.8361,157.6,316.01" style="stroke:#181818;stroke-width:1;"/></g><!--reverse link Festival to Programa--><g class="link" data-entity-1="Festival" data-entity-2="Programa" data-source-line="65" data-uid="lnk18" id="link_Festival_Programa"><path codeLine="65" d="M326.5475,164.6111 C342.4475,193.3611 355.67,217.29 370.06,243.32" fill="none" id="Festival-backto-Programa" style="stroke:#181818;stroke-width:1;"/><polygon fill="#181818" points="320.74,154.11,320.1434,161.2964,326.5475,164.6111,327.1441,157.4247,320.74,154.11" style="stroke:#181818;stroke-width:1;"/><text fill="#000000" font-family="sans-serif" font-size="13" lengthAdjust="spacing" textLength="56.2847" x="346" y="197.0669">contiene</text></g><!--link Festival to IDirector--><g class="link" data-entity-1="Festival" data-entity-2="IDirector" data-source-line="66" data-uid="lnk19" id="link_Festival_IDirector"><path codeLine="66" d="M238.76,154.11 C209.24,186.15 177.2853,220.8272 152.7153,247.4972" fill="none" id="Festival-to-IDirector" style="stroke:#181818;stroke-width:1;"/><polygon fill="#181818" points="148.65,251.91,157.6899,248.001,152.0378,248.2327,151.8061,242.5805,148.65,251.91" style="stroke:#181818;stroke-width:1;"/><text fill="#000000" font-family="sans-serif" font-size="13" lengthAdjust="spacing" textLength="74.5723" x="212" y="197.0669">dirigido por</text></g><!--reverse link Programa to Sesion--><g class="link" data-entity-1="Programa" data-entity-2="Sesion" data-source-line="67" data-uid="lnk20" id="link_Programa_Sesion"><path codeLine="67" d="M477.3488,330.1284 C530.7488,358.3584 592.7,391.12 651.92,422.44" fill="none" id="Programa-backto-Sesion" style="stroke:#181818;stroke-width:1;"/><polygon fill="#181818" points="466.74,324.52,470.1749,330.8604,477.3488,330.1284,473.9138,323.7879,466.74,324.52" style="stroke:#181818;stroke-width:1;"/><text fill="#000000" font-family="sans-serif" font-size="13" lengthAdjust="spacing" textLength="46.0205" x="554" y="367.5669">agrupa</text></g><!--reverse link Sesion to Pelicula--><g class="link" data-entity-1="Sesion" data-entity-2="Pelicula" data-source-line="68" data-uid="lnk21" id="link_Sesion_Pelicula"><path codeLine="68" d="M786.528,546.8171 C797.578,571.8371 805.5,589.77 815.54,612.49" fill="none" id="Sesion-backto-Pelicula" style="stroke:#181818;stroke-width:1;"/><polygon fill="none" points="781.68,535.84,780.445,542.9446,786.528,546.8171,787.763,539.7126,781.68,535.84" style="stroke:#181818;stroke-width:1;"/><text fill="#000000" font-family="sans-serif" font-size="13" lengthAdjust="spacing" textLength="57.4526" x="802" y="578.5669">proyecta</text></g><!--link Jurado to Premio--><g class="link" data-entity-1="Jurado" data-entity-2="Premio" data-source-line="69" data-uid="lnk22" id="link_Jurado_Premio"><path codeLine="69" d="M1075.59,316.01 C1072.8,351.92 1068.6951,404.7581 1065.8951,440.7681" fill="none" id="Jurado-to-Premio" style="stroke:#181818;stroke-width:1;"/><polygon fill="#181818" points="1065.43,446.75,1070.1157,438.0872,1065.8176,441.765,1062.1397,437.467,1065.43,446.75" style="stroke:#181818;stroke-width:1;"/><text fill="#000000" font-family="sans-serif" font-size="13" lengthAdjust="spacing" textLength="43.4751" x="1073" y="367.5669">evalua</text></g><!--link Premio to Pelicula--><g class="link" data-entity-1="Premio" data-entity-2="Pelicula" data-source-line="70" data-uid="lnk23" id="link_Premio_Pelicula"><path codeLine="70" d="M1021.35,511.15 C983.42,539.51 932.0253,577.9471 890.8853,608.7071" fill="none" id="Premio-to-Pelicula" style="stroke:#181818;stroke-width:1;"/><polygon fill="#181818" points="886.08,612.3,895.6832,610.1142,890.0844,609.3059,890.8927,603.7071,886.08,612.3" style="stroke:#181818;stroke-width:1;"/><text fill="#000000" font-family="sans-serif" font-size="13" lengthAdjust="spacing" textLength="70.8716" x="949" y="578.5669">otorgado a</text></g><!--reverse link Asistente to Sesion--><g class="link" data-entity-1="Asistente" data-entity-2="Sesion" data-source-line="71" data-uid="lnk24" id="link_Asistente_Sesion"><path codeLine="71" d="M757,328.01 C757,356.57 757,387.61 757,422.15" fill="none" id="Asistente-backto-Sesion" style="stroke:#181818;stroke-width:1;"/><polygon fill="none" points="757,316.01,753,322.01,757,328.01,761,322.01,757,316.01" style="stroke:#181818;stroke-width:1;"/><text fill="#000000" font-family="sans-serif" font-size="13" lengthAdjust="spacing" textLength="50.3179" x="758" y="367.5669">asiste a</text></g><!--reverse link Persona to DirectorFestival--><g class="link" data-entity-1="Persona" data-entity-2="DirectorFestival" data-source-line="73" data-uid="lnk25" id="link_Persona_DirectorFestival"><path codeLine="73" d="M712.9135,161.0797 C699.6635,180.2997 694.82,188.03 682,209 C639.05,279.26 655.49,317.87 593,371.5 C585.1,378.28 580.63,375.57 571,379.5 C519.29,400.6 461.77,426.84 418.95,446.93" fill="none" id="Persona-backto-DirectorFestival" style="stroke:#181818;stroke-width:1;"/><polygon fill="none" points="723.13,146.26,707.9736,157.6742,717.8534,164.4852,723.13,146.26" style="stroke:#181818;stroke-width:1;"/></g><!--reverse link Persona to Asistente--><g class="link" data-entity-1="Persona" data-entity-2="Asistente" data-source-line="74" data-uid="lnk26" id="link_Persona_Asistente"><path codeLine="74" d="M757,164.01 C757,197.33 757,222.91 757,251.87" fill="none" id="Persona-backto-Asistente" style="stroke:#181818;stroke-width:1;"/><polygon fill="none" points="757,146.01,751,164.01,763,164.01,757,146.01" style="stroke:#181818;stroke-width:1;"/></g><!--reverse link Persona to Jurado--><g class="link" data-entity-1="Persona" data-entity-2="Jurado" data-source-line="75" data-uid="lnk27" id="link_Persona_Jurado"><path codeLine="75" d="M838.3357,145.2501 C897.7657,179.4101 968.6,220.12 1024.06,252" fill="none" id="Persona-backto-Jurado" style="stroke:#181818;stroke-width:1;"/><polygon fill="none" points="822.73,136.28,835.3457,150.452,841.3257,140.0482,822.73,136.28" style="stroke:#181818;stroke-width:1;"/></g><!--SRC=[dLHTRjGm47xtAKPzwKAL2rZLIeXILCH3f9vWwap3YCHERQSIMdegZi35i9t4YRUfGEnBv9dnpFSptW7LTsm9BZwQVjGNS182mWyVdBUeFAWEdOEQh3CQJoaNVnLm8-7UMzRj9gXD_s1f9q4zSbV4NyIB49TGuzD8dk0pES-_Vsbeg8FRU7Z6JWmBkjrqH1jRiVPa7r4HtDsm9UMDXHNgbJB6DgpHBlSExoGy6svc7EapyLmguFGlfBgnHRiJVoJr3UyqApOIRj3JUUwMzIPH8AYjQItsM21mvDXeSXA-ilFNz-buN1bYQob0cUA7gJhWIjytkIvIPSxS3ntrfBtxFnr3z-nNZTO7_k4SNLkCcWP_S85464FRvXY3R5-tN5SaIFE3b4fAR2PjekMSYNyXP5B_p9EhOPPyqMyBOIjlndt0p42kRCwlLP3B5kDoxL7iE4yTgx4hdVVinyxix5Wp6_JwJMLbFWMBnZq3lemM6xDLdrAfNI2ujrz8RQbdyxVtaO3anNfVLUjUIr16UoPDQq5L7JSh9oCvRZb078mL-MPiCtig8NWo3YZciuaJ5lqa36adF8gPQUm_0vSmSGKGSoGbrxicG6ZZ9HJheffYT0e3WX3p_o9S_mm5vm-gpEPcPNX2-0S0]--></g></svg>