<svg xmlns="http://www.w3.org/2000/svg" xmlns:xlink="http://www.w3.org/1999/xlink" contentStyleType="text/css" data-diagram-type="CLASS" height="858px" preserveAspectRatio="none" style="width:1271px;height:858px;background:#FFFFFF;" version="1.1" viewBox="0 0 1271 858" width="1271px" zoomAndPan="magnify"><title>Dise&#241;o Orientado a objetos</title><defs/><g><text fill="#000000" font-family="sans-serif" font-size="14" font-weight="bold" lengthAdjust="spacing" textLength="215.3252" x="520.8374" y="22.9951">Dise&#241;o Orientado a objetos</text><!--cluster Comun--><g class="cluster" data-entity="Comun" data-source-line="3" data-uid="ent0002" id="cluster_Comun"><path d="M168.5,43.2969 L223.9141,43.2969 A3.75,3.75 0 0 1 226.4141,45.7969 L233.4141,65.5938 L361.5,65.5938 A2.5,2.5 0 0 1 364,68.0938 L364,370.2969 A2.5,2.5 0 0 1 361.5,372.7969 L168.5,372.7969 A2.5,2.5 0 0 1 166,370.2969 L166,45.7969 A2.5,2.5 0 0 1 168.5,43.2969" fill="none" style="stroke:#000000;stroke-width:1.5;"/><line style="stroke:#000000;stroke-width:1.5;" x1="166" x2="233.4141" y1="65.5938" y2="65.5938"/><text fill="#000000" font-family="sans-serif" font-size="14" font-weight="bold" lengthAdjust="spacing" textLength="54.4141" x="170" y="58.292">Comun</text></g><!--cluster Gesti?n del Festival--><g class="cluster" data-entity="Gesti&#243;n del Festival" data-source-line="17" data-uid="ent0006" id="cluster_Gesti&#243;n del Festival"><path d="M512.5,200.2969 L670.2139,200.2969 A3.75,3.75 0 0 1 672.7139,202.7969 L679.7139,222.5938 L1009.5,222.5938 A2.5,2.5 0 0 1 1012,225.0938 L1012,699.7969 A2.5,2.5 0 0 1 1009.5,702.2969 L512.5,702.2969 A2.5,2.5 0 0 1 510,699.7969 L510,202.7969 A2.5,2.5 0 0 1 512.5,200.2969" fill="none" style="stroke:#000000;stroke-width:1.5;"/><line style="stroke:#000000;stroke-width:1.5;" x1="510" x2="679.7139" y1="222.5938" y2="222.5938"/><text fill="#000000" font-family="sans-serif" font-size="14" font-weight="bold" lengthAdjust="spacing" textLength="156.7139" x="514" y="215.292">Gesti&#243;n del Festival</text></g><!--cluster Participaci?n--><g class="cluster" data-entity="Participaci&#243;n" data-source-line="42" data-uid="ent0012" id="cluster_Participaci&#243;n"><path d="M304.5,406.2969 L408.8525,406.2969 A3.75,3.75 0 0 1 411.3525,408.7969 L418.3525,428.5938 L483.5,428.5938 A2.5,2.5 0 0 1 486,431.0938 L486,535.7969 A2.5,2.5 0 0 1 483.5,538.2969 L304.5,538.2969 A2.5,2.5 0 0 1 302,535.7969 L302,408.7969 A2.5,2.5 0 0 1 304.5,406.2969" fill="none" style="stroke:#000000;stroke-width:1.5;"/><line style="stroke:#000000;stroke-width:1.5;" x1="302" x2="418.3525" y1="428.5938" y2="428.5938"/><text fill="#000000" font-family="sans-serif" font-size="14" font-weight="bold" lengthAdjust="spacing" textLength="103.3525" x="306" y="421.292">Participaci&#243;n</text></g><!--cluster Proyecciones--><g class="cluster" data-entity="Proyecciones" data-source-line="49" data-uid="ent0014" id="cluster_Proyecciones"><path d="M1038.5,562.2969 L1143.7139,562.2969 A3.75,3.75 0 0 1 1146.2139,564.7969 L1153.2139,584.5938 L1261.5,584.5938 A2.5,2.5 0 0 1 1264,587.0938 L1264,848.7969 A2.5,2.5 0 0 1 1261.5,851.2969 L1038.5,851.2969 A2.5,2.5 0 0 1 1036,848.7969 L1036,564.7969 A2.5,2.5 0 0 1 1038.5,562.2969" fill="none" style="stroke:#000000;stroke-width:1.5;"/><line style="stroke:#000000;stroke-width:1.5;" x1="1036" x2="1153.2139" y1="584.5938" y2="584.5938"/><text fill="#000000" font-family="sans-serif" font-size="14" font-weight="bold" lengthAdjust="spacing" textLength="104.2139" x="1040" y="577.292">Proyecciones</text></g><!--cluster Evaluaci?n--><g class="cluster" data-entity="Evaluaci&#243;n" data-source-line="62" data-uid="ent0017" id="cluster_Evaluaci&#243;n"><path d="M8.5,406.2969 L94.5322,406.2969 A3.75,3.75 0 0 1 97.0322,408.7969 L104.0322,428.5938 L225.5,428.5938 A2.5,2.5 0 0 1 228,431.0938 L228,699.7969 A2.5,2.5 0 0 1 225.5,702.2969 L8.5,702.2969 A2.5,2.5 0 0 1 6,699.7969 L6,408.7969 A2.5,2.5 0 0 1 8.5,406.2969" fill="none" style="stroke:#000000;stroke-width:1.5;"/><line style="stroke:#000000;stroke-width:1.5;" x1="6" x2="104.0322" y1="428.5938" y2="428.5938"/><text fill="#000000" font-family="sans-serif" font-size="14" font-weight="bold" lengthAdjust="spacing" textLength="85.0322" x="10" y="421.292">Evaluaci&#243;n</text></g><!--class IPersona--><g class="entity" data-entity="IPersona" data-source-line="4" data-uid="ent0003" id="entity_IPersona"><rect fill="#F1F1F1" height="96.8906" rx="2.5" ry="2.5" style="stroke:#181818;stroke-width:0.5;" width="166.793" x="181.5" y="78.2969"/><ellipse cx="230.5205" cy="94.2969" fill="#B4A7E5" rx="11" ry="11" style="stroke:#181818;stroke-width:1;"/><path d="M226.4424,90.0625 L226.4424,87.9063 L233.833,87.9063 L233.833,90.0625 L231.3643,90.0625 L231.3643,98.1406 L233.833,98.1406 L233.833,100.2969 L226.4424,100.2969 L226.4424,98.1406 L228.9111,98.1406 L228.9111,90.0625 L226.4424,90.0625 Z " fill="#000000"/><text fill="#000000" font-family="sans-serif" font-size="14" font-style="italic" lengthAdjust="spacing" textLength="60.252" x="251.0205" y="99.1436">IPersona</text><line style="stroke:#181818;stroke-width:0.5;" x1="182.5" x2="347.293" y1="110.2969" y2="110.2969"/><line style="stroke:#181818;stroke-width:0.5;" x1="182.5" x2="347.293" y1="118.2969" y2="118.2969"/><ellipse cx="192.5" cy="131.9453" fill="#84BE84" rx="3" ry="3" style="stroke:#038048;stroke-width:1;"/><text fill="#000000" font-family="sans-serif" font-size="14" lengthAdjust="spacing" textLength="97.877" x="201.5" y="135.292">getId(): String</text><ellipse cx="192.5" cy="148.2422" fill="#84BE84" rx="3" ry="3" style="stroke:#038048;stroke-width:1;"/><text fill="#000000" font-family="sans-serif" font-size="14" lengthAdjust="spacing" textLength="140.793" x="201.5" y="151.5889">getNombre(): String</text><ellipse cx="192.5" cy="164.5391" fill="#84BE84" rx="3" ry="3" style="stroke:#038048;stroke-width:1;"/><text fill="#000000" font-family="sans-serif" font-size="14" lengthAdjust="spacing" textLength="123.7031" x="201.5" y="167.8857">getEmail(): String</text></g><!--class Persona--><g class="entity" data-entity="Persona" data-source-line="10" data-uid="ent0004" id="entity_Persona"><rect fill="#F1F1F1" height="96.8906" rx="2.5" ry="2.5" style="stroke:#181818;stroke-width:0.5;" width="131.2803" x="199.5" y="259.7969"/><ellipse cx="233.9208" cy="275.7969" fill="#A9DCDF" rx="11" ry="11" style="stroke:#181818;stroke-width:1;"/><path d="M234.0301,271.1406 L232.8739,276.2188 L235.202,276.2188 L234.0301,271.1406 Z M232.5458,268.9063 L235.5301,268.9063 L238.8895,281.2969 L236.4364,281.2969 L235.6708,278.2344 L232.3895,278.2344 L231.6395,281.2969 L229.202,281.2969 L232.5458,268.9063 Z " fill="#000000"/><text fill="#000000" font-family="sans-serif" font-size="14" font-style="italic" lengthAdjust="spacing" textLength="56.123" x="252.2365" y="280.6436">Persona</text><line style="stroke:#181818;stroke-width:0.5;" x1="200.5" x2="329.7803" y1="291.7969" y2="291.7969"/><rect fill="none" height="6" style="stroke:#C82930;stroke-width:1;" width="6" x="207.5" y="302.4453"/><text fill="#000000" font-family="sans-serif" font-size="14" lengthAdjust="spacing" textLength="63.7246" x="219.5" y="308.792">id: String</text><rect fill="none" height="6" style="stroke:#C82930;stroke-width:1;" width="6" x="207.5" y="318.7422"/><text fill="#000000" font-family="sans-serif" font-size="14" lengthAdjust="spacing" textLength="105.2803" x="219.5" y="325.0889">nombre: String</text><rect fill="none" height="6" style="stroke:#C82930;stroke-width:1;" width="6" x="207.5" y="335.0391"/><text fill="#000000" font-family="sans-serif" font-size="14" lengthAdjust="spacing" textLength="89.5576" x="219.5" y="341.3857">email: String</text><line style="stroke:#181818;stroke-width:0.5;" x1="200.5" x2="329.7803" y1="348.6875" y2="348.6875"/></g><!--class IDirector--><g class="entity" data-entity="IDirector" data-source-line="18" data-uid="ent0007" id="entity_IDirector"><rect fill="#F1F1F1" height="64.2969" rx="2.5" ry="2.5" style="stroke:#181818;stroke-width:0.5;" width="196.3789" x="526" y="449.7969"/><ellipse cx="589.6016" cy="465.7969" fill="#B4A7E5" rx="11" ry="11" style="stroke:#181818;stroke-width:1;"/><path d="M585.5234,461.5625 L585.5234,459.4063 L592.9141,459.4063 L592.9141,461.5625 L590.4453,461.5625 L590.4453,469.6406 L592.9141,469.6406 L592.9141,471.7969 L585.5234,471.7969 L585.5234,469.6406 L587.9922,469.6406 L587.9922,461.5625 L585.5234,461.5625 Z " fill="#000000"/><text fill="#000000" font-family="sans-serif" font-size="14" font-style="italic" lengthAdjust="spacing" textLength="60.6758" x="610.1016" y="470.6436">IDirector</text><line style="stroke:#181818;stroke-width:0.5;" x1="527" x2="721.3789" y1="481.7969" y2="481.7969"/><line style="stroke:#181818;stroke-width:0.5;" x1="527" x2="721.3789" y1="489.7969" y2="489.7969"/><ellipse cx="537" cy="503.4453" fill="#84BE84" rx="3" ry="3" style="stroke:#038048;stroke-width:1;"/><text fill="#000000" font-family="sans-serif" font-size="14" lengthAdjust="spacing" textLength="170.3789" x="546" y="506.792">coordinarFestival(): void</text></g><!--class Festival--><g class="entity" data-entity="Festival" data-source-line="22" data-uid="ent0008" id="entity_Festival"><rect fill="#F1F1F1" height="145.7813" rx="2.5" ry="2.5" style="stroke:#181818;stroke-width:0.5;" width="278.7861" x="526.5" y="235.2969"/><ellipse cx="634.5967" cy="251.2969" fill="#ADD1B2" rx="11" ry="11" style="stroke:#181818;stroke-width:1;"/><path d="M637.5654,256.9375 Q636.9873,257.2344 636.3467,257.375 Q635.7061,257.5313 635.0029,257.5313 Q632.5029,257.5313 631.1748,255.8906 Q629.8623,254.2344 629.8623,251.1094 Q629.8623,247.9844 631.1748,246.3281 Q632.5029,244.6719 635.0029,244.6719 Q635.7061,244.6719 636.3467,244.8281 Q637.0029,244.9844 637.5654,245.2813 L637.5654,248 Q636.9404,247.4219 636.3467,247.1563 Q635.7529,246.875 635.1279,246.875 Q633.7842,246.875 633.0967,247.9531 Q632.4092,249.0156 632.4092,251.1094 Q632.4092,253.2031 633.0967,254.2813 Q633.7842,255.3438 635.1279,255.3438 Q635.7529,255.3438 636.3467,255.0781 Q636.9404,254.7969 637.5654,254.2188 L637.5654,256.9375 Z " fill="#000000"/><text fill="#000000" font-family="sans-serif" font-size="14" lengthAdjust="spacing" textLength="54.0928" x="655.0967" y="256.1436">Festival</text><line style="stroke:#181818;stroke-width:0.5;" x1="527.5" x2="804.2861" y1="267.2969" y2="267.2969"/><rect fill="none" height="6" style="stroke:#C82930;stroke-width:1;" width="6" x="534.5" y="277.9453"/><text fill="#000000" font-family="sans-serif" font-size="14" lengthAdjust="spacing" textLength="105.2803" x="546.5" y="284.292">nombre: String</text><rect fill="none" height="6" style="stroke:#C82930;stroke-width:1;" width="6" x="534.5" y="294.2422"/><text fill="#000000" font-family="sans-serif" font-size="14" lengthAdjust="spacing" textLength="53.4365" x="546.5" y="300.5889">a&#241;o: int</text><rect fill="none" height="6" style="stroke:#C82930;stroke-width:1;" width="6" x="534.5" y="310.5391"/><text fill="#000000" font-family="sans-serif" font-size="14" lengthAdjust="spacing" textLength="146.0156" x="546.5" y="316.8857">programa: Programa</text><rect fill="none" height="6" style="stroke:#C82930;stroke-width:1;" width="6" x="534.5" y="326.8359"/><text fill="#000000" font-family="sans-serif" font-size="14" lengthAdjust="spacing" textLength="124.4961" x="546.5" y="333.1826">director: IDirector</text><line style="stroke:#181818;stroke-width:0.5;" x1="527.5" x2="804.2861" y1="340.4844" y2="340.4844"/><ellipse cx="537.5" cy="354.1328" fill="#84BE84" rx="3" ry="3" style="stroke:#038048;stroke-width:1;"/><text fill="#000000" font-family="sans-serif" font-size="14" lengthAdjust="spacing" textLength="213.4795" x="546.5" y="357.4795">agregarSesion(s: Sesion): void</text><ellipse cx="537.5" cy="370.4297" fill="#84BE84" rx="3" ry="3" style="stroke:#038048;stroke-width:1;"/><text fill="#000000" font-family="sans-serif" font-size="14" lengthAdjust="spacing" textLength="252.7861" x="546.5" y="373.7764">agregarAsistente(a: Asistente): void</text></g><!--class Programa--><g class="entity" data-entity="Programa" data-source-line="31" data-uid="ent0009" id="entity_Programa"><rect fill="#F1F1F1" height="80.5938" rx="2.5" ry="2.5" style="stroke:#181818;stroke-width:0.5;" width="239.4795" x="757.5" y="441.2969"/><ellipse cx="838.8887" cy="457.2969" fill="#ADD1B2" rx="11" ry="11" style="stroke:#181818;stroke-width:1;"/><path d="M841.8574,462.9375 Q841.2793,463.2344 840.6387,463.375 Q839.998,463.5313 839.2949,463.5313 Q836.7949,463.5313 835.4668,461.8906 Q834.1543,460.2344 834.1543,457.1094 Q834.1543,453.9844 835.4668,452.3281 Q836.7949,450.6719 839.2949,450.6719 Q839.998,450.6719 840.6387,450.8281 Q841.2949,450.9844 841.8574,451.2813 L841.8574,454 Q841.2324,453.4219 840.6387,453.1563 Q840.0449,452.875 839.4199,452.875 Q838.0762,452.875 837.3887,453.9531 Q836.7012,455.0156 836.7012,457.1094 Q836.7012,459.2031 837.3887,460.2813 Q838.0762,461.3438 839.4199,461.3438 Q840.0449,461.3438 840.6387,461.0781 Q841.2324,460.7969 841.8574,460.2188 L841.8574,462.9375 Z " fill="#000000"/><text fill="#000000" font-family="sans-serif" font-size="14" lengthAdjust="spacing" textLength="68.2021" x="859.3887" y="462.1436">Programa</text><line style="stroke:#181818;stroke-width:0.5;" x1="758.5" x2="995.9795" y1="473.2969" y2="473.2969"/><rect fill="none" height="6" style="stroke:#C82930;stroke-width:1;" width="6" x="765.5" y="483.9453"/><text fill="#000000" font-family="sans-serif" font-size="14" lengthAdjust="spacing" textLength="163.6592" x="777.5" y="490.292">sesiones: List&lt;Sesion&gt;</text><line style="stroke:#181818;stroke-width:0.5;" x1="758.5" x2="995.9795" y1="497.5938" y2="497.5938"/><ellipse cx="768.5" cy="511.2422" fill="#84BE84" rx="3" ry="3" style="stroke:#038048;stroke-width:1;"/><text fill="#000000" font-family="sans-serif" font-size="14" lengthAdjust="spacing" textLength="213.4795" x="777.5" y="514.5889">agregarSesion(s: Sesion): void</text></g><!--class DirectorFestival--><g class="entity" data-entity="DirectorFestival" data-source-line="36" data-uid="ent0010" id="entity_DirectorFestival"><rect fill="#F1F1F1" height="80.5938" rx="2.5" ry="2.5" style="stroke:#181818;stroke-width:0.5;" width="196.3789" x="526" y="605.2969"/><ellipse cx="565.1827" cy="621.2969" fill="#ADD1B2" rx="11" ry="11" style="stroke:#181818;stroke-width:1;"/><path d="M568.1514,626.9375 Q567.5733,627.2344 566.9327,627.375 Q566.292,627.5313 565.5889,627.5313 Q563.0889,627.5313 561.7608,625.8906 Q560.4483,624.2344 560.4483,621.1094 Q560.4483,617.9844 561.7608,616.3281 Q563.0889,614.6719 565.5889,614.6719 Q566.292,614.6719 566.9327,614.8281 Q567.5889,614.9844 568.1514,615.2813 L568.1514,618 Q567.5264,617.4219 566.9327,617.1563 Q566.3389,616.875 565.7139,616.875 Q564.3702,616.875 563.6827,617.9531 Q562.9952,619.0156 562.9952,621.1094 Q562.9952,623.2031 563.6827,624.2813 Q564.3702,625.3438 565.7139,625.3438 Q566.3389,625.3438 566.9327,625.0781 Q567.5264,624.7969 568.1514,624.2188 L568.1514,626.9375 Z " fill="#000000"/><text fill="#000000" font-family="sans-serif" font-size="14" lengthAdjust="spacing" textLength="110.6396" x="584.5566" y="626.1436">DirectorFestival</text><line style="stroke:#181818;stroke-width:0.5;" x1="527" x2="721.3789" y1="637.2969" y2="637.2969"/><rect fill="none" height="6" style="stroke:#C82930;stroke-width:1;" width="6" x="534" y="647.9453"/><text fill="#000000" font-family="sans-serif" font-size="14" lengthAdjust="spacing" textLength="121.8574" x="546" y="654.292">persona: Persona</text><line style="stroke:#181818;stroke-width:0.5;" x1="527" x2="721.3789" y1="661.5938" y2="661.5938"/><ellipse cx="537" cy="675.2422" fill="#84BE84" rx="3" ry="3" style="stroke:#038048;stroke-width:1;"/><text fill="#000000" font-family="sans-serif" font-size="14" lengthAdjust="spacing" textLength="170.3789" x="546" y="678.5889">coordinarFestival(): void</text></g><!--class Asistente--><g class="entity" data-entity="Asistente" data-source-line="43" data-uid="ent0013" id="entity_Asistente"><rect fill="#F1F1F1" height="80.5938" rx="2.5" ry="2.5" style="stroke:#181818;stroke-width:0.5;" width="151.6445" x="318" y="441.2969"/><ellipse cx="357.5303" cy="457.2969" fill="#ADD1B2" rx="11" ry="11" style="stroke:#181818;stroke-width:1;"/><path d="M360.499,462.9375 Q359.9209,463.2344 359.2803,463.375 Q358.6396,463.5313 357.9365,463.5313 Q355.4365,463.5313 354.1084,461.8906 Q352.7959,460.2344 352.7959,457.1094 Q352.7959,453.9844 354.1084,452.3281 Q355.4365,450.6719 357.9365,450.6719 Q358.6396,450.6719 359.2803,450.8281 Q359.9365,450.9844 360.499,451.2813 L360.499,454 Q359.874,453.4219 359.2803,453.1563 Q358.6865,452.875 358.0615,452.875 Q356.7178,452.875 356.0303,453.9531 Q355.3428,455.0156 355.3428,457.1094 Q355.3428,459.2031 356.0303,460.2813 Q356.7178,461.3438 358.0615,461.3438 Q358.6865,461.3438 359.2803,461.0781 Q359.874,460.7969 360.499,460.2188 L360.499,462.9375 Z " fill="#000000"/><text fill="#000000" font-family="sans-serif" font-size="14" lengthAdjust="spacing" textLength="65.1328" x="376.9814" y="462.1436">Asistente</text><line style="stroke:#181818;stroke-width:0.5;" x1="319" x2="468.6445" y1="473.2969" y2="473.2969"/><rect fill="none" height="6" style="stroke:#C82930;stroke-width:1;" width="6" x="326" y="483.9453"/><text fill="#000000" font-family="sans-serif" font-size="14" lengthAdjust="spacing" textLength="121.8574" x="338" y="490.292">persona: Persona</text><line style="stroke:#181818;stroke-width:0.5;" x1="319" x2="468.6445" y1="497.5938" y2="497.5938"/><ellipse cx="329" cy="511.2422" fill="#84BE84" rx="3" ry="3" style="stroke:#038048;stroke-width:1;"/><text fill="#000000" font-family="sans-serif" font-size="14" lengthAdjust="spacing" textLength="125.6445" x="338" y="514.5889">registrarse(): void</text></g><!--class Sesion--><g class="entity" data-entity="Sesion" data-source-line="50" data-uid="ent0015" id="entity_Sesion"><rect fill="#F1F1F1" height="96.8906" rx="2.5" ry="2.5" style="stroke:#181818;stroke-width:0.5;" width="196.2422" x="1052" y="597.2969"/><ellipse cx="1122.8101" cy="613.2969" fill="#ADD1B2" rx="11" ry="11" style="stroke:#181818;stroke-width:1;"/><path d="M1125.7788,618.9375 Q1125.2007,619.2344 1124.5601,619.375 Q1123.9194,619.5313 1123.2163,619.5313 Q1120.7163,619.5313 1119.3882,617.8906 Q1118.0757,616.2344 1118.0757,613.1094 Q1118.0757,609.9844 1119.3882,608.3281 Q1120.7163,606.6719 1123.2163,606.6719 Q1123.9194,606.6719 1124.5601,606.8281 Q1125.2163,606.9844 1125.7788,607.2813 L1125.7788,610 Q1125.1538,609.4219 1124.5601,609.1563 Q1123.9663,608.875 1123.3413,608.875 Q1121.9976,608.875 1121.3101,609.9531 Q1120.6226,611.0156 1120.6226,613.1094 Q1120.6226,615.2031 1121.3101,616.2813 Q1121.9976,617.3438 1123.3413,617.3438 Q1123.9663,617.3438 1124.5601,617.0781 Q1125.1538,616.7969 1125.7788,616.2188 L1125.7788,618.9375 Z " fill="#000000"/><text fill="#000000" font-family="sans-serif" font-size="14" lengthAdjust="spacing" textLength="46.1221" x="1143.3101" y="618.1436">Sesion</text><line style="stroke:#181818;stroke-width:0.5;" x1="1053" x2="1247.2422" y1="629.2969" y2="629.2969"/><rect fill="none" height="6" style="stroke:#C82930;stroke-width:1;" width="6" x="1060" y="639.9453"/><text fill="#000000" font-family="sans-serif" font-size="14" lengthAdjust="spacing" textLength="81.3203" x="1072" y="646.292">fecha: Date</text><rect fill="none" height="6" style="stroke:#C82930;stroke-width:1;" width="6" x="1060" y="656.2422"/><text fill="#000000" font-family="sans-serif" font-size="14" lengthAdjust="spacing" textLength="117.3594" x="1072" y="662.5889">pelicula: Pelicula</text><line style="stroke:#181818;stroke-width:0.5;" x1="1053" x2="1247.2422" y1="669.8906" y2="669.8906"/><ellipse cx="1063" cy="683.5391" fill="#84BE84" rx="3" ry="3" style="stroke:#038048;stroke-width:1;"/><text fill="#000000" font-family="sans-serif" font-size="14" lengthAdjust="spacing" textLength="170.2422" x="1072" y="686.8857">programarSesion(): void</text></g><!--class Pelicula--><g class="entity" data-entity="Pelicula" data-source-line="56" data-uid="ent0016" id="entity_Pelicula"><rect fill="#F1F1F1" height="80.5938" rx="2.5" ry="2.5" style="stroke:#181818;stroke-width:0.5;" width="131.6016" x="1068" y="754.2969"/><ellipse cx="1103.5774" cy="770.2969" fill="#ADD1B2" rx="11" ry="11" style="stroke:#181818;stroke-width:1;"/><path d="M1106.5461,775.9375 Q1105.968,776.2344 1105.3274,776.375 Q1104.6868,776.5313 1103.9836,776.5313 Q1101.4836,776.5313 1100.1555,774.8906 Q1098.843,773.2344 1098.843,770.1094 Q1098.843,766.9844 1100.1555,765.3281 Q1101.4836,763.6719 1103.9836,763.6719 Q1104.6868,763.6719 1105.3274,763.8281 Q1105.9836,763.9844 1106.5461,764.2813 L1106.5461,767 Q1105.9211,766.4219 1105.3274,766.1563 Q1104.7336,765.875 1104.1086,765.875 Q1102.7649,765.875 1102.0774,766.9531 Q1101.3899,768.0156 1101.3899,770.1094 Q1101.3899,772.2031 1102.0774,773.2813 Q1102.7649,774.3438 1104.1086,774.3438 Q1104.7336,774.3438 1105.3274,774.0781 Q1105.9211,773.7969 1106.5461,773.2188 L1106.5461,775.9375 Z " fill="#000000"/><text fill="#000000" font-family="sans-serif" font-size="14" lengthAdjust="spacing" textLength="53.874" x="1122.1501" y="775.1436">Pelicula</text><line style="stroke:#181818;stroke-width:0.5;" x1="1069" x2="1198.6016" y1="786.2969" y2="786.2969"/><rect fill="none" height="6" style="stroke:#C82930;stroke-width:1;" width="6" x="1076" y="796.9453"/><text fill="#000000" font-family="sans-serif" font-size="14" lengthAdjust="spacing" textLength="87.1445" x="1088" y="803.292">titulo: String</text><rect fill="none" height="6" style="stroke:#C82930;stroke-width:1;" width="6" x="1076" y="813.2422"/><text fill="#000000" font-family="sans-serif" font-size="14" lengthAdjust="spacing" textLength="105.6016" x="1088" y="819.5889">director: String</text><line style="stroke:#181818;stroke-width:0.5;" x1="1069" x2="1198.6016" y1="826.8906" y2="826.8906"/></g><!--class Jurado--><g class="entity" data-entity="Jurado" data-source-line="63" data-uid="ent0018" id="entity_Jurado"><rect fill="#F1F1F1" height="80.5938" rx="2.5" ry="2.5" style="stroke:#181818;stroke-width:0.5;" width="189.4609" x="22.5" y="441.2969"/><ellipse cx="90.5859" cy="457.2969" fill="#ADD1B2" rx="11" ry="11" style="stroke:#181818;stroke-width:1;"/><path d="M93.5547,462.9375 Q92.9766,463.2344 92.3359,463.375 Q91.6953,463.5313 90.9922,463.5313 Q88.4922,463.5313 87.1641,461.8906 Q85.8516,460.2344 85.8516,457.1094 Q85.8516,453.9844 87.1641,452.3281 Q88.4922,450.6719 90.9922,450.6719 Q91.6953,450.6719 92.3359,450.8281 Q92.9922,450.9844 93.5547,451.2813 L93.5547,454 Q92.9297,453.4219 92.3359,453.1563 Q91.7422,452.875 91.1172,452.875 Q89.7734,452.875 89.0859,453.9531 Q88.3984,455.0156 88.3984,457.1094 Q88.3984,459.2031 89.0859,460.2813 Q89.7734,461.3438 91.1172,461.3438 Q91.7422,461.3438 92.3359,461.0781 Q92.9297,460.7969 93.5547,460.2188 L93.5547,462.9375 Z " fill="#000000"/><text fill="#000000" font-family="sans-serif" font-size="14" lengthAdjust="spacing" textLength="44.7891" x="111.0859" y="462.1436">Jurado</text><line style="stroke:#181818;stroke-width:0.5;" x1="23.5" x2="210.9609" y1="473.2969" y2="473.2969"/><rect fill="none" height="6" style="stroke:#C82930;stroke-width:1;" width="6" x="30.5" y="483.9453"/><text fill="#000000" font-family="sans-serif" font-size="14" lengthAdjust="spacing" textLength="121.8574" x="42.5" y="490.292">persona: Persona</text><line style="stroke:#181818;stroke-width:0.5;" x1="23.5" x2="210.9609" y1="497.5938" y2="497.5938"/><ellipse cx="33.5" cy="511.2422" fill="#84BE84" rx="3" ry="3" style="stroke:#038048;stroke-width:1;"/><text fill="#000000" font-family="sans-serif" font-size="14" lengthAdjust="spacing" textLength="163.4609" x="42.5" y="514.5889">evaluarPeliculas(): void</text></g><!--class Premio--><g class="entity" data-entity="Premio" data-source-line="68" data-uid="ent0019" id="entity_Premio"><rect fill="#F1F1F1" height="80.5938" rx="2.5" ry="2.5" style="stroke:#181818;stroke-width:0.5;" width="143.3594" x="56.5" y="605.2969"/><ellipse cx="99.6048" cy="621.2969" fill="#ADD1B2" rx="11" ry="11" style="stroke:#181818;stroke-width:1;"/><path d="M102.5735,626.9375 Q101.9954,627.2344 101.3548,627.375 Q100.7142,627.5313 100.011,627.5313 Q97.511,627.5313 96.1829,625.8906 Q94.8704,624.2344 94.8704,621.1094 Q94.8704,617.9844 96.1829,616.3281 Q97.511,614.6719 100.011,614.6719 Q100.7142,614.6719 101.3548,614.8281 Q102.011,614.9844 102.5735,615.2813 L102.5735,618 Q101.9485,617.4219 101.3548,617.1563 Q100.761,616.875 100.136,616.875 Q98.7923,616.875 98.1048,617.9531 Q97.4173,619.0156 97.4173,621.1094 Q97.4173,623.2031 98.1048,624.2813 Q98.7923,625.3438 100.136,625.3438 Q100.761,625.3438 101.3548,625.0781 Q101.9485,624.7969 102.5735,624.2188 L102.5735,626.9375 Z " fill="#000000"/><text fill="#000000" font-family="sans-serif" font-size="14" lengthAdjust="spacing" textLength="48.9043" x="119.8503" y="626.1436">Premio</text><line style="stroke:#181818;stroke-width:0.5;" x1="57.5" x2="198.8594" y1="637.2969" y2="637.2969"/><rect fill="none" height="6" style="stroke:#C82930;stroke-width:1;" width="6" x="64.5" y="647.9453"/><text fill="#000000" font-family="sans-serif" font-size="14" lengthAdjust="spacing" textLength="105.2803" x="76.5" y="654.292">nombre: String</text><rect fill="none" height="6" style="stroke:#C82930;stroke-width:1;" width="6" x="64.5" y="664.2422"/><text fill="#000000" font-family="sans-serif" font-size="14" lengthAdjust="spacing" textLength="117.3594" x="76.5" y="670.5889">pelicula: Pelicula</text><line style="stroke:#181818;stroke-width:0.5;" x1="57.5" x2="198.8594" y1="677.8906" y2="677.8906"/></g><!--reverse link IPersona to Persona--><g class="link" data-entity-1="IPersona" data-entity-2="Persona" data-source-line="11" data-uid="lnk5" id="link_IPersona_Persona"><path d="M252.357,193.3846 C250.567,219.4546 251.8,233.6969 253.6,259.7569" fill="none" id="IPersona-backto-Persona" style="stroke:#181818;stroke-width:1;stroke-dasharray:7.0,7.0;"/><polygon fill="none" points="253.59,175.4269,246.3711,192.9736,258.3429,193.7956,253.59,175.4269" style="stroke:#181818;stroke-width:1;"/></g><!--link Persona to IPersona--><g class="link" data-entity-1="Persona" data-entity-2="IPersona" data-source-line="85" data-uid="lnk30" id="link_Persona_IPersona"><path codeLine="85" d="M277.07,259.7569 C278.97,233.6969 280.2884,219.4493 278.3884,193.3793" fill="none" id="Persona-to-IPersona" style="stroke:#181818;stroke-width:1;stroke-dasharray:7.0,7.0;"/><polygon fill="none" points="277.08,175.4269,272.4043,193.8154,284.3725,192.9431,277.08,175.4269" style="stroke:#181818;stroke-width:1;"/></g><!--reverse link IDirector to DirectorFestival--><g class="link" data-entity-1="IDirector" data-entity-2="DirectorFestival" data-source-line="37" data-uid="lnk11" id="link_IDirector_DirectorFestival"><path d="M624,532.0369 C624,557.9569 624,576.9969 624,605.0369" fill="none" id="IDirector-backto-DirectorFestival" style="stroke:#181818;stroke-width:1;stroke-dasharray:7.0,7.0;"/><polygon fill="none" points="624,514.0369,618,532.0369,630,532.0369,624,514.0369" style="stroke:#181818;stroke-width:1;"/></g><!--link Festival to Programa--><g class="link" data-entity-1="Festival" data-entity-2="Programa" data-source-line="74" data-uid="lnk20" id="link_Festival_Programa"><path codeLine="74" d="M754.87,381.5269 C779.99,401.9469 801.7343,419.6221 823.5443,437.3521" fill="none" id="Festival-to-Programa" style="stroke:#181818;stroke-width:1;"/><polygon fill="#181818" points="828.2,441.1369,823.7396,432.3559,824.3202,437.9829,818.6933,438.5635,828.2,441.1369" style="stroke:#181818;stroke-width:1;"/></g><!--link Festival to IDirector--><g class="link" data-entity-1="Festival" data-entity-2="IDirector" data-source-line="75" data-uid="lnk21" id="link_Festival_IDirector"><path codeLine="75" d="M648.31,381.5269 C642.48,405.3369 637.7272,424.7291 633.0572,443.7991" fill="none" id="Festival-to-IDirector" style="stroke:#181818;stroke-width:1;"/><polygon fill="#181818" points="631.63,449.6269,637.6559,441.8366,632.8193,444.7704,629.8855,439.9337,631.63,449.6269" style="stroke:#181818;stroke-width:1;"/></g><!--link Festival to Asistente--><g class="link" data-entity-1="Festival" data-entity-2="Asistente" data-source-line="76" data-uid="lnk22" id="link_Festival_Asistente"><path codeLine="76" d="M537.27,381.3869 C527.97,386.9969 518.8,392.6769 510,398.2969 C489.07,411.6669 471.5593,423.7412 452.0993,437.7512" fill="none" id="Festival-to-Asistente" style="stroke:#181818;stroke-width:1;"/><polygon fill="#181818" points="447.23,441.2569,456.8711,439.2447,451.2878,438.3355,452.1969,432.7522,447.23,441.2569" style="stroke:#181818;stroke-width:1;"/></g><!--link Programa to Sesion--><g class="link" data-entity-1="Programa" data-entity-2="Sesion" data-source-line="77" data-uid="lnk23" id="link_Programa_Sesion"><path codeLine="77" d="M954.79,522.4069 C973.7,532.4669 993.73,543.5069 1012,554.2969 C1034.57,567.6369 1053.6199,579.6955 1075.2299,593.9355" fill="none" id="Programa-to-Sesion" style="stroke:#181818;stroke-width:1;"/><polygon fill="#181818" points="1080.24,597.2369,1074.9258,588.9447,1076.0649,594.4857,1070.524,595.6248,1080.24,597.2369" style="stroke:#181818;stroke-width:1;"/></g><!--link Sesion to Pelicula--><g class="link" data-entity-1="Sesion" data-entity-2="Pelicula" data-source-line="78" data-uid="lnk24" id="link_Sesion_Pelicula"><path codeLine="78" d="M1144.81,694.5269 C1142.71,713.8069 1140.9591,729.8321 1138.9591,748.2121" fill="none" id="Sesion-to-Pelicula" style="stroke:#181818;stroke-width:1;"/><polygon fill="#181818" points="1138.31,754.1769,1143.2601,745.6624,1138.8509,749.2062,1135.3071,744.797,1138.31,754.1769" style="stroke:#181818;stroke-width:1;"/></g><!--link Jurado to Premio--><g class="link" data-entity-1="Jurado" data-entity-2="Premio" data-source-line="79" data-uid="lnk25" id="link_Jurado_Premio"><path codeLine="79" d="M119.69,522.4269 C121.4,547.6269 123.2033,574.1407 124.9133,599.3107" fill="none" id="Jurado-to-Premio" style="stroke:#181818;stroke-width:1;"/><polygon fill="#181818" points="125.32,605.2969,128.7008,596.0464,124.9811,600.3084,120.7192,596.5887,125.32,605.2969" style="stroke:#181818;stroke-width:1;"/></g><!--link Premio to Pelicula--><g class="link" data-entity-1="Premio" data-entity-2="Pelicula" data-source-line="80" data-uid="lnk26" id="link_Premio_Pelicula"><path codeLine="80" d="M199.71,659.4169 C276.39,672.7469 401.63,694.0469 510,710.2969 C712.94,740.7369 947.8861,770.6949 1061.9161,784.9049" fill="none" id="Premio-to-Pelicula" style="stroke:#181818;stroke-width:1;"/><polygon fill="#181818" points="1067.87,785.6469,1059.4337,780.5646,1062.9084,785.0286,1058.4444,788.5032,1067.87,785.6469" style="stroke:#181818;stroke-width:1;"/></g><!--reverse link Persona to DirectorFestival--><g class="link" data-entity-1="Persona" data-entity-2="DirectorFestival" data-source-line="82" data-uid="lnk27" id="link_Persona_DirectorFestival"><path codeLine="82" d="M257.3107,375.1624 C253.2007,427.8724 256.71,494.0669 302,546.2969 C357.44,610.2269 453.13,633.3569 525.83,641.3769" fill="none" id="Persona-backto-DirectorFestival" style="stroke:#181818;stroke-width:1;"/><polygon fill="none" points="258.71,357.2169,251.3289,374.696,263.2926,375.6288,258.71,357.2169" style="stroke:#181818;stroke-width:1;"/></g><!--reverse link Persona to Asistente--><g class="link" data-entity-1="Persona" data-entity-2="Asistente" data-source-line="83" data-uid="lnk28" id="link_Persona_Asistente"><path codeLine="83" d="M311.75,371.4519 C331.66,397.9219 345.29,416.0469 364.14,441.0969" fill="none" id="Persona-backto-Asistente" style="stroke:#181818;stroke-width:1;"/><polygon fill="none" points="300.93,357.0669,306.955,375.0585,316.545,367.8452,300.93,357.0669" style="stroke:#181818;stroke-width:1;"/></g><!--reverse link Persona to Jurado--><g class="link" data-entity-1="Persona" data-entity-2="Jurado" data-source-line="84" data-uid="lnk29" id="link_Persona_Jurado"><path codeLine="84" d="M212.0138,370.6974 C189.1838,397.1674 172.88,416.0469 151.26,441.0969" fill="none" id="Persona-backto-Jurado" style="stroke:#181818;stroke-width:1;"/><polygon fill="none" points="223.77,357.0669,207.4703,366.7787,216.5574,374.6162,223.77,357.0669" style="stroke:#181818;stroke-width:1;"/></g><!--SRC=[bLHHJjmm4FtFAIo-jgh20IAqKjM5YgfgL-84iyuGXYRsQkmWLOL38Ox0nMh7SM93WhRvYJrZ-xrvVcDBjaMn8uElprhyOa9beTO2X3xSezL65CKHv6zeK9nzrLslpiJVGhYFb4M-1OdYUezij88nuR_F3ThhUlEf4ZUMIJLPugVk3emhoSiEg7sJUog67noCPP1Mo1QC4H6LkcEBdUDjbfYKWkftGALG0uU517hyD-XFYGRVq5XwVL6YnbPS-Sa3j0kQx8XHMisfA59hhaa1nts-pWTDTLfbA2wko2fP9GtkyYgFdiIEh1k63Ygn7qT9iXxPLJFHcIOqZ0tm3HhIQcCStZ1AkQRhlXWoricF6uSrJLOhYsoooio0W0xhXzj_4G2t_qKf0ub5JJAc9bcu6YTNS4uLRNNwhQNks0DRakJctYFH5e7J9Cs9kAvYyePdWnyXilw3KWxgvNX1eWpi5kMTWzg1nOn2Ix9l1mvXD9E8BehIhr_hk3N3isJxLYyOTlRVQgDTEgNx9Hs_z-nVgDD4nE4KZkpC1mKmTgHFwxSLnOO29ikLvNPklImwzrmMdWnIJ3tYmq7vOhpEuTG8EaeHa3pzOgmYMrN4L_7YiIpVjKQUJJYauG0qnSxF7xVJO_iF]--></g></svg>