<svg xmlns="http://www.w3.org/2000/svg" xmlns:xlink="http://www.w3.org/1999/xlink" contentStyleType="text/css" data-diagram-type="CLASS" height="684px" preserveAspectRatio="none" style="width:1052px;height:684px;background:#FFFFFF;" version="1.1" viewBox="0 0 1052 684" width="1052px" zoomAndPan="magnify"><defs/><g><!--cluster Comun--><g class="cluster" data-entity="Comun" data-source-line="1" data-uid="ent0002" id="cluster_Comun"><path d="M616.5,14 L671.9141,14 A3.75,3.75 0 0 1 674.4141,16.5 L681.4141,36.2969 L775.5,36.2969 A2.5,2.5 0 0 1 778,38.7969 L778,159.5 A2.5,2.5 0 0 1 775.5,162 L616.5,162 A2.5,2.5 0 0 1 614,159.5 L614,16.5 A2.5,2.5 0 0 1 616.5,14" fill="none" style="stroke:#000000;stroke-width:1.5;"/><line style="stroke:#000000;stroke-width:1.5;" x1="614" x2="681.4141" y1="36.2969" y2="36.2969"/><text fill="#000000" font-family="sans-serif" font-size="14" font-weight="bold" lengthAdjust="spacing" textLength="54.4141" x="618" y="28.9951">Comun</text></g><!--cluster Gesti?n del Festival--><g class="cluster" data-entity="Gesti&#243;n del Festival" data-source-line="11" data-uid="ent0004" id="cluster_Gesti&#243;n del Festival"><path d="M8.5,6 L166.2139,6 A3.75,3.75 0 0 1 168.7139,8.5 L175.7139,28.2969 L544.5,28.2969 A2.5,2.5 0 0 1 547,30.7969 L547,508.5 A2.5,2.5 0 0 1 544.5,511 L8.5,511 A2.5,2.5 0 0 1 6,508.5 L6,8.5 A2.5,2.5 0 0 1 8.5,6" fill="none" style="stroke:#000000;stroke-width:1.5;"/><line style="stroke:#000000;stroke-width:1.5;" x1="6" x2="175.7139" y1="28.2969" y2="28.2969"/><text fill="#000000" font-family="sans-serif" font-size="14" font-weight="bold" lengthAdjust="spacing" textLength="156.7139" x="10" y="20.9951">Gesti&#243;n del Festival</text></g><!--cluster Participaci?n--><g class="cluster" data-entity="Participaci&#243;n" data-source-line="33" data-uid="ent0010" id="cluster_Participaci&#243;n"><path d="M623.5,217 L727.8525,217 A3.75,3.75 0 0 1 730.3525,219.5 L737.3525,239.2969 L768.5,239.2969 A2.5,2.5 0 0 1 771,241.7969 L771,329.5 A2.5,2.5 0 0 1 768.5,332 L623.5,332 A2.5,2.5 0 0 1 621,329.5 L621,219.5 A2.5,2.5 0 0 1 623.5,217" fill="none" style="stroke:#000000;stroke-width:1.5;"/><line style="stroke:#000000;stroke-width:1.5;" x1="621" x2="737.3525" y1="239.2969" y2="239.2969"/><text fill="#000000" font-family="sans-serif" font-size="14" font-weight="bold" lengthAdjust="spacing" textLength="103.3525" x="625" y="231.9951">Participaci&#243;n</text></g><!--cluster Proyecciones--><g class="cluster" data-entity="Proyecciones" data-source-line="40" data-uid="ent0012" id="cluster_Proyecciones"><path d="M573.5,387.5 L678.7139,387.5 A3.75,3.75 0 0 1 681.2139,390 L688.2139,409.7969 L796.5,409.7969 A2.5,2.5 0 0 1 799,412.2969 L799,675 A2.5,2.5 0 0 1 796.5,677.5 L573.5,677.5 A2.5,2.5 0 0 1 571,675 L571,390 A2.5,2.5 0 0 1 573.5,387.5" fill="none" style="stroke:#000000;stroke-width:1.5;"/><line style="stroke:#000000;stroke-width:1.5;" x1="571" x2="688.2139" y1="409.7969" y2="409.7969"/><text fill="#000000" font-family="sans-serif" font-size="14" font-weight="bold" lengthAdjust="spacing" textLength="104.2139" x="575" y="402.4951">Proyecciones</text></g><!--cluster Evaluaci?n--><g class="cluster" data-entity="Evaluaci&#243;n" data-source-line="52" data-uid="ent0015" id="cluster_Evaluaci&#243;n"><path d="M825.5,217 L911.5322,217 A3.75,3.75 0 0 1 914.0322,219.5 L921.0322,239.2969 L1042.5,239.2969 A2.5,2.5 0 0 1 1045,241.7969 L1045,508.5 A2.5,2.5 0 0 1 1042.5,511 L825.5,511 A2.5,2.5 0 0 1 823,508.5 L823,219.5 A2.5,2.5 0 0 1 825.5,217" fill="none" style="stroke:#000000;stroke-width:1.5;"/><line style="stroke:#000000;stroke-width:1.5;" x1="823" x2="921.0322" y1="239.2969" y2="239.2969"/><text fill="#000000" font-family="sans-serif" font-size="14" font-weight="bold" lengthAdjust="spacing" textLength="85.0322" x="827" y="231.9951">Evaluaci&#243;n</text></g><!--class Persona--><g class="entity" data-entity="Persona" data-source-line="3" data-uid="ent0003" id="entity_Persona"><rect fill="#F1F1F1" height="96.8906" rx="2.5" ry="2.5" style="stroke:#181818;stroke-width:0.5;" width="131.2803" x="630.5" y="49"/><ellipse cx="664.9208" cy="65" fill="#A9DCDF" rx="11" ry="11" style="stroke:#181818;stroke-width:1;"/><path d="M665.0301,60.3438 L663.8739,65.4219 L666.202,65.4219 L665.0301,60.3438 Z M663.5458,58.1094 L666.5301,58.1094 L669.8895,70.5 L667.4364,70.5 L666.6708,67.4375 L663.3895,67.4375 L662.6395,70.5 L660.202,70.5 L663.5458,58.1094 Z " fill="#000000"/><text fill="#000000" font-family="sans-serif" font-size="14" font-style="italic" lengthAdjust="spacing" textLength="56.123" x="683.2365" y="69.8467">Persona</text><line style="stroke:#181818;stroke-width:0.5;" x1="631.5" x2="760.7803" y1="81" y2="81"/><rect fill="none" height="6" style="stroke:#C82930;stroke-width:1;" width="6" x="638.5" y="91.6484"/><text fill="#000000" font-family="sans-serif" font-size="14" lengthAdjust="spacing" textLength="63.7246" x="650.5" y="97.9951">id: String</text><rect fill="none" height="6" style="stroke:#C82930;stroke-width:1;" width="6" x="638.5" y="107.9453"/><text fill="#000000" font-family="sans-serif" font-size="14" lengthAdjust="spacing" textLength="105.2803" x="650.5" y="114.292">nombre: String</text><rect fill="none" height="6" style="stroke:#C82930;stroke-width:1;" width="6" x="638.5" y="124.2422"/><text fill="#000000" font-family="sans-serif" font-size="14" lengthAdjust="spacing" textLength="89.5576" x="650.5" y="130.5889">email: String</text><line style="stroke:#181818;stroke-width:0.5;" x1="631.5" x2="760.7803" y1="137.8906" y2="137.8906"/></g><!--class IDirector--><g class="entity" data-entity="IDirector" data-source-line="12" data-uid="ent0005" id="entity_IDirector"><rect fill="#F1F1F1" height="64.2969" rx="2.5" ry="2.5" style="stroke:#181818;stroke-width:0.5;" width="196.3789" x="22" y="252"/><ellipse cx="85.6016" cy="268" fill="#B4A7E5" rx="11" ry="11" style="stroke:#181818;stroke-width:1;"/><path d="M81.5234,263.7656 L81.5234,261.6094 L88.9141,261.6094 L88.9141,263.7656 L86.4453,263.7656 L86.4453,271.8438 L88.9141,271.8438 L88.9141,274 L81.5234,274 L81.5234,271.8438 L83.9922,271.8438 L83.9922,263.7656 L81.5234,263.7656 Z " fill="#000000"/><text fill="#000000" font-family="sans-serif" font-size="14" font-style="italic" lengthAdjust="spacing" textLength="60.6758" x="106.1016" y="272.8467">IDirector</text><line style="stroke:#181818;stroke-width:0.5;" x1="23" x2="217.3789" y1="284" y2="284"/><line style="stroke:#181818;stroke-width:0.5;" x1="23" x2="217.3789" y1="292" y2="292"/><ellipse cx="33" cy="305.6484" fill="#84BE84" rx="3" ry="3" style="stroke:#038048;stroke-width:1;"/><text fill="#000000" font-family="sans-serif" font-size="14" lengthAdjust="spacing" textLength="170.3789" x="42" y="308.9951">coordinarFestival(): void</text></g><!--class Festival--><g class="entity" data-entity="Festival" data-source-line="16" data-uid="ent0006" id="entity_Festival"><rect fill="#F1F1F1" height="113.1875" rx="2.5" ry="2.5" style="stroke:#181818;stroke-width:0.5;" width="334.3418" x="133" y="41"/><ellipse cx="268.8745" cy="57" fill="#ADD1B2" rx="11" ry="11" style="stroke:#181818;stroke-width:1;"/><path d="M271.8433,62.6406 Q271.2651,62.9375 270.6245,63.0781 Q269.9839,63.2344 269.2808,63.2344 Q266.7808,63.2344 265.4526,61.5938 Q264.1401,59.9375 264.1401,56.8125 Q264.1401,53.6875 265.4526,52.0313 Q266.7808,50.375 269.2808,50.375 Q269.9839,50.375 270.6245,50.5313 Q271.2808,50.6875 271.8433,50.9844 L271.8433,53.7031 Q271.2183,53.125 270.6245,52.8594 Q270.0308,52.5781 269.4058,52.5781 Q268.062,52.5781 267.3745,53.6563 Q266.687,54.7188 266.687,56.8125 Q266.687,58.9063 267.3745,59.9844 Q268.062,61.0469 269.4058,61.0469 Q270.0308,61.0469 270.6245,60.7813 Q271.2183,60.5 271.8433,59.9219 L271.8433,62.6406 Z " fill="#000000"/><text fill="#000000" font-family="sans-serif" font-size="14" lengthAdjust="spacing" textLength="54.0928" x="289.3745" y="61.8467">Festival</text><line style="stroke:#181818;stroke-width:0.5;" x1="134" x2="466.3418" y1="73" y2="73"/><rect fill="none" height="6" style="stroke:#C82930;stroke-width:1;" width="6" x="141" y="83.6484"/><text fill="#000000" font-family="sans-serif" font-size="14" lengthAdjust="spacing" textLength="105.2803" x="153" y="89.9951">nombre: String</text><rect fill="none" height="6" style="stroke:#C82930;stroke-width:1;" width="6" x="141" y="99.9453"/><text fill="#000000" font-family="sans-serif" font-size="14" lengthAdjust="spacing" textLength="53.4365" x="153" y="106.292">a&#241;o: int</text><line style="stroke:#181818;stroke-width:0.5;" x1="134" x2="466.3418" y1="113.5938" y2="113.5938"/><ellipse cx="144" cy="127.2422" fill="#84BE84" rx="3" ry="3" style="stroke:#038048;stroke-width:1;"/><text fill="#000000" font-family="sans-serif" font-size="14" lengthAdjust="spacing" textLength="250.7148" x="153" y="130.5889">agregarSesion(sesion: Sesion): void</text><ellipse cx="144" cy="143.5391" fill="#84BE84" rx="3" ry="3" style="stroke:#038048;stroke-width:1;"/><text fill="#000000" font-family="sans-serif" font-size="14" lengthAdjust="spacing" textLength="308.3418" x="153" y="146.8857">agregarAsistente(asistente: Asistente): void</text></g><!--class Programa--><g class="entity" data-entity="Programa" data-source-line="23" data-uid="ent0007" id="entity_Programa"><rect fill="#F1F1F1" height="80.5938" rx="2.5" ry="2.5" style="stroke:#181818;stroke-width:0.5;" width="276.7148" x="253.5" y="243.5"/><ellipse cx="353.5063" cy="259.5" fill="#ADD1B2" rx="11" ry="11" style="stroke:#181818;stroke-width:1;"/><path d="M356.4751,265.1406 Q355.897,265.4375 355.2563,265.5781 Q354.6157,265.7344 353.9126,265.7344 Q351.4126,265.7344 350.0845,264.0938 Q348.772,262.4375 348.772,259.3125 Q348.772,256.1875 350.0845,254.5313 Q351.4126,252.875 353.9126,252.875 Q354.6157,252.875 355.2563,253.0313 Q355.9126,253.1875 356.4751,253.4844 L356.4751,256.2031 Q355.8501,255.625 355.2563,255.3594 Q354.6626,255.0781 354.0376,255.0781 Q352.6938,255.0781 352.0063,256.1563 Q351.3188,257.2188 351.3188,259.3125 Q351.3188,261.4063 352.0063,262.4844 Q352.6938,263.5469 354.0376,263.5469 Q354.6626,263.5469 355.2563,263.2813 Q355.8501,263 356.4751,262.4219 L356.4751,265.1406 Z " fill="#000000"/><text fill="#000000" font-family="sans-serif" font-size="14" lengthAdjust="spacing" textLength="68.2021" x="374.0063" y="264.3467">Programa</text><line style="stroke:#181818;stroke-width:0.5;" x1="254.5" x2="529.2148" y1="275.5" y2="275.5"/><rect fill="none" height="6" style="stroke:#C82930;stroke-width:1;" width="6" x="261.5" y="286.1484"/><text fill="#000000" font-family="sans-serif" font-size="14" lengthAdjust="spacing" textLength="163.6592" x="273.5" y="292.4951">sesiones: List&lt;Sesion&gt;</text><line style="stroke:#181818;stroke-width:0.5;" x1="254.5" x2="529.2148" y1="299.7969" y2="299.7969"/><ellipse cx="264.5" cy="313.4453" fill="#84BE84" rx="3" ry="3" style="stroke:#038048;stroke-width:1;"/><text fill="#000000" font-family="sans-serif" font-size="14" lengthAdjust="spacing" textLength="250.7148" x="273.5" y="316.792">agregarSesion(sesion: Sesion): void</text></g><!--class DirectorFestival--><g class="entity" data-entity="DirectorFestival" data-source-line="28" data-uid="ent0008" id="entity_DirectorFestival"><rect fill="#F1F1F1" height="64.2969" rx="2.5" ry="2.5" style="stroke:#181818;stroke-width:0.5;" width="196.3789" x="256" y="431"/><ellipse cx="295.1827" cy="447" fill="#ADD1B2" rx="11" ry="11" style="stroke:#181818;stroke-width:1;"/><path d="M298.1514,452.6406 Q297.5733,452.9375 296.9327,453.0781 Q296.292,453.2344 295.5889,453.2344 Q293.0889,453.2344 291.7608,451.5938 Q290.4483,449.9375 290.4483,446.8125 Q290.4483,443.6875 291.7608,442.0313 Q293.0889,440.375 295.5889,440.375 Q296.292,440.375 296.9327,440.5313 Q297.5889,440.6875 298.1514,440.9844 L298.1514,443.7031 Q297.5264,443.125 296.9327,442.8594 Q296.3389,442.5781 295.7139,442.5781 Q294.3702,442.5781 293.6827,443.6563 Q292.9952,444.7188 292.9952,446.8125 Q292.9952,448.9063 293.6827,449.9844 Q294.3702,451.0469 295.7139,451.0469 Q296.3389,451.0469 296.9327,450.7813 Q297.5264,450.5 298.1514,449.9219 L298.1514,452.6406 Z " fill="#000000"/><text fill="#000000" font-family="sans-serif" font-size="14" lengthAdjust="spacing" textLength="110.6396" x="314.5566" y="451.8467">DirectorFestival</text><line style="stroke:#181818;stroke-width:0.5;" x1="257" x2="451.3789" y1="463" y2="463"/><line style="stroke:#181818;stroke-width:0.5;" x1="257" x2="451.3789" y1="471" y2="471"/><ellipse cx="267" cy="484.6484" fill="#84BE84" rx="3" ry="3" style="stroke:#038048;stroke-width:1;"/><text fill="#000000" font-family="sans-serif" font-size="14" lengthAdjust="spacing" textLength="170.3789" x="276" y="487.9951">coordinarFestival(): void</text></g><!--class Asistente--><g class="entity" data-entity="Asistente" data-source-line="34" data-uid="ent0011" id="entity_Asistente"><rect fill="#F1F1F1" height="64.2969" rx="2.5" ry="2.5" style="stroke:#181818;stroke-width:0.5;" width="117.9092" x="637" y="252"/><ellipse cx="661.3494" cy="268" fill="#ADD1B2" rx="11" ry="11" style="stroke:#181818;stroke-width:1;"/><path d="M664.3181,273.6406 Q663.74,273.9375 663.0994,274.0781 Q662.4587,274.2344 661.7556,274.2344 Q659.2556,274.2344 657.9275,272.5938 Q656.615,270.9375 656.615,267.8125 Q656.615,264.6875 657.9275,263.0313 Q659.2556,261.375 661.7556,261.375 Q662.4587,261.375 663.0994,261.5313 Q663.7556,261.6875 664.3181,261.9844 L664.3181,264.7031 Q663.6931,264.125 663.0994,263.8594 Q662.5056,263.5781 661.8806,263.5781 Q660.5369,263.5781 659.8494,264.6563 Q659.1619,265.7188 659.1619,267.8125 Q659.1619,269.9063 659.8494,270.9844 Q660.5369,272.0469 661.8806,272.0469 Q662.5056,272.0469 663.0994,271.7813 Q663.6931,271.5 664.3181,270.9219 L664.3181,273.6406 Z " fill="#000000"/><text fill="#000000" font-family="sans-serif" font-size="14" lengthAdjust="spacing" textLength="65.1328" x="677.427" y="272.8467">Asistente</text><line style="stroke:#181818;stroke-width:0.5;" x1="638" x2="753.9092" y1="284" y2="284"/><line style="stroke:#181818;stroke-width:0.5;" x1="638" x2="753.9092" y1="292" y2="292"/><ellipse cx="648" cy="305.6484" fill="#84BE84" rx="3" ry="3" style="stroke:#038048;stroke-width:1;"/><text fill="#000000" font-family="sans-serif" font-size="14" lengthAdjust="spacing" textLength="91.9092" x="657" y="308.9951">asistir(): void</text></g><!--class Sesion--><g class="entity" data-entity="Sesion" data-source-line="41" data-uid="ent0013" id="entity_Sesion"><rect fill="#F1F1F1" height="80.5938" rx="2.5" ry="2.5" style="stroke:#181818;stroke-width:0.5;" width="196.2422" x="587" y="422.5"/><ellipse cx="657.8101" cy="438.5" fill="#ADD1B2" rx="11" ry="11" style="stroke:#181818;stroke-width:1;"/><path d="M660.7788,444.1406 Q660.2007,444.4375 659.5601,444.5781 Q658.9194,444.7344 658.2163,444.7344 Q655.7163,444.7344 654.3882,443.0938 Q653.0757,441.4375 653.0757,438.3125 Q653.0757,435.1875 654.3882,433.5313 Q655.7163,431.875 658.2163,431.875 Q658.9194,431.875 659.5601,432.0313 Q660.2163,432.1875 660.7788,432.4844 L660.7788,435.2031 Q660.1538,434.625 659.5601,434.3594 Q658.9663,434.0781 658.3413,434.0781 Q656.9976,434.0781 656.3101,435.1563 Q655.6226,436.2188 655.6226,438.3125 Q655.6226,440.4063 656.3101,441.4844 Q656.9976,442.5469 658.3413,442.5469 Q658.9663,442.5469 659.5601,442.2813 Q660.1538,442 660.7788,441.4219 L660.7788,444.1406 Z " fill="#000000"/><text fill="#000000" font-family="sans-serif" font-size="14" lengthAdjust="spacing" textLength="46.1221" x="678.3101" y="443.3467">Sesion</text><line style="stroke:#181818;stroke-width:0.5;" x1="588" x2="782.2422" y1="454.5" y2="454.5"/><rect fill="none" height="6" style="stroke:#C82930;stroke-width:1;" width="6" x="595" y="465.1484"/><text fill="#000000" font-family="sans-serif" font-size="14" lengthAdjust="spacing" textLength="81.3203" x="607" y="471.4951">fecha: Date</text><line style="stroke:#181818;stroke-width:0.5;" x1="588" x2="782.2422" y1="478.7969" y2="478.7969"/><ellipse cx="598" cy="492.4453" fill="#84BE84" rx="3" ry="3" style="stroke:#038048;stroke-width:1;"/><text fill="#000000" font-family="sans-serif" font-size="14" lengthAdjust="spacing" textLength="170.2422" x="607" y="495.792">programarSesion(): void</text></g><!--class Pelicula--><g class="entity" data-entity="Pelicula" data-source-line="46" data-uid="ent0014" id="entity_Pelicula"><rect fill="#F1F1F1" height="80.5938" rx="2.5" ry="2.5" style="stroke:#181818;stroke-width:0.5;" width="131.6016" x="643" y="580.5"/><ellipse cx="678.5774" cy="596.5" fill="#ADD1B2" rx="11" ry="11" style="stroke:#181818;stroke-width:1;"/><path d="M681.5461,602.1406 Q680.968,602.4375 680.3274,602.5781 Q679.6868,602.7344 678.9836,602.7344 Q676.4836,602.7344 675.1555,601.0938 Q673.843,599.4375 673.843,596.3125 Q673.843,593.1875 675.1555,591.5313 Q676.4836,589.875 678.9836,589.875 Q679.6868,589.875 680.3274,590.0313 Q680.9836,590.1875 681.5461,590.4844 L681.5461,593.2031 Q680.9211,592.625 680.3274,592.3594 Q679.7336,592.0781 679.1086,592.0781 Q677.7649,592.0781 677.0774,593.1563 Q676.3899,594.2188 676.3899,596.3125 Q676.3899,598.4063 677.0774,599.4844 Q677.7649,600.5469 679.1086,600.5469 Q679.7336,600.5469 680.3274,600.2813 Q680.9211,600 681.5461,599.4219 L681.5461,602.1406 Z " fill="#000000"/><text fill="#000000" font-family="sans-serif" font-size="14" lengthAdjust="spacing" textLength="53.874" x="697.1501" y="601.3467">Pelicula</text><line style="stroke:#181818;stroke-width:0.5;" x1="644" x2="773.6016" y1="612.5" y2="612.5"/><rect fill="none" height="6" style="stroke:#C82930;stroke-width:1;" width="6" x="651" y="623.1484"/><text fill="#000000" font-family="sans-serif" font-size="14" lengthAdjust="spacing" textLength="87.1445" x="663" y="629.4951">titulo: String</text><rect fill="none" height="6" style="stroke:#C82930;stroke-width:1;" width="6" x="651" y="639.4453"/><text fill="#000000" font-family="sans-serif" font-size="14" lengthAdjust="spacing" textLength="105.6016" x="663" y="645.792">director: String</text><line style="stroke:#181818;stroke-width:0.5;" x1="644" x2="773.6016" y1="653.0938" y2="653.0938"/></g><!--class Jurado--><g class="entity" data-entity="Jurado" data-source-line="53" data-uid="ent0016" id="entity_Jurado"><rect fill="#F1F1F1" height="64.2969" rx="2.5" ry="2.5" style="stroke:#181818;stroke-width:0.5;" width="189.4609" x="839.5" y="252"/><ellipse cx="907.5859" cy="268" fill="#ADD1B2" rx="11" ry="11" style="stroke:#181818;stroke-width:1;"/><path d="M910.5547,273.6406 Q909.9766,273.9375 909.3359,274.0781 Q908.6953,274.2344 907.9922,274.2344 Q905.4922,274.2344 904.1641,272.5938 Q902.8516,270.9375 902.8516,267.8125 Q902.8516,264.6875 904.1641,263.0313 Q905.4922,261.375 907.9922,261.375 Q908.6953,261.375 909.3359,261.5313 Q909.9922,261.6875 910.5547,261.9844 L910.5547,264.7031 Q909.9297,264.125 909.3359,263.8594 Q908.7422,263.5781 908.1172,263.5781 Q906.7734,263.5781 906.0859,264.6563 Q905.3984,265.7188 905.3984,267.8125 Q905.3984,269.9063 906.0859,270.9844 Q906.7734,272.0469 908.1172,272.0469 Q908.7422,272.0469 909.3359,271.7813 Q909.9297,271.5 910.5547,270.9219 L910.5547,273.6406 Z " fill="#000000"/><text fill="#000000" font-family="sans-serif" font-size="14" lengthAdjust="spacing" textLength="44.7891" x="928.0859" y="272.8467">Jurado</text><line style="stroke:#181818;stroke-width:0.5;" x1="840.5" x2="1027.9609" y1="284" y2="284"/><line style="stroke:#181818;stroke-width:0.5;" x1="840.5" x2="1027.9609" y1="292" y2="292"/><ellipse cx="850.5" cy="305.6484" fill="#84BE84" rx="3" ry="3" style="stroke:#038048;stroke-width:1;"/><text fill="#000000" font-family="sans-serif" font-size="14" lengthAdjust="spacing" textLength="163.4609" x="859.5" y="308.9951">evaluarPeliculas(): void</text></g><!--class Premio--><g class="entity" data-entity="Premio" data-source-line="57" data-uid="ent0017" id="entity_Premio"><rect fill="#F1F1F1" height="64.2969" rx="2.5" ry="2.5" style="stroke:#181818;stroke-width:0.5;" width="131.2803" x="853.5" y="431"/><ellipse cx="891.1692" cy="447" fill="#ADD1B2" rx="11" ry="11" style="stroke:#181818;stroke-width:1;"/><path d="M894.1379,452.6406 Q893.5598,452.9375 892.9192,453.0781 Q892.2786,453.2344 891.5754,453.2344 Q889.0754,453.2344 887.7473,451.5938 Q886.4348,449.9375 886.4348,446.8125 Q886.4348,443.6875 887.7473,442.0313 Q889.0754,440.375 891.5754,440.375 Q892.2786,440.375 892.9192,440.5313 Q893.5754,440.6875 894.1379,440.9844 L894.1379,443.7031 Q893.5129,443.125 892.9192,442.8594 Q892.3254,442.5781 891.7004,442.5781 Q890.3567,442.5781 889.6692,443.6563 Q888.9817,444.7188 888.9817,446.8125 Q888.9817,448.9063 889.6692,449.9844 Q890.3567,451.0469 891.7004,451.0469 Q892.3254,451.0469 892.9192,450.7813 Q893.5129,450.5 894.1379,449.9219 L894.1379,452.6406 Z " fill="#000000"/><text fill="#000000" font-family="sans-serif" font-size="14" lengthAdjust="spacing" textLength="48.9043" x="910.2068" y="451.8467">Premio</text><line style="stroke:#181818;stroke-width:0.5;" x1="854.5" x2="983.7803" y1="463" y2="463"/><rect fill="none" height="6" style="stroke:#C82930;stroke-width:1;" width="6" x="861.5" y="473.6484"/><text fill="#000000" font-family="sans-serif" font-size="14" lengthAdjust="spacing" textLength="105.2803" x="873.5" y="479.9951">nombre: String</text><line style="stroke:#181818;stroke-width:0.5;" x1="854.5" x2="983.7803" y1="487.2969" y2="487.2969"/></g><!--reverse link IDirector to DirectorFestival--><g class="link" data-entity-1="IDirector" data-entity-2="DirectorFestival" data-source-line="29" data-uid="lnk9" id="link_IDirector_DirectorFestival"><path d="M175.3846,326.8903 C217.9846,359.1203 269.9,398.38 312.63,430.7" fill="none" id="IDirector-backto-DirectorFestival" style="stroke:#181818;stroke-width:1;stroke-dasharray:7.0,7.0;"/><polygon fill="none" points="161.03,316.03,171.7645,331.6752,179.0047,322.1054,161.03,316.03" style="stroke:#181818;stroke-width:1;"/></g><!--reverse link Festival to Programa--><g class="link" data-entity-1="Festival" data-entity-2="Programa" data-source-line="62" data-uid="lnk18" id="link_Festival_Programa"><path codeLine="62" d="M333.0861,164.8484 C347.4261,193.5984 359.23,217.29 372.22,243.32" fill="none" id="Festival-backto-Programa" style="stroke:#181818;stroke-width:1;"/><polygon fill="#181818" points="327.73,154.11,326.8286,161.2645,333.0861,164.8484,333.9875,157.6938,327.73,154.11" style="stroke:#181818;stroke-width:1;"/><text fill="#000000" font-family="sans-serif" font-size="13" lengthAdjust="spacing" textLength="56.2847" x="350" y="197.0669">contiene</text></g><!--link Festival to IDirector--><g class="link" data-entity-1="Festival" data-entity-2="IDirector" data-source-line="63" data-uid="lnk19" id="link_Festival_IDirector"><path codeLine="63" d="M245.75,154.11 C214.49,186.15 180.5508,220.9462 154.5208,247.6162" fill="none" id="Festival-to-IDirector" style="stroke:#181818;stroke-width:1;"/><polygon fill="#181818" points="150.33,251.91,159.4788,248.2631,153.8223,248.3318,153.7536,242.6754,150.33,251.91" style="stroke:#181818;stroke-width:1;"/><text fill="#000000" font-family="sans-serif" font-size="13" lengthAdjust="spacing" textLength="74.5723" x="217" y="197.0669">dirigido por</text></g><!--reverse link Programa to Sesion--><g class="link" data-entity-1="Programa" data-entity-2="Sesion" data-source-line="64" data-uid="lnk20" id="link_Programa_Sesion"><path codeLine="64" d="M467.6613,330.7049 C515.9813,359.8949 571.22,393.27 619.56,422.47" fill="none" id="Programa-backto-Sesion" style="stroke:#181818;stroke-width:1;"/><polygon fill="#181818" points="457.39,324.5,460.4574,331.0262,467.6613,330.7049,464.5939,324.1787,457.39,324.5" style="stroke:#181818;stroke-width:1;"/><text fill="#000000" font-family="sans-serif" font-size="13" lengthAdjust="spacing" textLength="46.0205" x="531" y="367.5669">agrupa</text></g><!--reverse link Sesion to Pelicula--><g class="link" data-entity-1="Sesion" data-entity-2="Pelicula" data-source-line="65" data-uid="lnk21" id="link_Sesion_Pelicula"><path codeLine="65" d="M692.9443,515.6305 C696.5543,539.1005 699.28,556.85 702.89,580.3" fill="none" id="Sesion-backto-Pelicula" style="stroke:#181818;stroke-width:1;"/><polygon fill="none" points="691.12,503.77,688.0786,510.3084,692.9443,515.6305,695.9857,509.0922,691.12,503.77" style="stroke:#181818;stroke-width:1;"/><text fill="#000000" font-family="sans-serif" font-size="13" lengthAdjust="spacing" textLength="57.4526" x="698" y="546.5669">proyecta</text></g><!--link Jurado to Premio--><g class="link" data-entity-1="Jurado" data-entity-2="Premio" data-source-line="66" data-uid="lnk22" id="link_Jurado_Premio"><path codeLine="66" d="M931.35,316.24 C928.62,348.49 924.8861,392.5514 922.1561,424.8014" fill="none" id="Jurado-to-Premio" style="stroke:#181818;stroke-width:1;"/><polygon fill="#181818" points="921.65,430.78,926.3949,422.1495,922.0717,425.7978,918.4234,421.4747,921.65,430.78" style="stroke:#181818;stroke-width:1;"/><text fill="#000000" font-family="sans-serif" font-size="13" lengthAdjust="spacing" textLength="43.4751" x="928" y="367.5669">evalua</text></g><!--link Premio to Pelicula--><g class="link" data-entity-1="Premio" data-entity-2="Pelicula" data-source-line="67" data-uid="lnk23" id="link_Premio_Pelicula"><path codeLine="67" d="M877.26,495.01 C844.25,519.53 802.7468,550.3625 767.0668,576.8625" fill="none" id="Premio-to-Pelicula" style="stroke:#181818;stroke-width:1;"/><polygon fill="#181818" points="762.25,580.44,771.8602,578.285,766.264,577.4588,767.0902,571.8626,762.25,580.44" style="stroke:#181818;stroke-width:1;"/><text fill="#000000" font-family="sans-serif" font-size="13" lengthAdjust="spacing" textLength="70.8716" x="821" y="546.5669">otorgado a</text></g><!--link Asistente to Sesion--><g class="link" data-entity-1="Asistente" data-entity-2="Sesion" data-source-line="68" data-uid="lnk24" id="link_Asistente_Sesion"><path codeLine="68" d="M694.06,316.24 C692.22,345.81 689.8218,384.3515 687.8318,416.4015" fill="none" id="Asistente-to-Sesion" style="stroke:#181818;stroke-width:1;"/><polygon fill="#181818" points="687.46,422.39,692.0101,413.6552,687.7699,417.3996,684.0254,413.1594,687.46,422.39" style="stroke:#181818;stroke-width:1;"/><text fill="#000000" font-family="sans-serif" font-size="13" lengthAdjust="spacing" textLength="50.3179" x="692" y="367.5669">asiste a</text></g><!--reverse link Persona to DirectorFestival--><g class="link" data-entity-1="Persona" data-entity-2="DirectorFestival" data-source-line="70" data-uid="lnk25" id="link_Persona_DirectorFestival"><path codeLine="70" d="M649.5065,160.8373 C636.1765,179.7673 632.02,187.42 621,209 C586.05,277.42 614.62,315.51 562,371.5 C532.67,402.71 490.73,423.73 452.17,437.6" fill="none" id="Persona-backto-DirectorFestival" style="stroke:#181818;stroke-width:1;"/><polygon fill="none" points="659.87,146.12,644.6007,157.3828,654.4123,164.2918,659.87,146.12" style="stroke:#181818;stroke-width:1;"/></g><!--reverse link Persona to Asistente--><g class="link" data-entity-1="Persona" data-entity-2="Asistente" data-source-line="71" data-uid="lnk26" id="link_Persona_Asistente"><path codeLine="71" d="M696,164.01 C696,197.33 696,222.91 696,251.87" fill="none" id="Persona-backto-Asistente" style="stroke:#181818;stroke-width:1;"/><polygon fill="none" points="696,146.01,690,164.01,702,164.01,696,146.01" style="stroke:#181818;stroke-width:1;"/></g><!--reverse link Persona to Jurado--><g class="link" data-entity-1="Persona" data-entity-2="Jurado" data-source-line="72" data-uid="lnk27" id="link_Persona_Jurado"><path codeLine="72" d="M771.5145,157.0401 C814.4845,190.3601 856.48,222.91 893.85,251.87" fill="none" id="Persona-backto-Jurado" style="stroke:#181818;stroke-width:1;"/><polygon fill="none" points="757.29,146.01,767.8379,161.7816,775.1912,152.2985,757.29,146.01" style="stroke:#181818;stroke-width:1;"/></g><!--SRC=[dLHRJjqm4FttAaRyzBOe6x0GKbLArQeVLs85WpEaeoPsEdQGq8L58PR0ncex3oVbqbT-7C_hd3apIO_cEpO49nzSDzWJE2W5yS5h7mHD0DEYzx0dySxY8VlIKm7N6gw2i6rMHkkwQw4Z3kgGsutzGJqezGRs-6EWGF29VE3d9mirjN2PBhVOgdvcTzITsAPIR0F93Hg2pnSiP88JA5HFZNDIiqMPytPlDTmwhYSU-HZxd2FWy3TDuVEZqmczO64ZrA1SaMTdTpuVCJEVQzHry7lFFb3iOOVpcuR5-2hNlRX6iCCDrn6Hl8QlCVzi13x_TtuRf5dKHHtk-fQwoCx_d-An-ZBPFKfWm_6UvZkFT0HUH5WNpoAnl2nPbYbASqV6P2LMI2lh5cViVoFa3PblgE420nNeVf9yrk_rsL3BPcYtimaSXjOTsQDwal3bzx5m_nX578v9z6KGhDrQ7ygXCbFmls4frB7xqwvd8iletrLLsJmDnjd0PAa4LDNvQYbqQeuRZXHx9sh9J6KcrJN4fHnwLDFT9OHPFmrzdbf0DNMQwa_4DOoz0gZ9afqbrqKAJKf2LLOfnHJeR0O4fQP_79pTHmA_hlpMknJRcaU6Fm40]--></g></svg>