<svg xmlns="http://www.w3.org/2000/svg" xmlns:xlink="http://www.w3.org/1999/xlink" contentStyleType="text/css" data-diagram-type="CLASS" height="423px" preserveAspectRatio="none" style="width:761px;height:423px;background:#FFFFFF;" version="1.1" viewBox="0 0 761 423" width="761px" zoomAndPan="magnify"><title>Modelo del Dominio - Festival de Cine (visi&#243;n general)</title><defs/><g><text fill="#000000" font-family="sans-serif" font-size="14" font-weight="bold" lengthAdjust="spacing" textLength="427.4854" x="160.2178" y="22.9951">Modelo del Dominio - Festival de Cine (visi&#243;n general)</text><!--class El festival--><g class="entity" data-entity="El festival" data-source-line="3" data-uid="ent0002" id="entity_El festival"><rect fill="#F1F1F1" height="48" rx="2.5" ry="2.5" style="stroke:#181818;stroke-width:0.5;" width="100.1543" x="169.5" y="44.2969"/><ellipse cx="184.5" cy="60.2969" fill="#ADD1B2" rx="11" ry="11" style="stroke:#181818;stroke-width:1;"/><path d="M187.4688,65.9375 Q186.8906,66.2344 186.25,66.375 Q185.6094,66.5313 184.9063,66.5313 Q182.4063,66.5313 181.0781,64.8906 Q179.7656,63.2344 179.7656,60.1094 Q179.7656,56.9844 181.0781,55.3281 Q182.4063,53.6719 184.9063,53.6719 Q185.6094,53.6719 186.25,53.8281 Q186.9063,53.9844 187.4688,54.2813 L187.4688,57 Q186.8438,56.4219 186.25,56.1563 Q185.6563,55.875 185.0313,55.875 Q183.6875,55.875 183,56.9531 Q182.3125,58.0156 182.3125,60.1094 Q182.3125,62.2031 183,63.2813 Q183.6875,64.3438 185.0313,64.3438 Q185.6563,64.3438 186.25,64.0781 Q186.8438,63.7969 187.4688,63.2188 L187.4688,65.9375 Z " fill="#000000"/><text fill="#000000" font-family="sans-serif" font-size="14" lengthAdjust="spacing" textLength="68.1543" x="198.5" y="65.1436">El festival</text><line style="stroke:#181818;stroke-width:0.5;" x1="170.5" x2="268.6543" y1="76.2969" y2="76.2969"/><line style="stroke:#181818;stroke-width:0.5;" x1="170.5" x2="268.6543" y1="84.2969" y2="84.2969"/></g><!--class Una pel?cula--><g class="entity" data-entity="Una pel&#237;cula" data-source-line="4" data-uid="ent0003" id="entity_Una pel&#237;cula"><rect fill="#F1F1F1" height="48" rx="2.5" ry="2.5" style="stroke:#181818;stroke-width:0.5;" width="118.4678" x="541.5" y="368.2969"/><ellipse cx="556.5" cy="384.2969" fill="#ADD1B2" rx="11" ry="11" style="stroke:#181818;stroke-width:1;"/><path d="M559.4688,389.9375 Q558.8906,390.2344 558.25,390.375 Q557.6094,390.5313 556.9063,390.5313 Q554.4063,390.5313 553.0781,388.8906 Q551.7656,387.2344 551.7656,384.1094 Q551.7656,380.9844 553.0781,379.3281 Q554.4063,377.6719 556.9063,377.6719 Q557.6094,377.6719 558.25,377.8281 Q558.9063,377.9844 559.4688,378.2813 L559.4688,381 Q558.8438,380.4219 558.25,380.1563 Q557.6563,379.875 557.0313,379.875 Q555.6875,379.875 555,380.9531 Q554.3125,382.0156 554.3125,384.1094 Q554.3125,386.2031 555,387.2813 Q555.6875,388.3438 557.0313,388.3438 Q557.6563,388.3438 558.25,388.0781 Q558.8438,387.7969 559.4688,387.2188 L559.4688,389.9375 Z " fill="#000000"/><text fill="#000000" font-family="sans-serif" font-size="14" lengthAdjust="spacing" textLength="86.4678" x="570.5" y="389.1436">Una pel&#237;cula</text><line style="stroke:#181818;stroke-width:0.5;" x1="542.5" x2="658.9678" y1="400.2969" y2="400.2969"/><line style="stroke:#181818;stroke-width:0.5;" x1="542.5" x2="658.9678" y1="408.2969" y2="408.2969"/></g><!--class El jurado--><g class="entity" data-entity="El jurado" data-source-line="5" data-uid="ent0004" id="entity_El jurado"><rect fill="#F1F1F1" height="48" rx="2.5" ry="2.5" style="stroke:#181818;stroke-width:0.5;" width="93.7354" x="650.5" y="152.2969"/><ellipse cx="665.5" cy="168.2969" fill="#ADD1B2" rx="11" ry="11" style="stroke:#181818;stroke-width:1;"/><path d="M668.4688,173.9375 Q667.8906,174.2344 667.25,174.375 Q666.6094,174.5313 665.9063,174.5313 Q663.4063,174.5313 662.0781,172.8906 Q660.7656,171.2344 660.7656,168.1094 Q660.7656,164.9844 662.0781,163.3281 Q663.4063,161.6719 665.9063,161.6719 Q666.6094,161.6719 667.25,161.8281 Q667.9063,161.9844 668.4688,162.2813 L668.4688,165 Q667.8438,164.4219 667.25,164.1563 Q666.6563,163.875 666.0313,163.875 Q664.6875,163.875 664,164.9531 Q663.3125,166.0156 663.3125,168.1094 Q663.3125,170.2031 664,171.2813 Q664.6875,172.3438 666.0313,172.3438 Q666.6563,172.3438 667.25,172.0781 Q667.8438,171.7969 668.4688,171.2188 L668.4688,173.9375 Z " fill="#000000"/><text fill="#000000" font-family="sans-serif" font-size="14" lengthAdjust="spacing" textLength="61.7354" x="679.5" y="173.1436">El jurado</text><line style="stroke:#181818;stroke-width:0.5;" x1="651.5" x2="743.2354" y1="184.2969" y2="184.2969"/><line style="stroke:#181818;stroke-width:0.5;" x1="651.5" x2="743.2354" y1="192.2969" y2="192.2969"/></g><!--class El programa del festival--><g class="entity" data-entity="El programa del festival" data-source-line="6" data-uid="ent0005" id="entity_El programa del festival"><rect fill="#F1F1F1" height="48" rx="2.5" ry="2.5" style="stroke:#181818;stroke-width:0.5;" width="199.0908" x="7" y="152.2969"/><ellipse cx="22" cy="168.2969" fill="#ADD1B2" rx="11" ry="11" style="stroke:#181818;stroke-width:1;"/><path d="M24.9688,173.9375 Q24.3906,174.2344 23.75,174.375 Q23.1094,174.5313 22.4063,174.5313 Q19.9063,174.5313 18.5781,172.8906 Q17.2656,171.2344 17.2656,168.1094 Q17.2656,164.9844 18.5781,163.3281 Q19.9063,161.6719 22.4063,161.6719 Q23.1094,161.6719 23.75,161.8281 Q24.4063,161.9844 24.9688,162.2813 L24.9688,165 Q24.3438,164.4219 23.75,164.1563 Q23.1563,163.875 22.5313,163.875 Q21.1875,163.875 20.5,164.9531 Q19.8125,166.0156 19.8125,168.1094 Q19.8125,170.2031 20.5,171.2813 Q21.1875,172.3438 22.5313,172.3438 Q23.1563,172.3438 23.75,172.0781 Q24.3438,171.7969 24.9688,171.2188 L24.9688,173.9375 Z " fill="#000000"/><text fill="#000000" font-family="sans-serif" font-size="14" lengthAdjust="spacing" textLength="167.0908" x="36" y="173.1436">El programa del festival</text><line style="stroke:#181818;stroke-width:0.5;" x1="8" x2="205.0908" y1="184.2969" y2="184.2969"/><line style="stroke:#181818;stroke-width:0.5;" x1="8" x2="205.0908" y1="192.2969" y2="192.2969"/></g><!--class La sesi?n de proyecci?n--><g class="entity" data-entity="La sesi&#243;n de proyecci&#243;n" data-source-line="7" data-uid="ent0006" id="entity_La sesi&#243;n de proyecci&#243;n"><rect fill="#F1F1F1" height="48" rx="2.5" ry="2.5" style="stroke:#181818;stroke-width:0.5;" width="200.5879" x="404" y="260.2969"/><ellipse cx="419" cy="276.2969" fill="#ADD1B2" rx="11" ry="11" style="stroke:#181818;stroke-width:1;"/><path d="M421.9688,281.9375 Q421.3906,282.2344 420.75,282.375 Q420.1094,282.5313 419.4063,282.5313 Q416.9063,282.5313 415.5781,280.8906 Q414.2656,279.2344 414.2656,276.1094 Q414.2656,272.9844 415.5781,271.3281 Q416.9063,269.6719 419.4063,269.6719 Q420.1094,269.6719 420.75,269.8281 Q421.4063,269.9844 421.9688,270.2813 L421.9688,273 Q421.3438,272.4219 420.75,272.1563 Q420.1563,271.875 419.5313,271.875 Q418.1875,271.875 417.5,272.9531 Q416.8125,274.0156 416.8125,276.1094 Q416.8125,278.2031 417.5,279.2813 Q418.1875,280.3438 419.5313,280.3438 Q420.1563,280.3438 420.75,280.0781 Q421.3438,279.7969 421.9688,279.2188 L421.9688,281.9375 Z " fill="#000000"/><text fill="#000000" font-family="sans-serif" font-size="14" lengthAdjust="spacing" textLength="168.5879" x="433" y="281.1436">La sesi&#243;n de proyecci&#243;n</text><line style="stroke:#181818;stroke-width:0.5;" x1="405" x2="603.5879" y1="292.2969" y2="292.2969"/><line style="stroke:#181818;stroke-width:0.5;" x1="405" x2="603.5879" y1="300.2969" y2="300.2969"/></g><!--class Los asistentes--><g class="entity" data-entity="Los asistentes" data-source-line="8" data-uid="ent0007" id="entity_Los asistentes"><rect fill="#F1F1F1" height="48" rx="2.5" ry="2.5" style="stroke:#181818;stroke-width:0.5;" width="131.5381" x="461.5" y="152.2969"/><ellipse cx="476.5" cy="168.2969" fill="#ADD1B2" rx="11" ry="11" style="stroke:#181818;stroke-width:1;"/><path d="M479.4688,173.9375 Q478.8906,174.2344 478.25,174.375 Q477.6094,174.5313 476.9063,174.5313 Q474.4063,174.5313 473.0781,172.8906 Q471.7656,171.2344 471.7656,168.1094 Q471.7656,164.9844 473.0781,163.3281 Q474.4063,161.6719 476.9063,161.6719 Q477.6094,161.6719 478.25,161.8281 Q478.9063,161.9844 479.4688,162.2813 L479.4688,165 Q478.8438,164.4219 478.25,164.1563 Q477.6563,163.875 477.0313,163.875 Q475.6875,163.875 475,164.9531 Q474.3125,166.0156 474.3125,168.1094 Q474.3125,170.2031 475,171.2813 Q475.6875,172.3438 477.0313,172.3438 Q477.6563,172.3438 478.25,172.0781 Q478.8438,171.7969 479.4688,171.2188 L479.4688,173.9375 Z " fill="#000000"/><text fill="#000000" font-family="sans-serif" font-size="14" lengthAdjust="spacing" textLength="99.5381" x="490.5" y="173.1436">Los asistentes</text><line style="stroke:#181818;stroke-width:0.5;" x1="462.5" x2="592.0381" y1="184.2969" y2="184.2969"/><line style="stroke:#181818;stroke-width:0.5;" x1="462.5" x2="592.0381" y1="192.2969" y2="192.2969"/></g><!--class El palmar?s--><g class="entity" data-entity="El palmar&#233;s" data-source-line="9" data-uid="ent0008" id="entity_El palmar&#233;s"><rect fill="#F1F1F1" height="48" rx="2.5" ry="2.5" style="stroke:#181818;stroke-width:0.5;" width="114.4209" x="640.5" y="260.2969"/><ellipse cx="655.5" cy="276.2969" fill="#ADD1B2" rx="11" ry="11" style="stroke:#181818;stroke-width:1;"/><path d="M658.4688,281.9375 Q657.8906,282.2344 657.25,282.375 Q656.6094,282.5313 655.9063,282.5313 Q653.4063,282.5313 652.0781,280.8906 Q650.7656,279.2344 650.7656,276.1094 Q650.7656,272.9844 652.0781,271.3281 Q653.4063,269.6719 655.9063,269.6719 Q656.6094,269.6719 657.25,269.8281 Q657.9063,269.9844 658.4688,270.2813 L658.4688,273 Q657.8438,272.4219 657.25,272.1563 Q656.6563,271.875 656.0313,271.875 Q654.6875,271.875 654,272.9531 Q653.3125,274.0156 653.3125,276.1094 Q653.3125,278.2031 654,279.2813 Q654.6875,280.3438 656.0313,280.3438 Q656.6563,280.3438 657.25,280.0781 Q657.8438,279.7969 658.4688,279.2188 L658.4688,281.9375 Z " fill="#000000"/><text fill="#000000" font-family="sans-serif" font-size="14" lengthAdjust="spacing" textLength="82.4209" x="669.5" y="281.1436">El palmar&#233;s</text><line style="stroke:#181818;stroke-width:0.5;" x1="641.5" x2="753.9209" y1="292.2969" y2="292.2969"/><line style="stroke:#181818;stroke-width:0.5;" x1="641.5" x2="753.9209" y1="300.2969" y2="300.2969"/></g><!--class El director del festival--><g class="entity" data-entity="El director del festival" data-source-line="10" data-uid="ent0009" id="entity_El director del festival"><rect fill="#F1F1F1" height="48" rx="2.5" ry="2.5" style="stroke:#181818;stroke-width:0.5;" width="185.0977" x="241" y="152.2969"/><ellipse cx="256" cy="168.2969" fill="#ADD1B2" rx="11" ry="11" style="stroke:#181818;stroke-width:1;"/><path d="M258.9688,173.9375 Q258.3906,174.2344 257.75,174.375 Q257.1094,174.5313 256.4063,174.5313 Q253.9063,174.5313 252.5781,172.8906 Q251.2656,171.2344 251.2656,168.1094 Q251.2656,164.9844 252.5781,163.3281 Q253.9063,161.6719 256.4063,161.6719 Q257.1094,161.6719 257.75,161.8281 Q258.4063,161.9844 258.9688,162.2813 L258.9688,165 Q258.3438,164.4219 257.75,164.1563 Q257.1563,163.875 256.5313,163.875 Q255.1875,163.875 254.5,164.9531 Q253.8125,166.0156 253.8125,168.1094 Q253.8125,170.2031 254.5,171.2813 Q255.1875,172.3438 256.5313,172.3438 Q257.1563,172.3438 257.75,172.0781 Q258.3438,171.7969 258.9688,171.2188 L258.9688,173.9375 Z " fill="#000000"/><text fill="#000000" font-family="sans-serif" font-size="14" lengthAdjust="spacing" textLength="153.0977" x="270" y="173.1436">El director del festival</text><line style="stroke:#181818;stroke-width:0.5;" x1="242" x2="425.0977" y1="184.2969" y2="184.2969"/><line style="stroke:#181818;stroke-width:0.5;" x1="242" x2="425.0977" y1="192.2969" y2="192.2969"/></g><!--link El festival to El programa del festival--><g class="link" data-entity-1="El festival" data-entity-2="El programa del festival" data-source-line="12" data-uid="lnk10" id="link_El festival_El programa del festival"><path codeLine="12" d="M194.98,92.2969 C176.16,109.9569 154.6459,130.1318 135.7359,147.8718" fill="none" id="El festival-to-El programa del festival" style="stroke:#181818;stroke-width:1;"/><polygon fill="#181818" points="131.36,151.9769,140.6605,148.7364,135.0065,148.556,135.187,142.902,131.36,151.9769" style="stroke:#181818;stroke-width:1;"/></g><!--link El programa del festival to La sesi?n de proyecci?n--><g class="link" data-entity-1="El programa del festival" data-entity-2="La sesi&#243;n de proyecci&#243;n" data-source-line="13" data-uid="lnk11" id="link_El programa del festival_La sesi&#243;n de proyecci&#243;n"><path codeLine="13" d="M192.86,200.2969 C259.5,218.0469 345.4821,240.9428 412.1721,258.7028" fill="none" id="El programa del festival-to-La sesi&#243;n de proyecci&#243;n" style="stroke:#181818;stroke-width:1;"/><polygon fill="#181818" points="417.97,260.2469,410.3025,254.0655,413.1384,258.9602,408.2438,261.7961,417.97,260.2469" style="stroke:#181818;stroke-width:1;"/></g><!--link La sesi?n de proyecci?n to Una pel?cula--><g class="link" data-entity-1="La sesi&#243;n de proyecci&#243;n" data-entity-2="Una pel&#237;cula" data-source-line="14" data-uid="lnk12" id="link_La sesi&#243;n de proyecci&#243;n_Una pel&#237;cula"><path codeLine="14" d="M525.33,308.2969 C541.32,325.9569 559.2818,345.7901 575.3518,363.5301" fill="none" id="La sesi&#243;n de proyecci&#243;n-to-Una pel&#237;cula" style="stroke:#181818;stroke-width:1;"/><polygon fill="#181818" points="579.38,367.9769,576.3023,358.6213,576.0232,364.2712,570.3732,363.9922,579.38,367.9769" style="stroke:#181818;stroke-width:1;"/></g><!--link El jurado to El palmar?s--><g class="link" data-entity-1="El jurado" data-entity-2="El palmar&#233;s" data-source-line="15" data-uid="lnk13" id="link_El jurado_El palmar&#233;s"><path codeLine="15" d="M697.5,200.2969 C697.5,217.9569 697.5,236.2369 697.5,253.9769" fill="none" id="El jurado-to-El palmar&#233;s" style="stroke:#181818;stroke-width:1;"/><polygon fill="#181818" points="697.5,259.9769,701.5,250.9769,697.5,254.9769,693.5,250.9769,697.5,259.9769" style="stroke:#181818;stroke-width:1;"/></g><!--link El palmar?s to Una pel?cula--><g class="link" data-entity-1="El palmar&#233;s" data-entity-2="Una pel&#237;cula" data-source-line="16" data-uid="lnk14" id="link_El palmar&#233;s_Una pel&#237;cula"><path codeLine="16" d="M676.45,308.2969 C660.29,325.9569 642.1201,345.81 625.8901,363.55" fill="none" id="El palmar&#233;s-to-Una pel&#237;cula" style="stroke:#181818;stroke-width:1;"/><polygon fill="#181818" points="621.84,367.9769,630.8663,364.0366,625.215,364.2878,624.9638,358.6366,621.84,367.9769" style="stroke:#181818;stroke-width:1;"/></g><!--link Los asistentes to La sesi?n de proyecci?n--><g class="link" data-entity-1="Los asistentes" data-entity-2="La sesi&#243;n de proyecci&#243;n" data-source-line="17" data-uid="lnk15" id="link_Los asistentes_La sesi&#243;n de proyecci&#243;n"><path codeLine="17" d="M522.51,200.2969 C518.68,217.9569 514.6825,236.3734 510.8325,254.1134" fill="none" id="Los asistentes-to-La sesi&#243;n de proyecci&#243;n" style="stroke:#181818;stroke-width:1;"/><polygon fill="#181818" points="509.56,259.9769,515.3778,252.03,510.6204,255.0906,507.5598,250.3333,509.56,259.9769" style="stroke:#181818;stroke-width:1;"/></g><!--link El festival to El director del festival--><g class="link" data-entity-1="El festival" data-entity-2="El director del festival" data-source-line="18" data-uid="lnk16" id="link_El festival_El director del festival"><path codeLine="18" d="M244.24,92.2969 C263.23,109.9569 284.9459,130.1513 304.0259,147.8913" fill="none" id="El festival-to-El director del festival" style="stroke:#181818;stroke-width:1;"/><polygon fill="#181818" points="308.42,151.9769,304.5525,142.9192,304.7582,148.5723,299.1051,148.778,308.42,151.9769" style="stroke:#181818;stroke-width:1;"/></g><!--SRC=[XL0v3i903Epp2YiL5Fa23KS59G-mDYOoSdQZzIOIJwAWuWdv6860SX12OydZyNWyWOCG75nAug0fi74vMtQGm8uqS8NImB1cIx2eMBc-MyZ8aaTPHf4HL8LuAt1wi-CFThG81KbzCwLWt6EUIu-fwoE5Tvd775y6leJs24hjuSP9mxsGCS-sOpW5LDP0Df0Eb55ozFLr0ARioGJdH-UYmHkG9AivSxz7xUQCwvbPkpkAhXTQvwfxRDXEAumI-cznCehfu1u0]--></g></svg>